<svg xmlns="http://www.w3.org/2000/svg" width="32" height="32" fill="none"><g clip-path="url(#a)"><g clip-path="url(#b)"><path fill="#121212" d="M24 16.049a8 8 0 1 0-9.25 7.902v-5.59h-2.031v-2.313h2.03v-1.761c0-2.005 1.196-3.113 3.023-3.113.875 0 1.79.157 1.79.157v1.968h-1.009c-.994 0-1.304.617-1.304 1.25v1.5h2.219l-.355 2.313H17.25v5.59A8.003 8.003 0 0 0 24 16.048Z"/></g></g><rect width="30.667" height="30.667" x=".667" y=".667" stroke="#000" stroke-width="1.333" rx="15.333"/><defs><clipPath id="a"><path fill="#fff" d="M8 8h16v16H8z"/></clipPath><clipPath id="b"><path fill="#fff" d="M8 8h16v16H8z"/></clipPath></defs></svg>