<svg xmlns="http://www.w3.org/2000/svg" width="32" height="32" fill="none"><g clip-path="url(#a)"><g clip-path="url(#b)"><path fill="#121212" d="M16.17 9.333a6.835 6.835 0 0 0-2.163 13.322c.342.064.468-.147.468-.329 0-.162-.006-.593-.01-1.162-1.9.412-2.302-.917-2.302-.917-.31-.79-.76-1-.76-1-.62-.424.048-.415.048-.415.686.047 1.047.704 1.047.704.61 1.045 1.6.743 1.99.568.062-.442.238-.743.434-.914-1.519-.17-3.114-.759-3.114-3.378 0-.746.265-1.356.703-1.834-.076-.173-.307-.868.06-1.81 0 0 .573-.183 1.88.701a6.553 6.553 0 0 1 1.71-.23 6.552 6.552 0 0 1 1.708.23c1.299-.884 1.871-.7 1.871-.7.368.941.137 1.636.069 1.809.435.478.7 1.088.7 1.834 0 2.626-1.598 3.204-3.119 3.372.24.205.462.625.462 1.265 0 .915-.009 1.65-.009 1.872 0 .18.12.393.47.324a6.812 6.812 0 0 0 4.692-6.476 6.836 6.836 0 0 0-6.836-6.836Z"/></g></g><rect width="30.667" height="30.667" x=".667" y=".667" stroke="#000" stroke-width="1.333" rx="15.333"/><defs><clipPath id="a"><path fill="#fff" d="M8 8h16v16H8z"/></clipPath><clipPath id="b"><path fill="#fff" d="M8 8h16v16H8z"/></clipPath></defs></svg>