<svg xmlns="http://www.w3.org/2000/svg" width="32" height="32" fill="none"><g clip-path="url(#a)"><g clip-path="url(#b)"><path fill="#121212" d="M16 8a8 8 0 1 0 4.556 14.576l-2.071-2.072a5.143 5.143 0 1 1 0-9.008l2.07-2.073A7.962 7.962 0 0 0 16 8Zm6.576 3.444-2.072 2.071c.42.76.64 1.616.64 2.485a5.12 5.12 0 0 1-.64 2.485l2.072 2.07A7.962 7.962 0 0 0 24 16a7.968 7.968 0 0 0-1.424-4.556Z"/></g></g><rect width="30.667" height="30.667" x=".667" y=".667" stroke="#121212" stroke-width="1.333" rx="15.333"/><defs><clipPath id="a"><path fill="#fff" d="M8 8h16v16H8z"/></clipPath><clipPath id="b"><path fill="#fff" d="M8 8h16v16H8z"/></clipPath></defs></svg>