<svg xmlns="http://www.w3.org/2000/svg" width="32" height="32" fill="none"><g clip-path="url(#a)"><g clip-path="url(#b)"><path fill="#121212" d="M23.968 11.047a6.666 6.666 0 0 1-1.883.516 3.305 3.305 0 0 0 1.442-1.815c-.634.37-1.337.64-2.085.79a3.28 3.28 0 0 0-5.589 2.987 9.292 9.292 0 0 1-6.76-3.417c-.294.5-.447 1.07-.444 1.65 0 1.14.58 2.142 1.459 2.73a3.268 3.268 0 0 1-1.485-.41v.04a3.282 3.282 0 0 0 2.63 3.218 3.33 3.33 0 0 1-1.474.057 3.29 3.29 0 0 0 3.069 2.278A6.579 6.579 0 0 1 8 21.029a9.33 9.33 0 0 0 5.038 1.473c6.035 0 9.332-4.997 9.332-9.323 0-.14 0-.28-.01-.42A6.624 6.624 0 0 0 24 11.06l-.032-.013Z"/></g></g><rect width="30.667" height="30.667" x=".667" y=".667" stroke="#000" stroke-width="1.333" rx="15.333"/><defs><clipPath id="a"><path fill="#fff" d="M8 8h16v16H8z"/></clipPath><clipPath id="b"><path fill="#fff" d="M8 8h16v16H8z"/></clipPath></defs></svg>