<svg width="824" height="301" viewBox="0 0 824 301" fill="none" xmlns="http://www.w3.org/2000/svg">
  <path d="M100.993 41.7C98.5734 41.7 95.9334 39.06 95.9334 36.64C95.9334 33.34 98.5734 31.58 100.993 31.58H137.513V1.66H100.993C81.6334 1.66 66.0134 17.28 66.0134 36.64C66.0134 56 81.6334 71.62 100.993 71.62H105.613C108.033 71.62 110.673 73.82 110.673 76.24C110.673 79.54 108.033 81.3 105.613 81.3H69.5334V111.22H105.613C124.973 111.22 140.593 95.6 140.593 76.24C140.593 56.88 124.973 41.7 105.613 41.7H100.993ZM214.481 110.34L278.501 0.77999H241.981L214.481 55.56L186.981 0.77999H150.461L214.481 110.34ZM403.217 1.22H325.557H293.657V33.12V40.16V71.84V78.88V110.78H325.557H403.217V78.88H325.557V71.84H384.957V40.16H325.557V33.12H403.217V1.22ZM458.76 1.22H426.86V78.88V110.78H458.76H536.42V78.88H458.76V1.22ZM608.24 1.43999H576.34H539.6V28.72H576.34V111H608.24V28.72H644.98V1.43999H608.24ZM772.103 1.22H694.443H662.543V33.12V40.16V71.84V78.88V110.78H694.443H772.103V78.88H694.443V71.84H753.843V40.16H694.443V33.12H772.103V1.22ZM64.7347 300.34L128.755 190.78H92.2347L64.7347 245.56L37.2347 190.78H0.714688L64.7347 300.34ZM171.191 191.44H143.911V301H171.191V191.44ZM311.264 191.22H233.604H201.704V223.12V230.16V261.84V268.88V300.78H233.604H311.264V268.88H233.604V261.84H293.004V230.16H233.604V223.12H311.264V191.22ZM392.107 191.44H360.207H323.467V218.72H360.207V301H392.107V218.72H428.847V191.44H392.107ZM524.071 253.26L478.311 191.44H446.411V301H478.311V241.6L524.071 301H555.971V191.44H524.071V253.26ZM696.295 301L650.535 191.44H623.255L572.875 301H604.775L608.955 291.98H660.215L664.395 301H696.295ZM635.355 236.98L647.455 264.48H622.155L635.355 236.98ZM768.241 223.12L745.361 191.22H713.461V300.78H745.361V233.9L768.241 264.26L791.121 233.9V300.78H823.021V191.22H791.121L768.241 223.12Z" fill="currentColor"/>
</svg>
