<svg width="16" height="17" viewBox="0 0 16 17" fill="none" xmlns="http://www.w3.org/2000/svg">
  <path d="M13 8V5" stroke="currentcolor" stroke-linecap="round" stroke-linejoin="round"/>
  <path d="M14.5 6.5H11.5" stroke="currentcolor" stroke-linecap="round" stroke-linejoin="round"/>
  <path d="M10 2.5V4.5" stroke="currentcolor" stroke-linecap="round" stroke-linejoin="round"/>
  <path d="M11 3.5H9" stroke="currentcolor" stroke-linecap="round" stroke-linejoin="round"/>
  <path d="M13.1684 10.3864C12.7836 10.4621 12.3924 10.5002 12.0003 10.5002C11.1135 10.4994 10.2379 10.3023 9.43635 9.92292C8.63482 9.54355 7.92725 8.99137 7.36449 8.30605C6.80172 7.62073 6.39772 6.81927 6.18151 5.95926C5.96531 5.09924 5.94226 4.20201 6.11402 3.33203C5.24614 3.6494 4.47221 4.18032 3.86371 4.87578C3.2552 5.57123 2.83173 6.4088 2.6324 7.31113C2.43308 8.21346 2.46432 9.15148 2.72324 10.0385C2.98216 10.9256 3.46041 11.7332 4.11384 12.3866C4.76727 13.04 5.57481 13.5183 6.46188 13.7772C7.34895 14.0361 8.28696 14.0673 9.18929 13.868C10.0916 13.6687 10.9292 13.2452 11.6246 12.6367C12.3201 12.0282 12.851 11.2543 13.1684 10.3864Z" stroke="currentcolor" stroke-linecap="round" stroke-linejoin="round"/>
</svg>
