<svg width="16" height="17" viewBox="0 0 16 17" fill="none" xmlns="http://www.w3.org/2000/svg">
  <path d="M6.5 7C7.32843 7 8 6.32843 8 5.5C8 4.67157 7.32843 4 6.5 4C5.67157 4 5 4.67157 5 5.5C5 6.32843 5.67157 7 6.5 7Z" stroke="currentcolor" stroke-linecap="round" stroke-linejoin="round"/>
  <path d="M10.5 13C11.3284 13 12 12.3284 12 11.5C12 10.6716 11.3284 10 10.5 10C9.67157 10 9 10.6716 9 11.5C9 12.3284 9.67157 13 10.5 13Z" stroke="currentcolor" stroke-linecap="round" stroke-linejoin="round"/>
  <path d="M8 5.5H13.5" stroke="currentcolor" stroke-linecap="round" stroke-linejoin="round"/>
  <path d="M2.5 5.5H5" stroke="currentcolor" stroke-linecap="round" stroke-linejoin="round"/>
  <path d="M12 11.5H13.5" stroke="currentcolor" stroke-linecap="round" stroke-linejoin="round"/>
  <path d="M2.5 11.5H9" stroke="currentcolor" stroke-linecap="round" stroke-linejoin="round"/>
</svg>
