<svg width="1927" height="1656" viewBox="0 0 1927 1656" fill="none" xmlns="http://www.w3.org/2000/svg">
<path d="M51.7069 1567.64C186.275 1551.34 295.802 1477.81 427.057 1451.64C545.823 1427.96 693.772 1419.81 813.175 1431.46C970.49 1447 1086.71 1572.22 1239.75 1596.99C1450.84 1631.43 1690.03 1423.76 1891.12 1375.88M43.3601 1518.3C181.624 1501.56 297.204 1427.9 432.855 1402.94C557.42 1380.09 712.886 1368.05 837.897 1380.79C989.031 1396.13 1094.86 1520.85 1241.09 1546.82C1446.89 1583.11 1687.74 1379.2 1883.86 1333.8M31.9549 1469.47C175.571 1452.22 298.606 1378.56 440.374 1354.88C572.584 1332.66 738.819 1315.72 871.22 1329.98C1014.2 1345.39 1105.89 1469.41 1243.13 1496.59C1441.09 1535.87 1684.04 1336.48 1873.53 1294.71M20.6773 1421.08C170.218 1403.26 301.027 1329.6 449.103 1306.87C589.66 1285.29 768.765 1262.69 909.067 1279.05C1043.32 1294.71 1118.57 1417.33 1245.87 1446.23C1434.4 1489.14 1680.6 1294.46 1862.13 1256.96M11.8845 1373.02C166.65 1354.43 303.767 1280.58 457.895 1258.87C606.29 1237.99 798.839 1209.41 946.469 1228.19C1072.82 1244.23 1130.8 1365.12 1248.74 1395.94C1427.14 1442.6 1678.25 1252.38 1851.17 1219.08M7.9341 1324.95C166.077 1305.35 307.08 1231.05 464.968 1210.36C619.734 1190.05 824.389 1156.18 977.817 1177.13C1098.37 1193.55 1140.16 1312.8 1250.52 1345.39C1419.62 1395.37 1676.65 1208.9 1841.49 1178.98M11.5022 1277.52C169.964 1256.58 310.393 1175.66 469.747 1161.79C633.56 1147.46 837.132 1103.85 998.971 1126.77C1116.65 1143.39 1145.52 1261.48 1251.29 1295.41C1413.63 1347.36 1676.53 1163.89 1835.43 1135.81M25.5834 1228.51C179.712 1206.29 315.618 1125.24 471.212 1112.57C636.172 1099.21 841.465 1053.5 1004.26 1076.8C1121.3 1093.6 1146.15 1210.49 1250.84 1244.93C1410.13 1296.94 1676.52 1116.27 1832.57 1087.81M54.7653 1179.99C206.409 1157.78 339.193 1085.33 492.748 1073.55C650.445 1061.39 842.484 1005.75 998.27 1032.68C1112.96 1052.48 1154.31 1172.74 1262.5 1200.43C1417.58 1239.84 1658.88 1076.41 1807.59 1048.78M94.3328 1137.02C240.879 1117.29 370.35 1054.26 519.318 1045.09C668.285 1035.92 831.525 981.747 979.41 999.891C1093.14 1013.9 1143.16 1116.52 1247.84 1146.82C1394.39 1189.29 1612.68 1046.3 1757.57 1020.96M138.934 1097.68C258.783 1083.67 368.311 1037.9 488.352 1026.31C639.167 1011.73 806.931 956.282 958.065 970.16C1070.2 980.601 1139.72 1071.26 1246.12 1095C1387.13 1126.45 1554.45 1021.41 1692.14 1000.08M184.746 1059.99C297.841 1050.25 404.183 1017.08 517.661 1007.72C656.179 996.262 797.119 933.745 936.848 940.048C1044.21 944.886 1124.75 1018.99 1226.12 1042.42C1361.07 1073.55 1488.37 997.408 1621.16 981.874M226.161 1022.05C327.214 1016.32 426.93 997.28 527.664 986.012C656.88 971.497 783.93 910.508 914.547 910.89C1023.63 911.272 1114.55 975.062 1218.73 995.561C1333.8 1018.23 1440.08 970.415 1553.23 962.011M258.529 981.938C342.952 979.519 428.076 971.179 512.245 964.431C644.519 953.799 764.751 880.587 897.726 879.95C1015.28 879.377 1121.88 933.618 1237.46 947.497C1327.04 958.319 1411.02 926.806 1498.69 936.292M277.07 937.628C356.269 936.546 438.144 935.209 517.024 928.843C645.602 918.466 757.806 842.07 887.149 839.715C1006.36 837.487 1119.27 885.297 1236.95 897.775C1314.3 906.052 1389.87 895.356 1466.77 900.386M276.942 888.226C356.587 886.379 438.781 889.435 518.171 882.496C646.367 871.291 757.933 795.278 886.958 793.368C1005.34 791.585 1119.78 834.812 1236.95 846.972C1312.77 854.866 1389.42 852.001 1465.63 852.001M257.637 837.805C344.8 837.805 433.938 852.447 520.91 845.571C651.337 835.385 765.898 761.091 896.834 758.162C1092.76 753.897 1290.41 800.753 1488.75 800.562M224.695 787.384C333.012 792.796 439.609 825.136 548.245 814.505C673.446 802.281 786.606 735.563 913.336 730.915C1116.59 723.53 1323.6 750.714 1528 748.55M183.535 736.963C301.983 748.804 415.142 796.615 534.482 794.26C670.515 791.459 798.011 724.549 933.917 713.853C1146.35 697.174 1361.64 699.72 1574.64 696.601M140.718 686.479C279.746 706.341 419.73 783.183 561.243 774.843C695.046 766.948 822.478 708.57 957.301 696.219C1181.26 675.656 1395.35 648.726 1621.86 644.97M101.214 635.993C250.883 661.841 395.581 752.879 548.245 753.133C689.248 753.133 836.24 695.837 975.969 676.419C1070.4 663.687 1154.37 621.988 1247.72 606.39C1378.91 584.426 1528.07 596.713 1660.85 594.549M71.0765 585.572C240.242 617.403 399.277 724.675 572.648 721.301C707.98 718.627 860.134 674.573 993.618 650.317C1082.82 634.147 1148.26 581.561 1233.64 559.215C1370.12 523.564 1544.57 547.31 1684.23 545.655M56.1033 535.534C231.768 568.957 394.88 684.951 575.005 681.958C711.039 679.667 868.098 638.158 1001.9 612.311C1092.51 594.804 1148.45 534.579 1233.89 509.241C1365.72 470.152 1548.9 499.882 1684.43 499.437M55.6573 485.176C230.876 516.243 396.983 630.837 575.069 631.601C713.778 632.173 860.962 576.914 999.225 559.343C1093.4 547.374 1144.24 486.194 1230.32 457.992C1363.43 414.319 1529.79 453.662 1666.52 449.142M57.505 435.837C231.513 462.703 401.571 574.049 576.025 577.487C711.612 580.097 852.552 512.424 988.712 497.335C1083.01 487.022 1132.84 431.19 1218.09 401.268C1366.8 349.192 1527.68 417.757 1678.5 416.483M60.2448 386.943C238.649 408.525 417.627 525.729 594.311 523.946C717.41 522.673 842.803 441.184 967.813 429.025C1068.74 419.029 1121.31 366.444 1214.01 335.44C1381.46 279.48 1549.92 389.363 1715.71 399.103M63.4943 338.178C158.95 346.283 253.332 364.073 345.182 391.273C414.186 411.454 520.847 468.496 595.84 466.459C714.989 463.276 823.306 368.1 947.807 357.85C1049.11 349.574 1099.32 303.609 1191.9 271.332C1386.04 203.722 1580.57 362.179 1767.83 387.581M66.8075 289.73C156.804 293.298 246.238 305.622 333.841 326.527C403.928 343.907 511.544 405.215 583.607 408.716C644.583 411.708 687.081 367.845 736.525 341.042C811.582 300.171 847.964 290.558 934.044 286.738C1036.69 282.154 1088.56 231.669 1182.92 202.575C1403.44 134.583 1619.18 336.968 1825.37 375.038M69.7384 240.901C154.927 242.429 239.414 246.567 323.136 263.437C405.394 279.99 493.64 340.661 573.795 349.382C635.854 356.131 659.429 321.371 705.559 291.449C779.151 243.702 820.247 220.465 909.896 217.6C1015.54 214.226 1055.8 177.811 1152.02 144.77C1407.52 57.0419 1641.86 304.755 1878.38 352.82M71.8411 191.753C155.5 191.18 239.796 190.225 322.563 204.04C408.133 218.364 495.934 286.038 576.152 294.441C638.657 300.808 652.611 266.366 695.492 233.325C767.045 178.256 803.809 154.892 896.515 153.81C1004.2 152.473 1040.13 121.978 1137.87 86.1998C1416.56 -15.9793 1660.34 263.056 1917.82 312.904M1869.58 245.485C1857.78 315.811 1820.95 356.555 1759.1 367.718C1728.94 377.889 1699.44 389.945 1670.79 403.815C1616.76 447.296 1641.16 465.313 1624.41 535.852C1595.8 656.238 1423.25 748.104 1433.58 874.029C1445.68 1021.54 1717.49 967.487 1775.35 1101.24C1813.13 1188.59 1822.12 1338.83 1833.27 1434.2M1787.45 213.016C1777.98 277.698 1745.89 321.541 1691.18 344.544C1664.92 358.691 1639.98 375.139 1616.63 393.692C1572.86 441.949 1588.85 471.234 1574.2 536.488C1547.76 653.819 1398.53 752.497 1408.54 874.539C1420.07 1016.83 1656.52 990.469 1706.54 1121.55C1742.34 1215.26 1747.06 1362.01 1757.51 1462.47M1691.31 161.449C1650.4 276.043 1597.9 290.24 1544.76 387.326C1516.66 438.893 1537.05 481.483 1531.38 534.323C1518.13 657.957 1382.67 749.059 1390.57 875.43C1398.66 1005.81 1588.09 1027.2 1624.98 1149.18C1657.22 1256.39 1662.57 1390.65 1670.54 1501.3M1585.28 102.625C1563.56 197.673 1520.93 271.268 1491.05 361.033C1469.51 425.842 1487.16 486.576 1477.35 552.022C1461.04 661.777 1368.52 763.892 1375.4 876.703C1382.99 999.636 1520.23 1045.79 1548.65 1159.18C1577.38 1273.77 1574.13 1426.56 1579.68 1545.36M1473.14 48.3836C1454.03 215.117 1437.46 367.335 1429.94 533.495C1424.66 650.699 1363.3 759.308 1366.23 877.276C1369.35 999.636 1460.08 1087.36 1472.38 1207.88C1485.12 1332.91 1486.4 1463.93 1489.14 1589.86M1359.28 10.2496C1356.54 190.925 1383.43 370.391 1381.97 550.176C1381.07 660.185 1349.15 766.63 1349.54 877.212C1349.98 993.588 1391.01 1100.86 1397.26 1216.35C1404.59 1352.01 1404.46 1490.1 1405.03 1626.21M1247.59 0C1261.35 180.039 1323.48 352.438 1329.53 533.05C1333.35 647.644 1321.05 762.81 1320.29 877.531C1318.63 1134.79 1333.03 1392.44 1332.46 1650.14M1157.18 22.0914C1183.87 198.12 1270.72 355.176 1277.47 534.196C1281.74 648.026 1276.58 763.001 1276.58 876.958C1276.58 1136.45 1274.86 1396.13 1276.58 1655.62M1117.1 40.7443C1144.69 219.001 1231.79 377.267 1234.15 559.725C1235.61 663.941 1225.54 768.476 1225.54 872.756C1225.54 1129.89 1219.17 1386.96 1219.68 1643.78M1083.65 58.952C1110.28 234.344 1200.57 393.374 1196.43 573.031C1194.2 670.562 1173.17 766.184 1173.23 864.161C1173.23 977.418 1195.66 1088.38 1197.89 1201.58C1200.76 1343.16 1161.96 1479.27 1156.35 1620.41M1054.28 75.5041C1079.32 240.646 1172.79 404.705 1162.59 573.858C1156.79 668.652 1121.11 757.398 1120.99 853.147C1120.99 966.977 1165.59 1073.74 1166.86 1187.31C1168.52 1324.38 1103.53 1453.43 1089 1589.28M1026.18 89.2559C1050.84 252.551 1157.11 440.676 1127.55 608.619C1113.47 688.643 1067.72 757.272 1067.08 840.734C1066.32 944.695 1129.01 1033.76 1135.77 1135.94C1145.2 1277.97 1045.55 1417.33 1020 1555.54M996.741 98.996C1018.85 251.787 1136.34 468.878 1093.33 625.234C1073.39 697.874 1015.47 749.505 1014.07 828.956C1012.35 930.371 1095.18 1005.56 1104.29 1103.79C1117.04 1243.85 985.909 1389.25 951.948 1523.33M963.29 103.644C985.59 257.963 1106.84 475.817 1061.73 629.627C1039.18 706.468 966.858 734.353 965.137 820.616C962.971 927.952 1067.47 992.506 1066.64 1098.82C1065.55 1239.96 929.138 1364.3 887.404 1497.67M923.085 101.924C940.607 226.576 976.734 338.751 1004.39 461.238C1015.86 512.169 1038.22 586.973 1020.19 639.176C993.81 715.254 915.63 726.013 913.4 815.204C910.724 923.431 1025.79 976.145 1025.6 1083.48C1025.6 1226.34 873.323 1348.7 828.722 1482.65M859.433 93.839C881.415 220.019 919.135 336.14 949.655 460.219C962.398 511.15 988.521 589.01 970.362 641.977C944.111 718.373 865.295 725.121 863.192 815.523C860.644 923.75 974.568 974.68 974.631 1081.51C974.631 1224.68 821.713 1346.41 776.73 1480.61M793.232 102.625C819.037 226.704 856.948 343.971 889.124 466.395C902.568 517.325 931.049 594.103 914.228 648.089C890.654 723.721 816.552 735.626 814.386 823.353C811.837 925.978 911.234 982.829 910.278 1084.37C909.004 1225.64 766.344 1348.19 722.571 1480.93M742.514 128.918C767.045 248.158 800.814 362.879 830.251 480.974C842.994 531.904 869.309 605.18 854.527 659.23C834.265 733.016 768.51 753.642 765.834 837.105C762.776 931.899 839.808 996.262 837.132 1090.48C833.437 1229.46 707.088 1350.42 666.501 1482.33M703.138 164.378C726.713 298.07 836.113 556.351 789.218 686.923C766.216 750.905 719.768 778.853 715.562 852.957C711.039 933.49 758.825 1001.23 759.335 1080.42C760.227 1223.09 648.661 1347.87 610.431 1484.11M670.961 201.366C688.101 339.833 767.618 565.646 727.668 701.248C709.063 764.465 673.701 801.135 668.413 870.719C662.806 943.804 683.832 1015.3 680.327 1088.19C673.51 1228.57 587.43 1350.67 556.082 1487.04M641.843 231.988C650.445 375.93 700.207 573.413 667.011 714.426C652.42 776.243 627.443 821.826 620.944 886.953C613.999 956.218 610.75 1026.06 603.614 1095.32C589.532 1232.26 529.448 1355.45 505.619 1490.73M611.578 248.349C611.578 397.512 626.615 557.815 608.711 706.214C600.81 771.723 579.656 832.712 571.883 898.985C548.372 1098.7 486.631 1294.91 460.954 1495.44M576.088 242.684C568.825 466.459 551.558 685.587 523.65 905.67C514.539 977.355 482.617 1033 471.913 1103.34C451.906 1234.49 434.257 1368.95 423.999 1501.36M512.245 205.568C511.544 439.975 505.428 673.618 477.456 905.861C468.409 981.047 432.473 1033.63 420.112 1106.34C397.174 1238.69 388.254 1378.3 380.417 1512.44M441.584 175.073C446.299 412.727 465.86 669.034 444.069 906.688C435.977 995.052 378.76 1048.78 363.405 1134.79C340.531 1263.01 338.301 1399.63 333.331 1529.5M372.835 155.465C377.231 326.209 359.008 502.746 377.359 672.663C386.024 752.56 423.489 825.964 417.5 907.707C410.172 1007.53 328.998 1057.19 307.335 1152.49C278.599 1278.93 288.857 1419.88 287.71 1548.47M306.315 144.515C309.884 305.264 278.472 501.855 316.701 660.185C337.026 744.093 402.909 819.343 397.493 909.617C391.121 1018.54 286.627 1056.04 252.603 1152.24C209.531 1274.02 239.86 1441.84 242.536 1568.53M242.6 139.931C244.129 289.985 207.365 489.632 253.559 635.165C282.868 727.349 382.52 808.201 377.359 910.826C371.306 1029.68 237.184 1071.83 196.151 1173.37C147.599 1293 190.289 1462.4 197.361 1587.18M182.07 139.486C181.305 278.462 139.189 480.401 191.627 613.011C230.621 711.562 356.842 798.78 353.72 912.227C350.216 1037.58 187.358 1089.02 140.272 1192.34C86.432 1310.63 140.845 1479.53 151.486 1602.72M125.299 140.823C122.559 274.515 78.3401 470.406 132.307 596.65C176.909 700.93 325.112 791.013 322.499 912.928C319.696 1043.25 137.723 1100.99 85.9223 1205.78C27.4312 1324.06 91.147 1490.1 104.336 1613.22M65.2569 142.054C159.174 139.953 252.709 134.924 345.607 153.068C418.243 167.264 514.39 244.169 579.763 242.832C646.792 241.559 654.692 195.722 705.155 154.723C766.896 104.556 810.223 95.8982 892.225 98.3811C985.887 101.246 1028.19 76.9903 1113 39.1745C1414.19 -95.2817 1643.12 212.02 1926.08 247.416C1902.08 346.221 1839.81 394.393 1739.26 391.931C1656.31 400.632 1636.49 441.418 1679.82 514.291C1670.32 653.904 1431.33 741.568 1454.9 877.17C1481.79 1032.51 1750.61 951.593 1820.25 1073.32C1823.9 1130.67 1833.98 1187.43 1850.32 1242.53C1871.8 1300.48 1883.93 1361.46 1886.26 1423.21C1683.39 1470.96 1446.04 1681.11 1232.91 1647.3C1076.87 1622.54 955.304 1497.82 795.377 1481.78C678.522 1470.06 533.505 1476.3 417.478 1500.88C287.88 1528.44 181.729 1601.59 47.9262 1617.32C33.845 1492.98 -35.7965 1330.83 26.5176 1211.46C81.823 1105.47 269.403 1046.51 272.333 913.14C275.201 785.814 116.548 697.45 69.6533 589.223C16.3868 466.799 61.4339 272.436 65.2569 142.054Z" stroke="currentcolor" stroke-width="0.25" stroke-miterlimit="10"/>
</svg>
