<svg width="16" height="30" viewBox="0 0 16 30" fill="none" xmlns="http://www.w3.org/2000/svg">
  <path d="M7.50723 0.00298691C10.5295 -0.0587349 12.7306 0.836237 14.1103 2.6879C15.4901 4.6013 16.1143 6.94674 15.9829 9.72424C15.8515 11.6994 15.4244 13.7979 14.7017 16.0199C13.9132 18.2419 12.7963 20.5256 11.3508 22.8711C9.83967 25.2782 8 27.6546 5.83181 30L2.18532 27.4077C2.90805 26.6053 3.76219 25.3708 4.74773 23.7043C5.73326 22.0995 6.62024 20.3096 7.40868 18.3345C8.1314 16.4211 8.52562 14.5694 8.59132 12.7795C8.0657 12.9029 7.67149 12.9647 7.40868 12.9647C7.14587 13.0264 6.85021 13.0572 6.52169 13.0572C4.74772 13.0572 3.20371 12.5635 1.88966 11.5759C0.509908 10.6501 -0.114265 9.10702 0.0171404 6.94674C0.0828419 5.09507 0.838423 3.45943 2.28388 2.03982C3.66363 0.681932 5.40475 0.00298691 7.50723 0.00298691Z" fill="currentcolor"/>
</svg>
