<svg width="486" height="140" viewBox="0 0 486 140" fill="none" xmlns="http://www.w3.org/2000/svg">
  <path
    d="M217.578 139.999C227.573 139.999 237.471 138.031 246.705 134.207C255.94 130.384 264.331 124.779 271.399 117.714C278.466 110.648 284.073 102.261 287.898 93.0293C291.723 83.798 293.692 73.904 293.692 63.9121H217.578L217.578 139.999Z"
    fill="currentcolor"
  />
  <path
    d="M274.207 56.6087C274.207 49.1747 272.742 41.8136 269.896 34.9455C267.05 28.0774 262.879 21.8369 257.62 16.5803C252.362 11.3237 246.119 7.15393 239.249 4.30908C232.378 1.46423 225.014 -1.21114e-06 217.578 0L217.578 56.6087H274.207Z"
    fill="currentcolor"
  />
  <path d="M372.699 0L404.514 56.6087L340.883 56.6087L372.699 0Z" fill="currentcolor" />
  <rect x="83.6167" y="63.9121" width="60.8914" height="76.087" fill="currentcolor" />
  <rect x="40.9927" width="146.139" height="56.6087" fill="currentcolor" />
  <path
    fill-rule="evenodd"
    clip-rule="evenodd"
    d="M408.767 63.9121L451.705 139.999L395.875 139.999L372.698 98.9121L349.521 139.999L293.692 139.999L336.63 63.9121H408.767Z"
    fill="currentcolor"
  />
</svg>
