<svg width="584" height="287" viewBox="0 0 584 287" fill="none" xmlns="http://www.w3.org/2000/svg">
<path fill-rule="evenodd" clip-rule="evenodd" d="M529.211 167.925C531.472 155.21 524.052 150.727 517.143 151.11C509.13 151.555 501.398 158.557 505.054 170.073C492.999 162.298 486.678 170.84 485.712 178.044C484.801 184.848 490.101 192.935 499.627 193.28C492.047 201.817 494.443 210.3 500.354 213.648C506.768 217.28 516.381 215.293 520.826 205.286C524.159 214.961 534.535 214.039 539.971 212.145C545.702 207.305 552.356 198.777 539.533 189.643C550.836 189.431 553.244 179.097 550.615 171.392C547.413 165.139 541.09 161.662 529.211 167.925Z" fill="#FFCB00"/>
<path fill-rule="evenodd" clip-rule="evenodd" d="M522.597 178.925C522.387 178.798 522.172 178.683 521.955 178.58C522.537 176.91 522.813 175.206 522.876 173.524C522.93 172.125 522.834 170.739 522.647 169.401C522.936 169.232 523.188 168.99 523.374 168.684C523.972 167.698 523.658 166.413 522.674 165.815C521.688 165.217 520.403 165.531 519.804 166.516C519.206 167.501 519.521 168.786 520.506 169.385C520.809 169.568 521.14 169.665 521.471 169.684C521.639 170.918 521.72 172.193 521.671 173.479C521.612 175.038 521.357 176.617 520.821 178.163C519.75 177.873 518.639 177.853 517.582 178.08C517.246 176.682 516.732 175.367 516.102 174.137C515.419 172.804 514.597 171.57 513.716 170.437C514.241 169.466 513.916 168.241 512.962 167.662C511.976 167.064 510.691 167.378 510.093 168.363C509.495 169.348 509.809 170.634 510.794 171.232C511.444 171.626 512.222 171.624 512.85 171.295C513.655 172.342 514.402 173.475 515.026 174.69C515.626 175.861 516.113 177.11 516.424 178.437C515.781 178.699 515.174 179.06 514.629 179.512C513.607 178.511 512.478 177.672 511.294 176.965C509.688 176.006 507.982 175.291 506.307 174.746C506.18 174.226 505.856 173.755 505.362 173.455C504.377 172.857 503.092 173.171 502.493 174.157C501.895 175.142 502.209 176.426 503.195 177.025C504.18 177.623 505.465 177.309 506.063 176.324C506.129 176.216 506.184 176.104 506.228 175.988C507.731 176.496 509.25 177.147 510.674 177.997C511.774 178.654 512.824 179.434 513.773 180.362C513.544 180.633 513.335 180.923 513.145 181.235C512.885 181.664 512.678 182.111 512.519 182.567C510.959 182.446 509.43 182.558 507.958 182.83L507.957 182.832C506.318 183.135 504.752 183.634 503.289 184.23C503.17 184.107 503.033 183.998 502.879 183.905C501.893 183.306 500.608 183.62 500.01 184.606C499.412 185.591 499.726 186.876 500.712 187.474C501.697 188.072 502.982 187.758 503.58 186.773C503.858 186.316 503.939 185.795 503.847 185.307C505.216 184.756 506.671 184.296 508.177 184.017V184.019C509.488 183.776 510.845 183.669 512.225 183.757C512.118 184.452 512.12 185.154 512.225 185.839C510.869 186.401 509.627 187.135 508.492 187.976C507.037 189.053 505.758 190.3 504.638 191.588C503.754 191.331 502.772 191.686 502.271 192.51C501.673 193.495 501.988 194.78 502.973 195.379C503.958 195.977 505.243 195.663 505.841 194.678C506.317 193.894 506.216 192.92 505.659 192.255C506.703 191.068 507.884 189.924 509.209 188.943C510.219 188.195 511.32 187.538 512.514 187.025C512.74 187.689 513.068 188.321 513.491 188.894C512.517 190.055 511.737 191.322 511.109 192.634C510.388 194.142 509.87 195.713 509.488 197.261C508.966 197.386 508.491 197.713 508.19 198.208C507.592 199.193 507.906 200.478 508.892 201.077C509.877 201.675 511.162 201.361 511.76 200.376C512.359 199.39 512.045 198.105 511.06 197.507C510.947 197.438 510.83 197.381 510.71 197.337C511.066 195.935 511.545 194.518 512.196 193.157C512.757 191.983 513.448 190.851 514.301 189.808C514.647 190.135 515.032 190.43 515.455 190.687C515.818 190.907 516.192 191.089 516.575 191.235C516.381 192.515 516.343 193.789 516.422 195.035C516.535 196.858 516.895 198.63 517.376 200.289C517.252 200.411 517.139 200.549 517.044 200.705C516.446 201.69 516.76 202.975 517.746 203.574C518.731 204.172 520.016 203.858 520.614 202.873C521.213 201.887 520.898 200.602 519.913 200.004C519.464 199.731 518.953 199.648 518.472 199.732C518.047 198.217 517.731 196.608 517.628 194.96C517.557 193.842 517.586 192.706 517.747 191.567C518.563 191.721 519.393 191.724 520.197 191.585C520.619 193.013 521.23 194.343 521.959 195.575C522.77 196.945 523.728 198.193 524.739 199.321C524.287 200.275 524.621 201.437 525.543 201.997C526.528 202.595 527.813 202.281 528.411 201.296C529.01 200.311 528.696 199.025 527.711 198.428C527.026 198.011 526.198 198.038 525.554 198.422C524.619 197.37 523.739 196.215 522.996 194.962C522.321 193.823 521.757 192.594 521.365 191.277C522.402 190.903 523.355 190.278 524.124 189.428C525.361 190.495 526.721 191.337 528.133 192.002C529.53 192.658 530.978 193.144 532.409 193.506C532.515 194.069 532.85 194.587 533.378 194.908C534.363 195.506 535.648 195.192 536.246 194.207C536.845 193.222 536.531 191.937 535.546 191.339C534.56 190.74 533.275 191.054 532.677 192.04C532.626 192.123 532.582 192.208 532.545 192.294C531.236 191.954 529.916 191.507 528.646 190.909C527.306 190.277 526.018 189.479 524.854 188.463L524.907 188.377C525.497 187.405 525.817 186.345 525.89 185.284C527.303 185.349 528.69 185.229 530.03 184.974C531.424 184.71 532.768 184.302 534.041 183.814C534.169 183.952 534.319 184.075 534.487 184.178C535.472 184.776 536.757 184.462 537.355 183.477C537.954 182.491 537.64 181.206 536.655 180.609C535.669 180.01 534.384 180.324 533.786 181.31C533.518 181.75 533.432 182.251 533.51 182.724C532.328 183.173 531.086 183.545 529.805 183.788C528.529 184.03 527.21 184.142 525.867 184.072C525.766 183.134 525.472 182.222 525.003 181.397C525.988 180.685 526.917 179.937 527.785 179.152C529.017 178.038 530.13 176.847 531.113 175.579C531.963 175.768 532.877 175.41 533.353 174.625C533.952 173.639 533.638 172.354 532.653 171.756C531.667 171.157 530.382 171.471 529.783 172.457C529.284 173.279 529.421 174.31 530.052 174.977C529.14 176.137 528.111 177.229 526.974 178.257C526.146 179.006 525.259 179.721 524.315 180.404C523.841 179.834 523.266 179.332 522.597 178.925Z" fill="#FAB000"/>
<path fill-rule="evenodd" clip-rule="evenodd" d="M520.592 179.689C520.408 179.629 520.222 179.579 520.036 179.538C520.186 178.148 520.094 176.787 519.842 175.481C519.633 174.394 519.312 173.343 518.929 172.347C519.121 172.165 519.272 171.934 519.36 171.665C519.645 170.799 519.174 169.866 518.308 169.581C517.442 169.296 516.509 169.768 516.224 170.634C515.94 171.499 516.412 172.432 517.277 172.717C517.543 172.804 517.816 172.82 518.074 172.775C518.423 173.695 518.714 174.662 518.906 175.661C519.139 176.872 519.225 178.134 519.089 179.42C518.212 179.388 517.353 179.571 516.58 179.935C516.071 178.919 515.441 177.998 514.735 177.163C513.971 176.259 513.118 175.456 512.237 174.741C512.468 173.899 511.999 173.015 511.161 172.739C510.295 172.455 509.361 172.926 509.077 173.792C508.792 174.657 509.264 175.59 510.13 175.875C510.7 176.062 511.299 175.922 511.723 175.556C512.531 176.218 513.309 176.957 514.005 177.781C514.677 178.576 515.275 179.451 515.752 180.416C515.304 180.734 514.901 181.12 514.562 181.565C513.596 180.977 512.576 180.533 511.539 180.2C510.131 179.749 508.689 179.503 507.302 179.382C507.112 179.005 506.778 178.7 506.344 178.558C505.478 178.273 504.545 178.745 504.26 179.611C503.976 180.476 504.447 181.409 505.313 181.694C506.179 181.978 507.112 181.507 507.396 180.641C507.428 180.547 507.45 180.45 507.463 180.354C508.711 180.476 509.998 180.705 511.246 181.106C512.21 181.415 513.158 181.828 514.054 182.372C513.927 182.622 513.818 182.883 513.727 183.157C513.604 183.534 513.524 183.915 513.484 184.295C512.261 184.48 511.103 184.839 510.018 185.312L510.017 185.315C508.81 185.841 507.693 186.505 506.674 187.225C506.56 187.152 506.435 187.092 506.3 187.048C505.434 186.763 504.5 187.234 504.216 188.1C503.931 188.966 504.403 189.899 505.269 190.184C506.134 190.468 507.067 189.996 507.352 189.131C507.484 188.73 507.453 188.314 507.296 187.954C508.251 187.286 509.289 186.671 510.399 186.188V186.189C511.365 185.768 512.392 185.443 513.47 185.264C513.511 185.818 513.638 186.359 513.842 186.867C512.898 187.542 512.073 188.33 511.349 189.18C510.422 190.269 509.66 191.458 509.027 192.65C508.301 192.61 507.608 193.058 507.37 193.783C507.086 194.648 507.557 195.582 508.423 195.866C509.288 196.151 510.221 195.679 510.506 194.814C510.732 194.126 510.48 193.394 509.932 192.98C510.524 191.88 511.229 190.789 512.074 189.796C512.718 189.04 513.448 188.337 514.276 187.728C514.569 188.199 514.934 188.627 515.362 188.993C514.82 190.061 514.446 191.176 514.197 192.298C513.911 193.588 513.793 194.891 513.776 196.151C513.396 196.34 513.089 196.677 512.946 197.112C512.661 197.978 513.133 198.911 513.999 199.195C514.864 199.48 515.797 199.008 516.082 198.143C516.366 197.277 515.895 196.344 515.03 196.06C514.93 196.027 514.83 196.004 514.73 195.991C514.754 194.848 514.869 193.671 515.127 192.507C515.349 191.503 515.679 190.508 516.15 189.552C516.475 189.742 516.823 189.9 517.195 190.022C517.514 190.127 517.834 190.2 518.155 190.245C518.234 191.264 518.433 192.252 518.716 193.198C519.13 194.581 519.724 195.881 520.391 197.073C520.316 197.189 520.254 197.315 520.21 197.453C519.925 198.318 520.397 199.251 521.262 199.536C522.128 199.82 523.061 199.349 523.345 198.483C523.63 197.617 523.159 196.684 522.294 196.4C521.899 196.27 521.49 196.298 521.134 196.448C520.536 195.358 520.006 194.175 519.632 192.924C519.378 192.076 519.197 191.196 519.117 190.291C519.773 190.263 520.413 190.117 521.007 189.866C521.587 190.891 522.295 191.806 523.077 192.624C523.946 193.534 524.907 194.323 525.887 195.011C525.71 195.827 526.174 196.662 526.985 196.928C527.85 197.213 528.783 196.741 529.068 195.876C529.352 195.01 528.881 194.077 528.016 193.792C527.414 193.594 526.781 193.763 526.354 194.173C525.446 193.53 524.562 192.798 523.766 191.966C523.042 191.21 522.389 190.364 521.851 189.42C522.583 188.946 523.205 188.295 523.645 187.503C524.788 188.104 525.986 188.51 527.192 188.769C528.385 189.025 529.587 189.14 530.753 189.163C530.935 189.577 531.286 189.916 531.75 190.069C532.615 190.354 533.549 189.882 533.833 189.017C534.118 188.151 533.647 187.217 532.781 186.933C531.915 186.648 530.982 187.12 530.697 187.986C530.674 188.059 530.655 188.132 530.641 188.205C529.573 188.177 528.476 188.069 527.392 187.835C526.247 187.588 525.113 187.204 524.035 186.63L524.06 186.554C524.341 185.7 524.398 184.827 524.264 183.997C525.364 183.795 526.41 183.454 527.396 183.018C528.422 182.566 529.385 182.012 530.277 181.408C530.401 181.492 530.538 181.56 530.686 181.608C531.552 181.893 532.485 181.421 532.769 180.556C533.054 179.69 532.583 178.757 531.717 178.473C530.852 178.188 529.918 178.659 529.633 179.525C529.506 179.913 529.53 180.314 529.674 180.664C528.844 181.22 527.954 181.729 527.011 182.145C526.072 182.56 525.076 182.881 524.03 183.068C523.784 182.364 523.395 181.714 522.887 181.162C523.517 180.438 524.099 179.696 524.627 178.937C525.377 177.859 526.021 176.743 526.552 175.59C527.24 175.584 527.879 175.145 528.106 174.455C528.39 173.589 527.919 172.656 527.054 172.372C526.188 172.087 525.254 172.559 524.97 173.425C524.732 174.147 525.021 174.916 525.627 175.317C525.132 176.373 524.535 177.398 523.843 178.392C523.339 179.117 522.784 179.826 522.179 180.52C521.712 180.166 521.18 179.882 520.592 179.689Z" fill="#F07C00"/>
<path fill-rule="evenodd" clip-rule="evenodd" d="M570.936 133.641C572.231 126.36 567.982 123.793 564.026 124.013C559.438 124.268 555.011 128.277 557.105 134.871C550.202 130.418 546.583 135.31 546.031 139.434C545.509 143.33 548.543 147.96 553.997 148.158C549.657 153.046 551.029 157.903 554.414 159.819C558.087 161.899 563.59 160.762 566.135 155.032C568.043 160.572 573.984 160.044 577.097 158.959C580.378 156.188 584.188 151.306 576.846 146.076C583.318 145.954 584.697 140.037 583.191 135.626C581.358 132.046 577.738 130.055 570.936 133.641Z" fill="#FFCB00"/>
<path fill-rule="evenodd" clip-rule="evenodd" d="M567.149 139.94C567.028 139.867 566.906 139.801 566.781 139.742C567.114 138.786 567.272 137.81 567.309 136.848C567.339 136.046 567.285 135.253 567.178 134.486C567.343 134.39 567.488 134.251 567.594 134.076C567.937 133.512 567.757 132.776 567.193 132.433C566.629 132.091 565.893 132.27 565.55 132.835C565.208 133.399 565.387 134.135 565.952 134.477C566.125 134.583 566.315 134.638 566.504 134.649C566.6 135.355 566.647 136.085 566.619 136.821C566.585 137.714 566.439 138.618 566.132 139.503C565.519 139.338 564.883 139.326 564.278 139.456C564.085 138.656 563.791 137.902 563.43 137.198C563.039 136.435 562.569 135.729 562.064 135.08C562.364 134.524 562.179 133.823 561.632 133.491C561.068 133.148 560.332 133.329 559.989 133.893C559.647 134.457 559.827 135.193 560.391 135.535C560.763 135.761 561.209 135.759 561.568 135.571C562.029 136.17 562.457 136.819 562.814 137.515C563.157 138.185 563.436 138.901 563.615 139.66C563.247 139.811 562.899 140.017 562.587 140.276C562.002 139.703 561.355 139.222 560.678 138.817C559.758 138.268 558.781 137.859 557.822 137.547C557.749 137.249 557.564 136.979 557.281 136.808C556.717 136.465 555.981 136.645 555.638 137.21C555.296 137.774 555.476 138.509 556.04 138.852C556.604 139.194 557.34 139.014 557.682 138.451C557.72 138.389 557.752 138.324 557.777 138.258C558.637 138.549 559.507 138.921 560.322 139.409C560.952 139.785 561.553 140.231 562.097 140.762C561.966 140.917 561.845 141.084 561.737 141.262C561.588 141.508 561.469 141.764 561.379 142.025C560.486 141.956 559.61 142.02 558.767 142.175L558.766 142.177C557.828 142.35 556.931 142.635 556.094 142.977C556.026 142.906 555.947 142.844 555.859 142.79C555.295 142.448 554.559 142.628 554.217 143.192C553.874 143.756 554.054 144.491 554.618 144.834C555.182 145.177 555.918 144.997 556.26 144.433C556.419 144.171 556.466 143.873 556.414 143.593C557.197 143.278 558.03 143.014 558.893 142.855C559.643 142.716 560.42 142.656 561.21 142.706C561.149 143.104 561.15 143.506 561.21 143.898C560.434 144.22 559.723 144.641 559.073 145.122C558.24 145.739 557.508 146.453 556.866 147.19C556.36 147.043 555.798 147.246 555.511 147.718C555.169 148.282 555.349 149.018 555.913 149.361C556.477 149.703 557.213 149.523 557.555 148.959C557.827 148.511 557.77 147.953 557.451 147.571C558.048 146.892 558.724 146.237 559.483 145.676C560.062 145.247 560.692 144.871 561.376 144.577C561.505 144.957 561.693 145.319 561.935 145.647C561.377 146.312 560.931 147.037 560.571 147.789C560.158 148.652 559.862 149.552 559.644 150.438C559.344 150.51 559.073 150.697 558.9 150.98C558.558 151.544 558.738 152.28 559.302 152.623C559.866 152.965 560.602 152.785 560.944 152.221C561.287 151.657 561.107 150.921 560.543 150.579C560.478 150.539 560.411 150.507 560.343 150.482C560.547 149.679 560.821 148.867 561.194 148.088C561.515 147.416 561.91 146.768 562.399 146.171C562.597 146.358 562.818 146.527 563.06 146.674C563.267 146.8 563.482 146.904 563.701 146.988C563.589 147.721 563.568 148.45 563.613 149.164C563.678 150.208 563.884 151.222 564.16 152.172C564.088 152.241 564.024 152.321 563.97 152.41C563.627 152.974 563.807 153.71 564.371 154.053C564.935 154.395 565.671 154.215 566.014 153.651C566.356 153.087 566.177 152.351 565.612 152.008C565.355 151.852 565.062 151.805 564.787 151.853C564.543 150.985 564.363 150.064 564.304 149.121C564.263 148.481 564.28 147.83 564.372 147.178C564.839 147.266 565.314 147.268 565.774 147.189C566.016 148.006 566.366 148.768 566.783 149.473C567.248 150.258 567.796 150.972 568.375 151.618C568.117 152.164 568.307 152.829 568.836 153.15C569.4 153.493 570.136 153.313 570.478 152.749C570.821 152.185 570.641 151.449 570.077 151.106C569.685 150.868 569.211 150.883 568.842 151.102C568.307 150.5 567.802 149.839 567.377 149.121C566.991 148.469 566.668 147.765 566.443 147.011C567.037 146.797 567.583 146.439 568.023 145.952C568.731 146.564 569.51 147.046 570.319 147.427C571.118 147.803 571.948 148.08 572.767 148.288C572.827 148.61 573.019 148.907 573.322 149.091C573.886 149.433 574.621 149.253 574.964 148.689C575.307 148.125 575.127 147.389 574.563 147.047C573.999 146.704 573.263 146.884 572.92 147.448C572.891 147.496 572.866 147.544 572.845 147.594C572.095 147.399 571.339 147.143 570.613 146.8C569.845 146.439 569.108 145.982 568.441 145.4L568.471 145.351C568.809 144.794 568.993 144.187 569.034 143.58C569.843 143.617 570.637 143.548 571.404 143.402C572.203 143.251 572.972 143.018 573.701 142.738C573.775 142.817 573.86 142.888 573.957 142.947C574.521 143.289 575.256 143.109 575.599 142.546C575.942 141.981 575.762 141.245 575.198 140.903C574.634 140.56 573.898 140.74 573.555 141.304C573.402 141.557 573.353 141.844 573.397 142.114C572.72 142.371 572.009 142.585 571.276 142.723C570.545 142.862 569.79 142.926 569.021 142.886C568.963 142.349 568.795 141.827 568.527 141.355C569.09 140.947 569.622 140.519 570.119 140.069C570.825 139.431 571.462 138.75 572.025 138.023C572.512 138.131 573.034 137.927 573.307 137.477C573.65 136.913 573.47 136.177 572.906 135.834C572.342 135.492 571.606 135.671 571.263 136.236C570.978 136.707 571.056 137.297 571.418 137.679C570.895 138.343 570.306 138.968 569.655 139.557C569.181 139.985 568.673 140.395 568.132 140.785C567.861 140.459 567.532 140.172 567.149 139.94Z" fill="#FAB000"/>
<path fill-rule="evenodd" clip-rule="evenodd" d="M566.002 140.376C565.896 140.341 565.79 140.313 565.684 140.29C565.769 139.494 565.716 138.714 565.573 137.966C565.453 137.344 565.269 136.743 565.05 136.172C565.16 136.068 565.246 135.936 565.297 135.781C565.46 135.286 565.19 134.752 564.694 134.589C564.199 134.425 563.664 134.696 563.501 135.191C563.338 135.687 563.608 136.221 564.104 136.384C564.256 136.434 564.412 136.443 564.56 136.417C564.76 136.944 564.927 137.498 565.037 138.07C565.17 138.763 565.219 139.485 565.141 140.222C564.64 140.204 564.148 140.308 563.705 140.516C563.414 139.935 563.053 139.408 562.649 138.93C562.211 138.412 561.723 137.952 561.218 137.543C561.35 137.061 561.082 136.554 560.602 136.397C560.106 136.234 559.572 136.504 559.409 137C559.246 137.495 559.516 138.029 560.012 138.192C560.338 138.3 560.681 138.219 560.924 138.01C561.387 138.389 561.832 138.812 562.231 139.284C562.615 139.739 562.958 140.239 563.231 140.792C562.974 140.974 562.743 141.195 562.55 141.45C561.997 141.113 561.413 140.859 560.819 140.668C560.012 140.41 559.187 140.269 558.393 140.2C558.284 139.985 558.092 139.81 557.844 139.728C557.348 139.565 556.814 139.835 556.651 140.331C556.488 140.826 556.758 141.361 557.254 141.524C557.75 141.687 558.284 141.417 558.447 140.921C558.465 140.867 558.477 140.812 558.485 140.756C559.2 140.827 559.936 140.958 560.651 141.187C561.203 141.364 561.746 141.6 562.259 141.913C562.186 142.055 562.123 142.205 562.072 142.362C562.001 142.577 561.955 142.796 561.932 143.013C561.232 143.119 560.569 143.325 559.948 143.596C559.257 143.897 558.617 144.278 558.033 144.691C557.968 144.649 557.896 144.615 557.819 144.589C557.323 144.426 556.789 144.696 556.626 145.192C556.463 145.687 556.733 146.222 557.229 146.384C557.724 146.547 558.258 146.278 558.421 145.782C558.497 145.552 558.479 145.314 558.389 145.108C558.936 144.725 559.531 144.373 560.166 144.096C560.719 143.855 561.307 143.67 561.924 143.568C561.948 143.885 562.021 144.194 562.137 144.485C561.597 144.872 561.124 145.323 560.71 145.81C560.179 146.433 559.743 147.114 559.38 147.797C558.965 147.774 558.568 148.03 558.432 148.446C558.269 148.941 558.539 149.475 559.035 149.638C559.53 149.801 560.064 149.531 560.227 149.036C560.357 148.642 560.212 148.222 559.899 147.986C560.238 147.356 560.641 146.731 561.125 146.163C561.494 145.73 561.912 145.327 562.386 144.979C562.554 145.248 562.763 145.494 563.008 145.703C562.697 146.315 562.483 146.953 562.34 147.596C562.177 148.334 562.109 149.08 562.099 149.801C561.882 149.91 561.706 150.102 561.624 150.352C561.461 150.847 561.731 151.381 562.227 151.544C562.722 151.707 563.257 151.437 563.42 150.942C563.582 150.446 563.313 149.912 562.817 149.749C562.76 149.73 562.703 149.717 562.646 149.71C562.66 149.056 562.725 148.381 562.873 147.715C563 147.14 563.189 146.57 563.458 146.023C563.644 146.132 563.844 146.222 564.057 146.292C564.24 146.352 564.423 146.394 564.607 146.42C564.652 147.004 564.766 147.569 564.928 148.111C565.165 148.902 565.505 149.647 565.887 150.329C565.844 150.395 565.809 150.468 565.783 150.547C565.62 151.042 565.89 151.576 566.386 151.739C566.881 151.902 567.416 151.632 567.579 151.137C567.741 150.641 567.472 150.107 566.976 149.944C566.75 149.869 566.516 149.885 566.313 149.971C565.97 149.347 565.666 148.67 565.452 147.954C565.307 147.468 565.204 146.964 565.157 146.446C565.533 146.43 565.9 146.347 566.239 146.203C566.572 146.789 566.977 147.313 567.425 147.782C567.922 148.303 568.472 148.755 569.034 149.149C568.932 149.616 569.198 150.094 569.662 150.246C570.158 150.409 570.692 150.139 570.855 149.644C571.018 149.148 570.748 148.614 570.253 148.451C569.908 148.337 569.545 148.434 569.301 148.669C568.781 148.3 568.275 147.882 567.819 147.405C567.405 146.972 567.031 146.488 566.723 145.947C567.142 145.676 567.498 145.303 567.75 144.85C568.405 145.194 569.09 145.426 569.781 145.575C570.464 145.721 571.152 145.787 571.82 145.8C571.924 146.038 572.125 146.231 572.391 146.319C572.886 146.482 573.421 146.212 573.583 145.716C573.746 145.22 573.477 144.686 572.981 144.524C572.485 144.36 571.951 144.63 571.788 145.126C571.774 145.168 571.764 145.21 571.756 145.252C571.144 145.236 570.516 145.174 569.895 145.04C569.24 144.899 568.59 144.678 567.973 144.35L567.988 144.307C568.149 143.818 568.181 143.317 568.105 142.842C568.734 142.726 569.333 142.531 569.898 142.282C570.485 142.023 571.037 141.706 571.547 141.36C571.619 141.408 571.697 141.447 571.782 141.475C572.277 141.638 572.812 141.368 572.974 140.872C573.138 140.377 572.867 139.842 572.372 139.679C571.876 139.516 571.342 139.786 571.179 140.282C571.106 140.504 571.12 140.733 571.202 140.934C570.727 141.253 570.217 141.544 569.677 141.782C569.14 142.02 568.57 142.204 567.971 142.31C567.83 141.907 567.607 141.535 567.316 141.219C567.677 140.805 568.01 140.38 568.313 139.945C568.742 139.328 569.11 138.689 569.414 138.029C569.808 138.025 570.174 137.774 570.304 137.379C570.467 136.884 570.197 136.349 569.702 136.186C569.206 136.023 568.672 136.293 568.508 136.789C568.373 137.202 568.538 137.643 568.885 137.872C568.601 138.477 568.26 139.064 567.864 139.634C567.575 140.048 567.257 140.454 566.911 140.852C566.644 140.649 566.339 140.487 566.002 140.376Z" fill="#F07C00"/>
<path fill-rule="evenodd" clip-rule="evenodd" d="M474.459 145.137C476.713 132.462 469.316 127.993 462.43 128.376C454.443 128.82 446.736 135.799 450.38 147.278C438.364 139.527 432.063 148.042 431.101 155.223C430.192 162.005 435.475 170.066 444.971 170.41C437.415 178.919 439.803 187.375 445.695 190.711C452.089 194.332 461.67 192.352 466.101 182.376C469.423 192.021 479.765 191.102 485.184 189.214C490.896 184.389 497.529 175.889 484.747 166.785C496.015 166.573 498.414 156.272 495.793 148.593C492.602 142.359 486.3 138.894 474.459 145.137Z" fill="#FFCB00"/>
<path fill-rule="evenodd" clip-rule="evenodd" d="M467.865 156.103C467.655 155.976 467.442 155.861 467.225 155.759C467.805 154.094 468.08 152.396 468.144 150.719C468.197 149.325 468.102 147.942 467.915 146.609C468.202 146.441 468.454 146.2 468.639 145.894C469.236 144.912 468.923 143.631 467.941 143.035C466.959 142.438 465.678 142.751 465.081 143.734C464.485 144.716 464.798 145.996 465.781 146.593C466.082 146.776 466.413 146.873 466.743 146.892C466.91 148.122 466.991 149.392 466.942 150.674C466.883 152.228 466.628 153.802 466.095 155.343C465.027 155.054 463.92 155.034 462.866 155.26C462.531 153.867 462.02 152.556 461.391 151.33C460.71 150.001 459.891 148.771 459.013 147.642C459.536 146.674 459.212 145.454 458.261 144.876C457.279 144.28 455.998 144.593 455.401 145.575C454.805 146.557 455.118 147.838 456.101 148.434C456.748 148.827 457.524 148.825 458.149 148.497C458.952 149.54 459.697 150.67 460.318 151.881C460.916 153.048 461.402 154.294 461.712 155.616C461.071 155.878 460.466 156.237 459.923 156.688C458.905 155.689 457.778 154.854 456.599 154.148C454.998 153.193 453.297 152.48 451.628 151.936C451.501 151.419 451.178 150.949 450.686 150.65C449.704 150.054 448.423 150.367 447.826 151.349C447.23 152.331 447.543 153.612 448.526 154.209C449.507 154.805 450.788 154.492 451.384 153.51C451.45 153.402 451.505 153.29 451.548 153.175C453.047 153.682 454.561 154.33 455.981 155.178C457.077 155.832 458.123 156.61 459.069 157.535C458.841 157.804 458.632 158.094 458.444 158.405C458.184 158.833 457.978 159.278 457.82 159.733C456.265 159.612 454.74 159.723 453.273 159.995L453.272 159.997C451.639 160.299 450.078 160.796 448.62 161.39C448.501 161.268 448.364 161.159 448.211 161.066C447.228 160.469 445.948 160.782 445.351 161.765C444.755 162.746 445.068 164.027 446.051 164.624C447.032 165.22 448.313 164.907 448.909 163.925C449.186 163.47 449.267 162.95 449.176 162.464C450.54 161.915 451.99 161.456 453.492 161.178L453.491 161.179C454.798 160.938 456.151 160.831 457.527 160.919C457.42 161.611 457.422 162.312 457.527 162.994C456.175 163.554 454.937 164.286 453.805 165.124C452.356 166.198 451.081 167.441 449.964 168.724C449.083 168.469 448.104 168.822 447.605 169.644C447.009 170.626 447.322 171.907 448.305 172.503C449.286 173.099 450.567 172.786 451.163 171.804C451.637 171.024 451.537 170.053 450.981 169.389C452.022 168.206 453.199 167.066 454.52 166.088C455.527 165.343 456.624 164.688 457.815 164.176C458.04 164.838 458.367 165.468 458.788 166.039C457.817 167.197 457.04 168.459 456.414 169.767C455.696 171.27 455.179 172.836 454.799 174.379C454.278 174.503 453.805 174.829 453.505 175.323C452.909 176.305 453.222 177.586 454.204 178.182C455.186 178.778 456.467 178.465 457.063 177.484C457.659 176.501 457.347 175.22 456.365 174.624C456.252 174.556 456.135 174.499 456.016 174.455C456.372 173.058 456.849 171.645 457.498 170.288C458.057 169.119 458.745 167.99 459.596 166.95C459.941 167.276 460.325 167.57 460.747 167.826C461.108 168.046 461.481 168.227 461.862 168.373C461.669 169.648 461.631 170.918 461.709 172.16C461.823 173.978 462.182 175.744 462.661 177.398C462.537 177.519 462.425 177.657 462.33 177.812C461.734 178.794 462.047 180.075 463.03 180.672C464.012 181.268 465.292 180.955 465.889 179.973C466.485 178.99 466.172 177.71 465.19 177.114C464.742 176.841 464.232 176.759 463.753 176.842C463.329 175.332 463.015 173.728 462.912 172.086C462.842 170.971 462.871 169.839 463.03 168.704C463.844 168.857 464.672 168.86 465.473 168.721C465.893 170.145 466.502 171.471 467.229 172.699C468.038 174.065 468.992 175.308 470 176.433C469.55 177.384 469.882 178.541 470.802 179.1C471.784 179.696 473.065 179.383 473.661 178.402C474.257 177.419 473.944 176.138 472.962 175.542C472.28 175.127 471.454 175.153 470.813 175.535C469.881 174.486 469.003 173.336 468.263 172.086C467.59 170.951 467.028 169.726 466.637 168.413C467.671 168.04 468.621 167.418 469.388 166.57C470.62 167.634 471.976 168.474 473.383 169.136C474.775 169.79 476.219 170.274 477.646 170.636C477.751 171.196 478.085 171.713 478.612 172.033C479.593 172.629 480.874 172.316 481.47 171.334C482.067 170.352 481.754 169.071 480.772 168.475C479.79 167.878 478.509 168.191 477.912 169.174C477.862 169.256 477.818 169.341 477.781 169.427C476.476 169.088 475.16 168.642 473.895 168.046C472.559 167.417 471.275 166.621 470.115 165.608L470.167 165.523C470.756 164.554 471.075 163.497 471.147 162.44C472.556 162.505 473.938 162.384 475.274 162.131C476.663 161.867 478.003 161.461 479.272 160.975C479.4 161.112 479.549 161.235 479.717 161.337C480.699 161.933 481.98 161.62 482.576 160.639C483.172 159.656 482.859 158.375 481.877 157.779C480.895 157.183 479.614 157.496 479.018 158.478C478.751 158.917 478.666 159.417 478.742 159.888C477.564 160.335 476.326 160.707 475.05 160.949C473.778 161.19 472.463 161.301 471.124 161.232C471.023 160.297 470.731 159.388 470.263 158.566C471.245 157.855 472.171 157.11 473.036 156.328C474.264 155.217 475.373 154.03 476.354 152.766C477.201 152.954 478.111 152.598 478.586 151.815C479.183 150.832 478.87 149.551 477.888 148.955C476.906 148.359 475.625 148.672 475.028 149.654C474.531 150.474 474.667 151.501 475.296 152.166C474.387 153.322 473.361 154.411 472.228 155.435C471.403 156.181 470.518 156.895 469.578 157.575C469.105 157.007 468.532 156.508 467.865 156.103Z" fill="#FAB000"/>
<path fill-rule="evenodd" clip-rule="evenodd" d="M465.867 156.861C465.683 156.801 465.498 156.751 465.313 156.711C465.462 155.326 465.37 153.968 465.119 152.666C464.911 151.583 464.591 150.536 464.209 149.543C464.4 149.362 464.551 149.131 464.639 148.863C464.923 148 464.453 147.069 463.591 146.786C462.727 146.502 461.797 146.972 461.513 147.835C461.23 148.698 461.7 149.628 462.563 149.912C462.828 149.999 463.1 150.014 463.357 149.97C463.705 150.887 463.995 151.851 464.187 152.846C464.419 154.054 464.504 155.311 464.368 156.593C463.495 156.561 462.638 156.743 461.868 157.106C461.361 156.093 460.732 155.175 460.029 154.343C459.267 153.442 458.417 152.642 457.539 151.929C457.769 151.09 457.301 150.208 456.466 149.934C455.603 149.65 454.672 150.12 454.389 150.983C454.105 151.846 454.575 152.776 455.438 153.06C456.007 153.246 456.604 153.106 457.027 152.742C457.832 153.402 458.607 154.138 459.302 154.96C459.971 155.751 460.567 156.624 461.043 157.586C460.596 157.902 460.194 158.287 459.857 158.731C458.894 158.145 457.877 157.703 456.843 157.37C455.44 156.92 454.003 156.676 452.62 156.556C452.43 156.18 452.097 155.876 451.665 155.734C450.802 155.45 449.872 155.92 449.588 156.783C449.305 157.646 449.774 158.576 450.638 158.86C451.5 159.143 452.43 158.673 452.714 157.811C452.745 157.716 452.767 157.62 452.781 157.524C454.025 157.645 455.307 157.874 456.551 158.273C457.512 158.581 458.457 158.993 459.351 159.536C459.223 159.784 459.114 160.045 459.024 160.318C458.901 160.694 458.822 161.074 458.782 161.452C457.563 161.637 456.409 161.995 455.327 162.466L455.327 162.469C454.123 162.993 453.01 163.655 451.993 164.373C451.88 164.3 451.755 164.24 451.621 164.196C450.757 163.912 449.827 164.382 449.543 165.245C449.26 166.108 449.73 167.038 450.593 167.322C451.456 167.605 452.386 167.136 452.67 166.273C452.801 165.872 452.771 165.458 452.614 165.1C453.566 164.433 454.601 163.82 455.707 163.338L455.707 163.34C456.67 162.92 457.693 162.596 458.767 162.417C458.809 162.97 458.936 163.508 459.139 164.015C458.198 164.688 457.375 165.474 456.654 166.321C455.729 167.406 454.97 168.592 454.34 169.78C453.616 169.74 452.925 170.187 452.688 170.909C452.404 171.772 452.874 172.702 453.737 172.986C454.6 173.269 455.53 172.799 455.813 171.937C456.039 171.25 455.788 170.521 455.241 170.109C455.831 169.012 456.534 167.924 457.377 166.935C458.019 166.181 458.746 165.481 459.572 164.874C459.863 165.343 460.227 165.77 460.654 166.134C460.113 167.2 459.74 168.31 459.492 169.429C459.208 170.715 459.09 172.013 459.073 173.269C458.695 173.458 458.388 173.793 458.245 174.228C457.962 175.09 458.432 176.02 459.295 176.304C460.158 176.588 461.088 176.118 461.371 175.255C461.655 174.392 461.185 173.462 460.322 173.178C460.224 173.146 460.124 173.123 460.024 173.11C460.048 171.971 460.162 170.797 460.42 169.637C460.641 168.637 460.97 167.645 461.439 166.692C461.763 166.881 462.111 167.039 462.481 167.16C462.799 167.265 463.118 167.338 463.438 167.382C463.517 168.399 463.715 169.383 463.998 170.326C464.409 171.705 465.002 173 465.667 174.188C465.592 174.304 465.531 174.43 465.486 174.567C465.202 175.429 465.672 176.36 466.535 176.643C467.398 176.927 468.328 176.457 468.612 175.594C468.895 174.731 468.425 173.801 467.563 173.517C467.169 173.388 466.762 173.415 466.408 173.565C465.812 172.478 465.283 171.3 464.91 170.053C464.657 169.208 464.477 168.33 464.397 167.428C465.051 167.401 465.689 167.255 466.28 167.005C466.859 168.026 467.565 168.938 468.344 169.754C469.211 170.661 470.168 171.447 471.145 172.134C470.968 172.946 471.431 173.779 472.239 174.044C473.102 174.328 474.032 173.858 474.315 172.995C474.599 172.132 474.129 171.202 473.266 170.918C472.667 170.721 472.036 170.889 471.61 171.298C470.705 170.657 469.824 169.928 469.03 169.098C468.31 168.344 467.658 167.501 467.122 166.56C467.851 166.088 468.472 165.439 468.911 164.649C470.05 165.248 471.244 165.653 472.446 165.911C473.635 166.166 474.833 166.28 475.996 166.304C476.177 166.717 476.527 167.055 476.989 167.207C477.852 167.491 478.782 167.02 479.065 166.158C479.349 165.295 478.879 164.365 478.017 164.081C477.154 163.797 476.224 164.267 475.94 165.131C475.916 165.203 475.897 165.276 475.884 165.349C474.818 165.322 473.726 165.213 472.645 164.981C471.504 164.735 470.373 164.351 469.298 163.779L469.324 163.704C469.604 162.852 469.661 161.982 469.527 161.155C470.623 160.953 471.666 160.613 472.649 160.179C473.672 159.728 474.631 159.176 475.521 158.574C475.645 158.658 475.781 158.725 475.929 158.774C476.791 159.057 477.722 158.588 478.005 157.725C478.289 156.862 477.819 155.932 476.956 155.648C476.093 155.364 475.163 155.834 474.879 156.697C474.752 157.083 474.776 157.483 474.919 157.832C474.092 158.387 473.205 158.894 472.265 159.309C471.329 159.722 470.337 160.043 469.294 160.229C469.049 159.527 468.661 158.879 468.154 158.329C468.783 157.608 469.363 156.868 469.889 156.111C470.636 155.036 471.278 153.924 471.807 152.775C472.493 152.768 473.13 152.332 473.356 151.644C473.64 150.781 473.17 149.85 472.308 149.567C471.444 149.283 470.514 149.753 470.23 150.617C469.994 151.336 470.282 152.103 470.886 152.502C470.392 153.555 469.797 154.577 469.107 155.568C468.605 156.29 468.052 156.997 467.449 157.689C466.984 157.337 466.453 157.054 465.867 156.861Z" fill="#F07C00"/>
<path fill-rule="evenodd" clip-rule="evenodd" d="M477.803 205.657C479.107 198.324 474.827 195.739 470.843 195.96C466.221 196.217 461.763 200.255 463.871 206.896C456.919 202.412 453.273 207.338 452.717 211.493C452.191 215.417 455.248 220.081 460.741 220.28C456.37 225.203 457.752 230.095 461.16 232.026C464.86 234.121 470.403 232.975 472.967 227.203C474.889 232.783 480.873 232.252 484.008 231.159C487.313 228.368 491.15 223.45 483.755 218.182C490.274 218.06 491.663 212.1 490.146 207.657C488.3 204.051 484.653 202.046 477.803 205.657Z" fill="#FFCB00"/>
<path fill-rule="evenodd" clip-rule="evenodd" d="M473.988 212.001C473.867 211.928 473.743 211.861 473.618 211.802C473.953 210.839 474.112 209.856 474.149 208.887C474.18 208.08 474.125 207.28 474.017 206.509C474.183 206.411 474.329 206.272 474.436 206.095C474.781 205.527 474.6 204.785 474.032 204.441C473.464 204.095 472.723 204.277 472.377 204.845C472.033 205.413 472.214 206.154 472.782 206.499C472.957 206.605 473.148 206.661 473.339 206.672C473.435 207.383 473.482 208.119 473.454 208.86C473.42 209.759 473.273 210.67 472.964 211.561C472.346 211.394 471.705 211.383 471.096 211.514C470.902 210.708 470.606 209.949 470.242 209.24C469.848 208.471 469.375 207.76 468.866 207.106C469.169 206.546 468.982 205.84 468.431 205.506C467.863 205.161 467.122 205.342 466.777 205.91C466.432 206.478 466.613 207.219 467.181 207.565C467.556 207.792 468.005 207.791 468.367 207.601C468.831 208.204 469.262 208.858 469.621 209.559C469.968 210.234 470.249 210.955 470.428 211.719C470.058 211.871 469.707 212.079 469.393 212.34C468.804 211.762 468.152 211.279 467.47 210.871C466.543 210.317 465.559 209.905 464.594 209.591C464.52 209.291 464.333 209.019 464.049 208.847C463.48 208.501 462.739 208.683 462.394 209.251C462.049 209.819 462.23 210.56 462.799 210.905C463.367 211.25 464.108 211.069 464.453 210.501C464.49 210.439 464.523 210.374 464.547 210.308C465.415 210.601 466.291 210.976 467.112 211.466C467.746 211.845 468.352 212.295 468.899 212.83C468.767 212.986 468.646 213.154 468.537 213.334C468.387 213.581 468.268 213.839 468.176 214.102C467.277 214.032 466.395 214.096 465.546 214.253L465.545 214.254C464.6 214.429 463.697 214.716 462.853 215.06C462.784 214.989 462.705 214.926 462.617 214.873C462.048 214.527 461.307 214.708 460.962 215.277C460.617 215.845 460.798 216.586 461.367 216.931C461.935 217.276 462.675 217.095 463.021 216.527C463.181 216.263 463.228 215.963 463.175 215.681C463.964 215.364 464.803 215.098 465.672 214.937C466.428 214.798 467.211 214.737 468.006 214.787C467.945 215.188 467.946 215.594 468.006 215.988C467.224 216.313 466.508 216.736 465.853 217.221C465.015 217.842 464.277 218.561 463.631 219.304C463.121 219.156 462.555 219.36 462.266 219.836C461.921 220.404 462.102 221.145 462.671 221.49C463.239 221.835 463.98 221.654 464.324 221.086C464.599 220.634 464.541 220.072 464.219 219.688C464.821 219.004 465.503 218.344 466.267 217.779C466.85 217.347 467.484 216.968 468.173 216.672C468.304 217.055 468.492 217.42 468.736 217.75C468.174 218.42 467.725 219.151 467.362 219.907C466.947 220.777 466.648 221.683 466.428 222.576C466.127 222.647 465.853 222.836 465.679 223.122C465.334 223.69 465.516 224.431 466.084 224.776C466.652 225.121 467.393 224.94 467.738 224.372C468.083 223.803 467.902 223.062 467.334 222.717C467.269 222.678 467.201 222.645 467.132 222.619C467.338 221.811 467.614 220.993 467.989 220.208C468.313 219.532 468.711 218.879 469.203 218.277C469.403 218.466 469.625 218.636 469.869 218.784C470.078 218.911 470.294 219.016 470.515 219.101C470.403 219.838 470.381 220.573 470.427 221.292C470.492 222.343 470.7 223.365 470.977 224.322C470.905 224.392 470.84 224.472 470.786 224.562C470.441 225.13 470.622 225.871 471.19 226.216C471.758 226.561 472.499 226.38 472.844 225.812C473.189 225.243 473.008 224.502 472.44 224.157C472.181 224 471.886 223.952 471.609 224C471.363 223.127 471.182 222.199 471.122 221.249C471.081 220.604 471.098 219.948 471.19 219.292C471.662 219.381 472.14 219.382 472.603 219.303C472.847 220.126 473.2 220.893 473.62 221.604C474.088 222.394 474.64 223.113 475.223 223.764C474.963 224.314 475.155 224.984 475.687 225.307C476.255 225.652 476.996 225.471 477.341 224.903C477.686 224.335 477.505 223.593 476.937 223.249C476.542 223.009 476.064 223.024 475.693 223.246C475.154 222.639 474.646 221.973 474.218 221.25C473.829 220.593 473.504 219.885 473.277 219.125C473.876 218.909 474.425 218.549 474.869 218.059C475.582 218.674 476.366 219.16 477.181 219.543C477.986 219.922 478.822 220.202 479.647 220.411C479.707 220.736 479.901 221.035 480.206 221.219C480.774 221.564 481.515 221.383 481.86 220.815C482.205 220.247 482.024 219.506 481.456 219.161C480.887 218.816 480.146 218.997 479.801 219.565C479.772 219.613 479.746 219.662 479.725 219.712C478.97 219.516 478.209 219.258 477.476 218.913C476.704 218.549 475.961 218.088 475.29 217.502L475.32 217.453C475.66 216.892 475.845 216.281 475.887 215.669C476.702 215.707 477.501 215.637 478.274 215.49C479.078 215.338 479.853 215.103 480.588 214.821C480.662 214.901 480.748 214.972 480.845 215.031C481.413 215.376 482.154 215.195 482.499 214.627C482.844 214.059 482.663 213.317 482.095 212.972C481.527 212.627 480.786 212.808 480.44 213.377C480.286 213.631 480.237 213.92 480.281 214.193C479.6 214.451 478.883 214.666 478.145 214.806C477.409 214.946 476.648 215.01 475.874 214.97C475.815 214.429 475.646 213.903 475.375 213.427C475.943 213.017 476.479 212.585 476.98 212.133C477.69 211.491 478.332 210.804 478.899 210.072C479.389 210.181 479.916 209.975 480.191 209.522C480.536 208.953 480.355 208.212 479.787 207.867C479.218 207.522 478.478 207.703 478.132 208.272C477.845 208.746 477.923 209.34 478.288 209.725C477.761 210.394 477.168 211.024 476.512 211.616C476.035 212.048 475.523 212.461 474.979 212.855C474.705 212.526 474.374 212.236 473.988 212.001Z" fill="#FAB000"/>
<path fill-rule="evenodd" clip-rule="evenodd" d="M472.832 212.442C472.726 212.407 472.618 212.378 472.511 212.355C472.598 211.553 472.544 210.768 472.4 210.014C472.279 209.388 472.094 208.782 471.873 208.207C471.983 208.102 472.07 207.969 472.121 207.814C472.286 207.314 472.014 206.776 471.515 206.612C471.016 206.448 470.477 206.72 470.313 207.22C470.149 207.719 470.421 208.257 470.92 208.421C471.073 208.471 471.231 208.48 471.379 208.454C471.581 208.985 471.749 209.543 471.86 210.119C471.994 210.817 472.044 211.545 471.965 212.286C471.46 212.268 470.964 212.373 470.518 212.584C470.225 211.997 469.861 211.466 469.454 210.985C469.013 210.464 468.522 210 468.013 209.588C468.146 209.102 467.876 208.592 467.393 208.434C466.893 208.27 466.355 208.541 466.191 209.041C466.027 209.54 466.299 210.078 466.798 210.242C467.127 210.35 467.473 210.269 467.718 210.058C468.183 210.44 468.631 210.866 469.033 211.342C469.421 211.8 469.766 212.304 470.041 212.861C469.782 213.044 469.55 213.267 469.354 213.524C468.797 213.184 468.209 212.929 467.611 212.736C466.799 212.476 465.968 212.334 465.168 212.265C465.058 212.048 464.865 211.871 464.615 211.789C464.116 211.625 463.577 211.897 463.413 212.396C463.249 212.895 463.521 213.434 464.021 213.598C464.52 213.762 465.058 213.49 465.222 212.991C465.24 212.936 465.253 212.881 465.26 212.825C465.98 212.896 466.722 213.028 467.442 213.258C467.998 213.437 468.544 213.675 469.061 213.989C468.988 214.133 468.925 214.284 468.873 214.442C468.802 214.659 468.756 214.879 468.733 215.098C468.027 215.205 467.359 215.412 466.734 215.685C466.037 215.988 465.393 216.372 464.805 216.787C464.739 216.745 464.667 216.711 464.589 216.685C464.09 216.521 463.552 216.793 463.388 217.292C463.224 217.791 463.495 218.33 463.995 218.494C464.494 218.658 465.032 218.386 465.196 217.887C465.272 217.655 465.255 217.415 465.164 217.208C465.715 216.823 466.313 216.468 466.954 216.189C467.511 215.947 468.103 215.76 468.724 215.657C468.749 215.976 468.822 216.288 468.939 216.581C468.395 216.97 467.919 217.425 467.501 217.915C466.966 218.543 466.527 219.229 466.163 219.916C465.743 219.893 465.344 220.152 465.207 220.57C465.043 221.068 465.314 221.607 465.814 221.771C466.313 221.935 466.851 221.663 467.015 221.164C467.146 220.767 467 220.345 466.684 220.107C467.026 219.472 467.432 218.843 467.92 218.27C468.291 217.834 468.712 217.429 469.19 217.078C469.359 217.349 469.569 217.596 469.816 217.807C469.503 218.423 469.287 219.066 469.143 219.714C468.979 220.457 468.911 221.208 468.901 221.935C468.682 222.044 468.505 222.238 468.422 222.49C468.258 222.988 468.53 223.527 469.029 223.691C469.529 223.855 470.067 223.583 470.231 223.084C470.395 222.585 470.123 222.046 469.624 221.882C469.567 221.864 469.509 221.851 469.451 221.843C469.465 221.184 469.532 220.505 469.68 219.833C469.808 219.255 469.998 218.681 470.27 218.13C470.457 218.239 470.659 218.33 470.873 218.401C471.057 218.461 471.241 218.504 471.427 218.529C471.472 219.117 471.587 219.687 471.75 220.232C471.989 221.03 472.331 221.779 472.716 222.467C472.673 222.534 472.637 222.607 472.611 222.686C472.447 223.185 472.719 223.723 473.219 223.887C473.717 224.051 474.256 223.779 474.42 223.28C474.584 222.781 474.312 222.243 473.813 222.079C473.586 222.004 473.35 222.02 473.145 222.106C472.8 221.477 472.494 220.796 472.278 220.074C472.132 219.585 472.028 219.078 471.981 218.556C472.36 218.54 472.729 218.456 473.071 218.311C473.406 218.901 473.814 219.429 474.265 219.901C474.766 220.426 475.32 220.881 475.885 221.278C475.783 221.748 476.051 222.23 476.518 222.383C477.018 222.547 477.556 222.276 477.72 221.777C477.884 221.277 477.612 220.739 477.113 220.575C476.766 220.461 476.401 220.558 476.155 220.794C475.631 220.423 475.121 220.002 474.662 219.522C474.245 219.085 473.868 218.598 473.558 218.053C473.98 217.78 474.339 217.405 474.593 216.948C475.252 217.294 475.943 217.528 476.638 217.678C477.326 217.825 478.019 217.891 478.692 217.905C478.797 218.144 478.999 218.34 479.267 218.428C479.766 218.592 480.304 218.32 480.468 217.821C480.632 217.322 480.36 216.783 479.862 216.619C479.362 216.455 478.824 216.727 478.66 217.226C478.646 217.268 478.635 217.31 478.627 217.353C478.011 217.337 477.379 217.274 476.754 217.14C476.093 216.997 475.439 216.775 474.817 216.444L474.832 216.401C474.994 215.908 475.027 215.405 474.95 214.926C475.584 214.809 476.187 214.613 476.756 214.361C477.348 214.101 477.903 213.781 478.418 213.433C478.489 213.481 478.568 213.52 478.653 213.548C479.152 213.712 479.691 213.441 479.855 212.942C480.019 212.442 479.747 211.904 479.248 211.74C478.748 211.576 478.21 211.848 478.046 212.347C477.973 212.57 477.986 212.802 478.069 213.004C477.591 213.325 477.077 213.618 476.534 213.858C475.992 214.097 475.418 214.282 474.815 214.39C474.673 213.984 474.448 213.609 474.155 213.291C474.519 212.874 474.854 212.446 475.159 212.008C475.591 211.386 475.963 210.742 476.269 210.078C476.665 210.074 477.034 209.821 477.165 209.423C477.329 208.924 477.057 208.386 476.558 208.222C476.059 208.058 475.521 208.329 475.357 208.829C475.22 209.245 475.387 209.689 475.736 209.92C475.45 210.529 475.106 211.12 474.707 211.694C474.416 212.111 474.096 212.521 473.747 212.921C473.478 212.717 473.171 212.553 472.832 212.442Z" fill="#F07C00"/>
<path d="M19.918 188.361C17.1193 190.972 20.5647 199.977 32.3953 203.377C42.2607 206.213 61.7713 183.656 61.7713 183.656C54.8447 181.736 48.8233 181 43.662 181C29.6207 181.001 21.962 186.453 19.918 188.361Z" fill="url(#paint0_linear_3117_21652)"/>
<path d="M17.354 61.6303C6.28232 64.4737 0 101 0 101C28.7714 93.285 37.2178 81.4533 39.1086 77.1267C42.0554 70.3831 33.3916 60.9992 22.3071 61C20.6986 61 19.0365 61.1985 17.354 61.6303Z" fill="url(#paint1_linear_3117_21652)"/>
<path d="M140.681 158.966C149.335 170.129 168.617 161.362 168.443 146.025C168.272 130.684 132.926 124.788 132.926 124.788L132 124C132 124 134.043 150.4 140.681 158.966Z" fill="url(#paint2_linear_3117_21652)"/>
<path d="M181.233 47.7813C184.729 50.5867 194.604 45.0774 196.561 30.7787C198.196 18.8547 168.747 0 168.747 0C164.781 31.1013 177.733 44.972 181.233 47.7813Z" fill="url(#paint3_linear_3117_21652)"/>
<path d="M114.872 240.774L130.969 247.506C128.25 243.296 126.224 239.501 124.742 236.089C118.832 227.656 112.31 223.004 106 223.004C98.5879 223.004 94 229.326 94 235.185C94 239.023 95.8565 242.536 99.2268 245.076C103.323 248.16 109.614 249.793 117.417 249.793C120.03 249.793 122.853 249.592 125.821 249.234C127.225 248.969 128.691 248.726 130.222 248.51L114.403 241.894C114.093 241.766 113.947 241.409 114.076 241.1C114.207 240.789 114.564 240.646 114.872 240.774Z" fill="#FFA3CC"/>
<path d="M136.191 251.063C135.349 250.711 134.487 250.325 133.626 249.938L139.659 265.496C139.78 265.81 139.625 266.161 139.312 266.283C139.24 266.31 139.166 266.324 139.093 266.324C138.849 266.324 138.62 266.176 138.527 265.935L132.839 251.271C132.741 251.97 132.636 252.645 132.527 253.311C130.474 270.003 133.954 278.33 137.414 282.415C139.915 285.373 143.252 287 146.807 287C152.501 287 157.634 282.873 158.748 277.401C159.452 273.941 159.729 262.224 136.191 251.063Z" fill="#FFA3CC"/>
<path d="M157.263 254.877C164.244 254.877 169.495 252.44 172.053 248.01C174.189 244.31 174.152 239.647 171.953 235.84C169.769 232.057 165.869 229.886 161.253 229.886C154.201 229.886 145.907 234.831 137.499 243.93C136.466 245.224 135.331 246.56 134.105 247.934L151.292 244.984C151.623 244.931 151.938 245.151 151.993 245.481C152.051 245.812 151.829 246.126 151.497 246.184L134.746 249.058C135.416 249.359 136.065 249.66 136.701 249.96C144.51 253.221 151.413 254.876 157.258 254.877H157.263Z" fill="#FFA3CC"/>
<path d="M111.425 282.004C115.126 282.004 127.045 279.816 131.342 253.023C131.45 252.154 131.58 251.252 131.717 250.338L120.957 259.714C120.841 259.815 120.698 259.863 120.557 259.863C120.388 259.863 120.218 259.794 120.099 259.654C119.878 259.401 119.905 259.017 120.157 258.798L130.516 249.774C128.982 250.034 127.482 250.256 126.023 250.433C105.881 254.245 98.9396 263.103 99.3831 270.622C99.7534 276.896 105.156 282.004 111.425 282.004Z" fill="#FFA3CC"/>
<path d="M133.037 247.201C134.225 245.755 135.388 244.414 136.524 243.174C145.606 231.735 148.993 221.341 145.817 214.107C143.893 209.725 139.656 206.999 134.759 206.999C130.241 206.999 126.281 209.369 124.167 213.335C122.344 216.754 120.724 223.593 125.678 235.209C127.668 238.053 129.691 241.481 131.709 245.605L130.709 231.043C130.686 230.709 130.938 230.419 131.274 230.396C131.609 230.369 131.898 230.626 131.921 230.96L133.037 247.201Z" fill="#FFA3CC"/>
<defs>
<linearGradient id="paint0_linear_3117_21652" x1="30.1608" y1="192.983" x2="57.4227" y2="190.651" gradientUnits="userSpaceOnUse">
<stop stop-color="#FBD7EA"/>
<stop offset="1" stop-color="#FFA3CC"/>
</linearGradient>
<linearGradient id="paint1_linear_3117_21652" x1="25.6804" y1="72.7147" x2="-0.838926" y2="88.8637" gradientUnits="userSpaceOnUse">
<stop stop-color="#FBD7EA"/>
<stop offset="1" stop-color="#FFA3CC"/>
</linearGradient>
<linearGradient id="paint2_linear_3117_21652" x1="154.382" y1="150.029" x2="125.792" y2="124.78" gradientUnits="userSpaceOnUse">
<stop stop-color="#FBD7EA"/>
<stop offset="1" stop-color="#FFA3CC"/>
</linearGradient>
<linearGradient id="paint3_linear_3117_21652" x1="184.877" y1="35.114" x2="177.593" y2="3.87007" gradientUnits="userSpaceOnUse">
<stop stop-color="#FBD7EA"/>
<stop offset="1" stop-color="#FFA3CC"/>
</linearGradient>
</defs>
</svg>
