<svg width="601" height="290" viewBox="0 0 601 290" fill="none" xmlns="http://www.w3.org/2000/svg">
<path fill-rule="evenodd" clip-rule="evenodd" d="M544.446 167.925C546.767 155.21 539.15 150.727 532.059 151.11C523.834 151.555 515.899 158.557 519.651 170.073C507.278 162.298 500.79 170.84 499.799 178.044C498.863 184.848 504.303 192.935 514.081 193.28C506.301 201.817 508.76 210.3 514.827 213.648C521.411 217.28 531.277 215.293 535.84 205.286C539.26 214.961 549.91 214.039 555.489 212.145C561.371 207.305 568.201 198.777 555.04 189.643C566.642 189.431 569.113 179.097 566.414 171.392C563.128 165.139 556.638 161.662 544.446 167.925Z" fill="#FFCB00"/>
<path fill-rule="evenodd" clip-rule="evenodd" d="M537.656 178.925C537.44 178.798 537.22 178.683 536.997 178.58C537.594 176.91 537.877 175.206 537.943 173.524C537.998 172.125 537.9 170.739 537.707 169.401C538.004 169.232 538.263 168.99 538.454 168.684C539.068 167.698 538.746 166.413 537.735 165.815C536.723 165.217 535.404 165.531 534.79 166.516C534.176 167.501 534.499 168.786 535.51 169.385C535.821 169.568 536.161 169.665 536.5 169.684C536.672 170.918 536.756 172.193 536.706 173.479C536.645 175.038 536.383 176.617 535.833 178.163C534.734 177.873 533.594 177.853 532.509 178.08C532.164 176.682 531.637 175.367 530.99 174.137C530.288 172.804 529.445 171.57 528.541 170.437C529.08 169.466 528.746 168.241 527.767 167.662C526.755 167.064 525.436 167.378 524.822 168.363C524.208 169.348 524.531 170.634 525.542 171.232C526.208 171.626 527.008 171.624 527.652 171.295C528.478 172.342 529.245 173.475 529.885 174.69C530.501 175.861 531.001 177.11 531.321 178.437C530.661 178.699 530.037 179.06 529.478 179.512C528.429 178.511 527.27 177.672 526.055 176.965C524.407 176.006 522.655 175.291 520.937 174.746C520.806 174.226 520.473 173.755 519.967 173.455C518.955 172.857 517.636 173.171 517.022 174.157C516.408 175.142 516.73 176.426 517.742 177.025C518.753 177.623 520.072 177.309 520.686 176.324C520.753 176.216 520.81 176.104 520.855 175.988C522.398 176.496 523.957 177.147 525.419 177.997C526.547 178.654 527.625 179.434 528.599 180.362C528.364 180.633 528.149 180.923 527.955 181.235C527.688 181.664 527.475 182.111 527.313 182.567C525.712 182.446 524.142 182.558 522.631 182.83L522.629 182.832C520.947 183.135 519.341 183.634 517.839 184.23C517.717 184.107 517.576 183.998 517.418 183.905C516.406 183.306 515.087 183.62 514.473 184.606C513.859 185.591 514.182 186.876 515.194 187.474C516.204 188.072 517.523 187.758 518.137 186.773C518.422 186.316 518.506 185.795 518.412 185.307C519.816 184.756 521.31 184.296 522.856 184.017V184.019C524.201 183.776 525.594 183.669 527.011 183.757C526.9 184.452 526.903 185.154 527.011 185.839C525.618 186.401 524.344 187.135 523.179 187.976C521.686 189.053 520.373 190.3 519.223 191.588C518.316 191.331 517.308 191.686 516.794 192.51C516.18 193.495 516.503 194.78 517.514 195.379C518.525 195.977 519.844 195.663 520.458 194.678C520.946 193.894 520.843 192.92 520.271 192.255C521.342 191.068 522.554 189.924 523.915 188.943C524.952 188.195 526.081 187.538 527.307 187.025C527.539 187.689 527.875 188.321 528.31 188.894C527.31 190.055 526.509 191.322 525.865 192.634C525.125 194.142 524.593 195.713 524.202 197.261C523.666 197.386 523.178 197.713 522.869 198.208C522.255 199.193 522.578 200.478 523.59 201.077C524.6 201.675 525.919 201.361 526.533 200.376C527.148 199.39 526.825 198.105 525.814 197.507C525.698 197.438 525.578 197.381 525.455 197.337C525.821 195.935 526.312 194.518 526.981 193.157C527.556 191.983 528.266 190.851 529.141 189.808C529.496 190.135 529.892 190.43 530.326 190.687C530.699 190.907 531.082 191.089 531.475 191.235C531.276 192.515 531.237 193.789 531.318 195.035C531.434 196.858 531.804 198.63 532.298 200.289C532.17 200.411 532.054 200.549 531.957 200.705C531.343 201.69 531.665 202.975 532.677 203.574C533.688 204.172 535.007 203.858 535.621 202.873C536.235 201.887 535.913 200.602 534.902 200.004C534.441 199.731 533.916 199.648 533.422 199.732C532.986 198.217 532.662 196.608 532.556 194.96C532.484 193.842 532.513 192.706 532.678 191.567C533.516 191.721 534.368 191.724 535.192 191.585C535.626 193.013 536.253 194.343 537.001 195.575C537.834 196.945 538.817 198.193 539.855 199.321C539.391 200.275 539.734 201.437 540.68 201.997C541.691 202.595 543.01 202.281 543.624 201.296C544.238 200.311 543.916 199.025 542.905 198.428C542.202 198.011 541.352 198.038 540.692 198.422C539.732 197.37 538.828 196.215 538.066 194.962C537.373 193.823 536.795 192.594 536.392 191.277C537.456 190.903 538.435 190.278 539.224 189.428C540.493 190.495 541.889 191.337 543.338 192.002C544.772 192.658 546.259 193.144 547.727 193.506C547.836 194.069 548.18 194.587 548.722 194.908C549.733 195.506 551.052 195.192 551.666 194.207C552.28 193.222 551.958 191.937 550.947 191.339C549.935 190.74 548.616 191.054 548.002 192.04C547.95 192.123 547.905 192.208 547.867 192.294C546.523 191.954 545.168 191.507 543.865 190.909C542.49 190.277 541.168 189.479 539.973 188.463L540.027 188.377C540.633 187.405 540.962 186.345 541.036 185.284C542.487 185.349 543.91 185.229 545.285 184.974C546.716 184.71 548.096 184.302 549.402 183.814C549.534 183.952 549.687 184.075 549.86 184.178C550.871 184.776 552.19 184.462 552.804 183.477C553.418 182.491 553.096 181.206 552.085 180.609C551.073 180.01 549.754 180.324 549.14 181.31C548.866 181.75 548.778 182.251 548.857 182.724C547.644 183.173 546.369 183.545 545.054 183.788C543.744 184.03 542.391 184.142 541.012 184.072C540.909 183.134 540.608 182.222 540.126 181.397C541.136 180.685 542.09 179.937 542.981 179.152C544.245 178.038 545.388 176.847 546.397 175.579C547.27 175.768 548.207 175.41 548.696 174.625C549.311 173.639 548.988 172.354 547.977 171.756C546.966 171.157 545.647 171.471 545.032 172.457C544.52 173.279 544.66 174.31 545.308 174.977C544.372 176.137 543.316 177.229 542.149 178.257C541.299 179.006 540.388 179.721 539.42 180.404C538.933 179.834 538.342 179.332 537.656 178.925Z" fill="#FAB000"/>
<path fill-rule="evenodd" clip-rule="evenodd" d="M535.599 179.689C535.409 179.629 535.219 179.579 535.028 179.538C535.182 178.148 535.087 176.787 534.829 175.481C534.615 174.394 534.285 173.343 533.891 172.347C534.088 172.165 534.244 171.934 534.335 171.665C534.627 170.799 534.143 169.866 533.254 169.581C532.366 169.296 531.408 169.768 531.116 170.634C530.824 171.499 531.308 172.432 532.197 172.717C532.469 172.804 532.749 172.82 533.014 172.775C533.373 173.695 533.671 174.662 533.868 175.661C534.107 176.872 534.195 178.134 534.056 179.42C533.156 179.388 532.274 179.571 531.48 179.935C530.958 178.919 530.312 177.998 529.587 177.163C528.803 176.259 527.927 175.456 527.023 174.741C527.26 173.899 526.778 173.015 525.918 172.739C525.03 172.455 524.071 172.926 523.779 173.792C523.487 174.657 523.971 175.59 524.86 175.875C525.446 176.062 526.06 175.922 526.496 175.556C527.325 176.218 528.123 176.957 528.838 177.781C529.527 178.576 530.141 179.451 530.631 180.416C530.171 180.734 529.757 181.12 529.41 181.565C528.418 180.977 527.372 180.533 526.307 180.2C524.862 179.749 523.382 179.503 521.958 179.382C521.763 179.005 521.42 178.7 520.975 178.558C520.086 178.273 519.128 178.745 518.836 179.611C518.544 180.476 519.028 181.409 519.917 181.694C520.805 181.978 521.763 181.507 522.055 180.641C522.087 180.547 522.11 180.45 522.123 180.354C523.405 180.476 524.725 180.705 526.006 181.106C526.996 181.415 527.968 181.828 528.888 182.372C528.758 182.622 528.646 182.883 528.553 183.157C528.426 183.534 528.344 183.915 528.303 184.295C527.048 184.48 525.859 184.839 524.746 185.312L524.745 185.315C523.505 185.841 522.36 186.505 521.313 187.225C521.196 187.152 521.068 187.092 520.929 187.048C520.04 186.763 519.082 187.234 518.79 188.1C518.498 188.966 518.982 189.899 519.871 190.184C520.759 190.468 521.717 189.996 522.009 189.131C522.145 188.73 522.113 188.314 521.951 187.954C522.932 187.286 523.997 186.671 525.137 186.188V186.189C526.129 185.768 527.182 185.443 528.288 185.264C528.331 185.818 528.462 186.359 528.67 186.867C527.701 187.542 526.855 188.33 526.112 189.18C525.16 190.269 524.378 191.458 523.728 192.65C522.983 192.61 522.272 193.058 522.027 193.783C521.736 194.648 522.22 195.582 523.108 195.866C523.997 196.151 524.954 195.679 525.246 194.814C525.478 194.126 525.22 193.394 524.658 192.98C525.265 191.88 525.989 190.789 526.856 189.796C527.517 189.04 528.266 188.337 529.116 187.728C529.417 188.199 529.791 188.627 530.231 188.993C529.674 190.061 529.29 191.176 529.035 192.298C528.742 193.588 528.62 194.891 528.603 196.151C528.213 196.34 527.898 196.677 527.751 197.112C527.459 197.978 527.943 198.911 528.831 199.195C529.719 199.48 530.677 199.008 530.969 198.143C531.261 197.277 530.778 196.344 529.89 196.06C529.788 196.027 529.685 196.004 529.582 195.991C529.606 194.848 529.725 193.671 529.99 192.507C530.218 191.503 530.556 190.508 531.039 189.552C531.373 189.742 531.731 189.9 532.112 190.022C532.439 190.127 532.768 190.2 533.098 190.245C533.179 191.264 533.383 192.252 533.673 193.198C534.098 194.581 534.708 195.881 535.392 197.073C535.316 197.189 535.252 197.315 535.206 197.453C534.914 198.318 535.398 199.251 536.287 199.536C537.175 199.82 538.133 199.349 538.425 198.483C538.717 197.617 538.233 196.684 537.345 196.4C536.94 196.27 536.52 196.298 536.155 196.448C535.542 195.358 534.997 194.175 534.613 192.924C534.352 192.076 534.167 191.196 534.085 190.291C534.758 190.263 535.415 190.117 536.024 189.866C536.62 190.891 537.347 191.806 538.149 192.624C539.042 193.534 540.027 194.323 541.034 195.011C540.851 195.827 541.328 196.662 542.16 196.928C543.048 197.213 544.006 196.741 544.298 195.876C544.59 195.01 544.106 194.077 543.218 193.792C542.6 193.594 541.951 193.763 541.513 194.173C540.58 193.53 539.673 192.798 538.856 191.966C538.114 191.21 537.443 190.364 536.891 189.42C537.642 188.946 538.281 188.295 538.732 187.503C539.906 188.104 541.135 188.51 542.373 188.769C543.597 189.025 544.831 189.14 546.028 189.163C546.215 189.577 546.575 189.916 547.052 190.069C547.939 190.354 548.898 189.882 549.189 189.017C549.481 188.151 548.998 187.217 548.11 186.933C547.221 186.648 546.263 187.12 545.971 187.986C545.946 188.059 545.927 188.132 545.913 188.205C544.816 188.177 543.691 188.069 542.578 187.835C541.403 187.588 540.239 187.204 539.132 186.63L539.158 186.554C539.447 185.7 539.505 184.827 539.368 183.997C540.496 183.795 541.57 183.454 542.583 183.018C543.636 182.566 544.623 182.012 545.54 181.408C545.667 181.492 545.807 181.56 545.959 181.608C546.847 181.893 547.806 181.421 548.097 180.556C548.39 179.69 547.906 178.757 547.018 178.473C546.129 178.188 545.171 178.659 544.879 179.525C544.748 179.913 544.772 180.314 544.92 180.664C544.068 181.22 543.155 181.729 542.187 182.145C541.223 182.56 540.201 182.881 539.127 183.068C538.875 182.364 538.476 181.714 537.954 181.162C538.601 180.438 539.198 179.696 539.741 178.937C540.51 177.859 541.171 176.743 541.716 175.59C542.422 175.584 543.078 175.145 543.311 174.455C543.603 173.589 543.119 172.656 542.231 172.372C541.342 172.087 540.384 172.559 540.092 173.425C539.848 174.147 540.145 174.916 540.767 175.317C540.258 176.373 539.646 177.398 538.935 178.392C538.419 179.117 537.848 179.826 537.228 180.52C536.749 180.166 536.202 179.882 535.599 179.689Z" fill="#F07C00"/>
<path fill-rule="evenodd" clip-rule="evenodd" d="M587.273 133.641C588.602 126.36 584.241 123.793 580.181 124.013C575.472 124.268 570.928 128.277 573.076 134.871C565.992 130.418 562.277 135.31 561.71 139.434C561.174 143.33 564.289 147.96 569.887 148.158C565.432 153.046 566.84 157.903 570.314 159.819C574.084 161.899 579.733 160.762 582.345 155.032C584.304 160.572 590.401 160.044 593.596 158.959C596.964 156.188 600.874 151.306 593.338 146.076C599.981 145.954 601.396 140.037 599.851 135.626C597.97 132.046 594.254 130.055 587.273 133.641Z" fill="#FFCB00"/>
<path fill-rule="evenodd" clip-rule="evenodd" d="M583.385 139.94C583.262 139.867 583.136 139.801 583.008 139.742C583.35 138.786 583.512 137.81 583.55 136.848C583.581 136.046 583.525 135.253 583.415 134.486C583.584 134.39 583.733 134.251 583.842 134.076C584.194 133.512 584.009 132.776 583.43 132.433C582.851 132.091 582.096 132.27 581.745 132.835C581.393 133.399 581.577 134.135 582.157 134.477C582.335 134.583 582.53 134.638 582.724 134.649C582.822 135.355 582.87 136.085 582.842 136.821C582.807 137.714 582.657 138.618 582.342 139.503C581.712 139.338 581.06 139.326 580.438 139.456C580.241 138.656 579.939 137.902 579.569 137.198C579.167 136.435 578.684 135.729 578.166 135.08C578.475 134.524 578.284 133.823 577.723 133.491C577.144 133.148 576.389 133.329 576.037 133.893C575.685 134.457 575.87 135.193 576.449 135.535C576.831 135.761 577.288 135.759 577.657 135.571C578.131 136.17 578.57 136.819 578.936 137.515C579.289 138.185 579.575 138.901 579.758 139.66C579.38 139.811 579.023 140.017 578.703 140.276C578.103 139.703 577.439 139.222 576.743 138.817C575.8 138.268 574.796 137.859 573.812 137.547C573.738 137.249 573.547 136.979 573.257 136.808C572.678 136.465 571.923 136.645 571.571 137.21C571.22 137.774 571.404 138.509 571.983 138.852C572.562 139.194 573.318 139.014 573.669 138.451C573.707 138.389 573.74 138.324 573.766 138.258C574.649 138.549 575.542 138.921 576.379 139.409C577.025 139.785 577.642 140.231 578.2 140.762C578.065 140.917 577.942 141.084 577.831 141.262C577.678 141.508 577.556 141.764 577.463 142.025C576.546 141.956 575.648 142.02 574.782 142.175L574.782 142.177C573.818 142.35 572.898 142.635 572.039 142.977C571.969 142.906 571.888 142.844 571.798 142.79C571.218 142.448 570.463 142.628 570.112 143.192C569.76 143.756 569.945 144.491 570.524 144.834C571.103 145.177 571.858 144.997 572.209 144.433C572.373 144.171 572.42 143.873 572.367 143.593C573.171 143.278 574.026 143.014 574.911 142.855C575.682 142.716 576.479 142.656 577.29 142.706C577.227 143.104 577.228 143.506 577.29 143.898C576.493 144.22 575.763 144.641 575.096 145.122C574.241 145.739 573.49 146.453 572.832 147.19C572.312 147.043 571.735 147.246 571.44 147.718C571.089 148.282 571.274 149.018 571.853 149.361C572.432 149.703 573.187 149.523 573.538 148.959C573.818 148.511 573.759 147.953 573.431 147.571C574.045 146.892 574.739 146.237 575.518 145.676C576.111 145.247 576.758 144.871 577.46 144.577C577.593 144.957 577.785 145.319 578.034 145.647C577.461 146.312 577.003 147.037 576.634 147.789C576.21 148.652 575.906 149.552 575.682 150.438C575.375 150.51 575.096 150.697 574.919 150.98C574.568 151.544 574.752 152.28 575.331 152.623C575.91 152.965 576.665 152.785 577.017 152.221C577.368 151.657 577.184 150.921 576.605 150.579C576.539 150.539 576.47 150.507 576.4 150.482C576.609 149.679 576.89 148.867 577.273 148.088C577.603 147.416 578.008 146.768 578.51 146.171C578.713 146.358 578.94 146.527 579.188 146.674C579.401 146.8 579.621 146.904 579.846 146.988C579.732 147.721 579.71 148.45 579.756 149.164C579.823 150.208 580.035 151.222 580.317 152.172C580.244 152.241 580.178 152.321 580.122 152.41C579.771 152.974 579.955 153.71 580.535 154.053C581.113 154.395 581.869 154.215 582.22 153.651C582.572 153.087 582.387 152.351 581.808 152.008C581.544 151.852 581.244 151.805 580.961 151.853C580.711 150.985 580.526 150.064 580.465 149.121C580.424 148.481 580.441 147.83 580.535 147.178C581.015 147.266 581.503 147.268 581.975 147.189C582.223 148.006 582.582 148.768 583.01 149.473C583.487 150.258 584.05 150.972 584.644 151.618C584.379 152.164 584.574 152.829 585.117 153.15C585.696 153.493 586.451 153.313 586.802 152.749C587.154 152.185 586.97 151.449 586.391 151.106C585.988 150.868 585.502 150.883 585.123 151.102C584.574 150.5 584.056 149.839 583.62 149.121C583.223 148.469 582.892 147.765 582.661 147.011C583.271 146.797 583.831 146.439 584.283 145.952C585.01 146.564 585.809 147.046 586.639 147.427C587.46 147.803 588.311 148.08 589.152 148.288C589.214 148.61 589.411 148.907 589.721 149.091C590.3 149.433 591.055 149.253 591.407 148.689C591.759 148.125 591.574 147.389 590.995 147.047C590.416 146.704 589.661 146.884 589.309 147.448C589.279 147.496 589.253 147.544 589.232 147.594C588.462 147.399 587.686 147.143 586.94 146.8C586.153 146.439 585.396 145.982 584.712 145.4L584.743 145.351C585.09 144.794 585.278 144.187 585.32 143.58C586.151 143.617 586.966 143.548 587.753 143.402C588.572 143.251 589.363 143.018 590.111 142.738C590.186 142.817 590.274 142.888 590.373 142.947C590.952 143.289 591.707 143.109 592.058 142.546C592.41 141.981 592.226 141.245 591.647 140.903C591.068 140.56 590.312 140.74 589.961 141.304C589.803 141.557 589.753 141.844 589.798 142.114C589.104 142.371 588.374 142.585 587.621 142.723C586.871 142.862 586.096 142.926 585.307 142.886C585.248 142.349 585.075 141.827 584.8 141.355C585.378 140.947 585.924 140.519 586.434 140.069C587.158 139.431 587.812 138.75 588.39 138.023C588.89 138.131 589.426 137.927 589.706 137.477C590.058 136.913 589.874 136.177 589.295 135.834C588.716 135.492 587.96 135.671 587.608 136.236C587.316 136.707 587.396 137.297 587.767 137.679C587.231 138.343 586.626 138.968 585.957 139.557C585.471 139.985 584.95 140.395 584.395 140.785C584.116 140.459 583.779 140.172 583.385 139.94Z" fill="#FAB000"/>
<path fill-rule="evenodd" clip-rule="evenodd" d="M582.208 140.376C582.099 140.341 581.99 140.313 581.881 140.29C581.969 139.494 581.915 138.714 581.767 137.966C581.644 137.344 581.455 136.743 581.23 136.172C581.343 136.068 581.432 135.936 581.484 135.781C581.651 135.286 581.374 134.752 580.866 134.589C580.357 134.425 579.808 134.696 579.641 135.191C579.474 135.687 579.751 136.221 580.26 136.384C580.416 136.434 580.576 136.443 580.728 136.417C580.933 136.944 581.104 137.498 581.217 138.07C581.354 138.763 581.404 139.485 581.324 140.222C580.809 140.204 580.304 140.308 579.85 140.516C579.551 139.935 579.181 139.408 578.766 138.93C578.317 138.412 577.816 137.952 577.298 137.543C577.433 137.061 577.157 136.554 576.665 136.397C576.156 136.234 575.608 136.504 575.441 137C575.273 137.495 575.55 138.029 576.059 138.192C576.394 138.3 576.747 138.219 576.996 138.01C577.471 138.389 577.928 138.812 578.337 139.284C578.732 139.739 579.083 140.239 579.364 140.792C579.1 140.974 578.863 141.195 578.664 141.45C578.097 141.113 577.497 140.859 576.888 140.668C576.06 140.41 575.213 140.269 574.398 140.2C574.286 139.985 574.089 139.81 573.835 139.728C573.326 139.565 572.777 139.835 572.61 140.331C572.443 140.826 572.72 141.361 573.229 141.524C573.738 141.687 574.286 141.417 574.453 140.921C574.471 140.867 574.485 140.812 574.492 140.756C575.226 140.827 575.982 140.958 576.716 141.187C577.282 141.364 577.839 141.6 578.366 141.913C578.291 142.055 578.227 142.205 578.174 142.362C578.101 142.577 578.054 142.796 578.03 143.013C577.312 143.119 576.631 143.325 575.994 143.596C575.284 143.897 574.628 144.278 574.028 144.691C573.961 144.649 573.888 144.615 573.808 144.589C573.299 144.426 572.751 144.696 572.584 145.192C572.417 145.687 572.694 146.222 573.203 146.384C573.711 146.547 574.26 146.278 574.427 145.782C574.504 145.552 574.487 145.314 574.394 145.108C574.956 144.725 575.565 144.373 576.218 144.096C576.785 143.855 577.389 143.67 578.022 143.568C578.047 143.885 578.121 144.194 578.241 144.485C577.686 144.872 577.201 145.323 576.776 145.81C576.231 146.433 575.783 147.114 575.411 147.797C574.985 147.774 574.577 148.03 574.438 148.446C574.271 148.941 574.547 149.475 575.056 149.638C575.565 149.801 576.113 149.531 576.28 149.036C576.413 148.642 576.265 148.222 575.943 147.986C576.291 147.356 576.706 146.731 577.202 146.163C577.581 145.73 578.009 145.327 578.496 144.979C578.668 145.248 578.883 145.494 579.134 145.703C578.815 146.315 578.596 146.953 578.449 147.596C578.282 148.334 578.212 149.08 578.202 149.801C577.979 149.91 577.798 150.102 577.714 150.352C577.547 150.847 577.824 151.381 578.333 151.544C578.841 151.707 579.39 151.437 579.557 150.942C579.724 150.446 579.447 149.912 578.939 149.749C578.881 149.73 578.822 149.717 578.763 149.71C578.777 149.056 578.845 148.381 578.996 147.715C579.127 147.14 579.321 146.57 579.597 146.023C579.788 146.132 579.993 146.222 580.212 146.292C580.399 146.352 580.588 146.394 580.776 146.42C580.822 147.004 580.939 147.569 581.105 148.111C581.349 148.902 581.698 149.647 582.09 150.329C582.046 150.395 582.01 150.468 581.983 150.547C581.816 151.042 582.093 151.576 582.602 151.739C583.11 151.902 583.659 151.632 583.826 151.137C583.993 150.641 583.716 150.107 583.208 149.944C582.976 149.869 582.735 149.885 582.527 149.971C582.175 149.347 581.863 148.67 581.643 147.954C581.494 147.468 581.388 146.964 581.341 146.446C581.726 146.43 582.103 146.347 582.451 146.203C582.792 146.789 583.209 147.313 583.668 147.782C584.179 148.303 584.743 148.755 585.319 149.149C585.215 149.616 585.488 150.094 585.965 150.246C586.473 150.409 587.022 150.139 587.189 149.644C587.356 149.148 587.079 148.614 586.571 148.451C586.217 148.337 585.845 148.434 585.594 148.669C585.06 148.3 584.541 147.882 584.073 147.405C583.648 146.972 583.264 146.488 582.948 145.947C583.378 145.676 583.743 145.303 584.002 144.85C584.674 145.194 585.378 145.426 586.086 145.575C586.787 145.721 587.494 145.787 588.179 145.8C588.286 146.038 588.492 146.231 588.765 146.319C589.274 146.482 589.822 146.212 589.989 145.716C590.157 145.22 589.88 144.686 589.371 144.524C588.862 144.36 588.314 144.63 588.146 145.126C588.132 145.168 588.122 145.21 588.114 145.252C587.485 145.236 586.841 145.174 586.204 145.04C585.531 144.899 584.864 144.678 584.231 144.35L584.246 144.307C584.411 143.818 584.444 143.317 584.366 142.842C585.012 142.726 585.627 142.531 586.207 142.282C586.81 142.023 587.375 141.706 587.9 141.36C587.973 141.408 588.053 141.447 588.14 141.475C588.649 141.638 589.197 141.368 589.364 140.872C589.532 140.377 589.254 139.842 588.746 139.679C588.237 139.516 587.689 139.786 587.521 140.282C587.446 140.504 587.46 140.733 587.545 140.934C587.057 141.253 586.534 141.544 585.98 141.782C585.428 142.02 584.843 142.204 584.228 142.31C584.084 141.907 583.855 141.535 583.556 141.219C583.927 140.805 584.269 140.38 584.579 139.945C585.02 139.328 585.398 138.689 585.71 138.029C586.114 138.025 586.49 137.774 586.623 137.379C586.79 136.884 586.514 136.349 586.005 136.186C585.496 136.023 584.948 136.293 584.78 136.789C584.641 137.202 584.811 137.643 585.167 137.872C584.876 138.477 584.525 139.064 584.118 139.634C583.822 140.048 583.496 140.454 583.141 140.852C582.866 140.649 582.553 140.487 582.208 140.376Z" fill="#F07C00"/>
<path fill-rule="evenodd" clip-rule="evenodd" d="M488.249 145.137C490.562 132.462 482.97 127.993 475.902 128.376C467.704 128.82 459.794 135.799 463.534 147.278C451.201 139.527 444.734 148.042 443.746 155.223C442.814 162.005 448.236 170.066 457.982 170.41C450.227 178.919 452.678 187.375 458.725 190.711C465.288 194.332 475.122 192.352 479.67 182.376C483.08 192.021 493.695 191.102 499.257 189.214C505.12 184.389 511.928 175.889 498.809 166.785C510.373 166.573 512.836 156.272 510.146 148.593C506.871 142.359 500.402 138.894 488.249 145.137Z" fill="#FFCB00"/>
<path fill-rule="evenodd" clip-rule="evenodd" d="M481.48 156.103C481.265 155.976 481.046 155.861 480.824 155.759C481.419 154.094 481.701 152.396 481.767 150.719C481.821 149.325 481.724 147.942 481.532 146.609C481.827 146.441 482.086 146.2 482.276 145.894C482.888 144.912 482.567 143.631 481.559 143.035C480.551 142.438 479.236 142.751 478.624 143.734C478.012 144.716 478.333 145.996 479.342 146.593C479.651 146.776 479.991 146.873 480.329 146.892C480.5 148.122 480.584 149.392 480.534 150.674C480.473 152.228 480.212 153.802 479.664 155.343C478.568 155.054 477.431 155.034 476.35 155.26C476.006 153.867 475.481 152.556 474.836 151.33C474.137 150.001 473.297 148.771 472.395 147.642C472.932 146.674 472.599 145.454 471.624 144.876C470.615 144.28 469.3 144.593 468.688 145.575C468.076 146.557 468.398 147.838 469.406 148.434C470.07 148.827 470.867 148.825 471.509 148.497C472.333 149.54 473.097 150.67 473.735 151.881C474.349 153.048 474.847 154.294 475.166 155.616C474.508 155.878 473.886 156.237 473.329 156.688C472.284 155.689 471.128 154.854 469.918 154.148C468.274 153.193 466.528 152.48 464.815 151.936C464.685 151.419 464.353 150.949 463.848 150.65C462.84 150.054 461.526 150.367 460.913 151.349C460.301 152.331 460.623 153.612 461.631 154.209C462.639 154.805 463.954 154.492 464.565 153.51C464.632 153.402 464.689 153.29 464.734 153.175C466.272 153.682 467.826 154.33 469.283 155.178C470.408 155.832 471.482 156.61 472.453 157.535C472.219 157.804 472.005 158.094 471.811 158.405C471.544 158.833 471.333 159.278 471.171 159.733C469.575 159.612 468.01 159.723 466.504 159.995L466.502 159.997C464.826 160.299 463.224 160.796 461.728 161.39C461.606 161.268 461.465 161.159 461.308 161.066C460.299 160.469 458.985 160.782 458.373 161.765C457.761 162.746 458.082 164.027 459.091 164.624C460.098 165.22 461.413 164.907 462.025 163.925C462.309 163.47 462.392 162.95 462.298 162.464C463.699 161.915 465.187 161.456 466.728 161.178L466.728 161.179C468.069 160.938 469.458 160.831 470.87 160.919C470.76 161.611 470.762 162.312 470.87 162.994C469.482 163.554 468.212 164.286 467.05 165.124C465.562 166.198 464.254 167.441 463.107 168.724C462.203 168.469 461.199 168.822 460.686 169.644C460.074 170.626 460.396 171.907 461.404 172.503C462.412 173.099 463.727 172.786 464.338 171.804C464.825 171.024 464.721 170.053 464.152 169.389C465.22 168.206 466.428 167.066 467.784 166.088C468.818 165.343 469.943 164.688 471.166 164.176C471.397 164.838 471.732 165.468 472.165 166.039C471.168 167.197 470.37 168.459 469.728 169.767C468.99 171.27 468.46 172.836 468.07 174.379C467.536 174.503 467.049 174.829 466.742 175.323C466.13 176.305 466.451 177.586 467.459 178.182C468.467 178.778 469.782 178.465 470.394 177.484C471.006 176.501 470.685 175.22 469.677 174.624C469.562 174.556 469.442 174.499 469.319 174.455C469.684 173.058 470.174 171.645 470.84 170.288C471.414 169.119 472.12 167.99 472.994 166.95C473.347 167.276 473.742 167.57 474.175 167.826C474.546 168.046 474.928 168.227 475.32 168.373C475.121 169.648 475.083 170.918 475.163 172.16C475.279 173.978 475.648 175.744 476.14 177.398C476.012 177.519 475.897 177.657 475.8 177.812C475.188 178.794 475.51 180.075 476.518 180.672C477.526 181.268 478.84 180.955 479.452 179.973C480.065 178.99 479.743 177.71 478.735 177.114C478.276 176.841 477.752 176.759 477.261 176.842C476.826 175.332 476.503 173.728 476.397 172.086C476.325 170.971 476.355 169.839 476.518 168.704C477.354 168.857 478.203 168.86 479.025 168.721C479.457 170.145 480.082 171.471 480.828 172.699C481.658 174.065 482.638 175.308 483.673 176.433C483.21 177.384 483.551 178.541 484.495 179.1C485.503 179.696 486.818 179.383 487.43 178.402C488.042 177.419 487.721 176.138 486.713 175.542C486.012 175.127 485.165 175.153 484.507 175.535C483.55 174.486 482.649 173.336 481.889 172.086C481.199 170.951 480.622 169.726 480.22 168.413C481.282 168.04 482.257 167.418 483.044 166.57C484.309 167.634 485.7 168.474 487.145 169.136C488.574 169.79 490.056 170.274 491.52 170.636C491.627 171.196 491.971 171.713 492.511 172.033C493.519 172.629 494.833 172.316 495.445 171.334C496.057 170.352 495.736 169.071 494.729 168.475C493.72 167.878 492.406 168.191 491.793 169.174C491.742 169.256 491.696 169.341 491.658 169.427C490.319 169.088 488.969 168.642 487.67 168.046C486.299 167.417 484.981 166.621 483.79 165.608L483.844 165.523C484.448 164.554 484.776 163.497 484.85 162.44C486.295 162.505 487.714 162.384 489.085 162.131C490.511 161.867 491.886 161.461 493.189 160.975C493.32 161.112 493.473 161.235 493.646 161.337C494.653 161.933 495.968 161.62 496.58 160.639C497.192 159.656 496.871 158.375 495.863 157.779C494.855 157.183 493.54 157.496 492.928 158.478C492.654 158.917 492.566 159.417 492.645 159.888C491.436 160.335 490.165 160.707 488.855 160.949C487.549 161.19 486.2 161.301 484.826 161.232C484.723 160.297 484.423 159.388 483.942 158.566C484.95 157.855 485.9 157.11 486.789 156.328C488.049 155.217 489.187 154.03 490.194 152.766C491.063 152.954 491.997 152.598 492.485 151.815C493.098 150.832 492.776 149.551 491.769 148.955C490.76 148.359 489.446 148.672 488.833 149.654C488.323 150.474 488.462 151.501 489.108 152.166C488.175 153.322 487.122 154.411 485.959 155.435C485.112 156.181 484.204 156.895 483.239 157.575C482.754 157.007 482.165 156.508 481.48 156.103Z" fill="#FAB000"/>
<path fill-rule="evenodd" clip-rule="evenodd" d="M479.429 156.861C479.24 156.801 479.05 156.751 478.86 156.711C479.013 155.326 478.919 153.968 478.661 152.666C478.448 151.583 478.119 150.536 477.727 149.543C477.924 149.362 478.078 149.131 478.169 148.863C478.46 148 477.978 147.069 477.092 146.786C476.206 146.502 475.252 146.972 474.96 147.835C474.669 148.698 475.152 149.628 476.038 149.912C476.309 149.999 476.589 150.014 476.853 149.97C477.21 150.887 477.508 151.851 477.704 152.846C477.943 154.054 478.03 155.311 477.891 156.593C476.994 156.561 476.115 156.743 475.324 157.106C474.804 156.093 474.159 155.175 473.437 154.343C472.655 153.442 471.782 152.642 470.881 151.929C471.117 151.09 470.637 150.208 469.78 149.934C468.894 149.65 467.939 150.12 467.648 150.983C467.357 151.846 467.839 152.776 468.725 153.06C469.308 153.246 469.921 153.106 470.356 152.742C471.181 153.402 471.977 154.138 472.69 154.96C473.377 155.751 473.989 156.624 474.477 157.586C474.019 157.902 473.606 158.287 473.26 158.731C472.272 158.145 471.228 157.703 470.167 157.37C468.726 156.92 467.251 156.676 465.832 156.556C465.638 156.18 465.296 155.876 464.852 155.734C463.966 155.45 463.012 155.92 462.72 156.783C462.429 157.646 462.912 158.576 463.798 158.86C464.683 159.143 465.638 158.673 465.929 157.811C465.961 157.716 465.984 157.62 465.997 157.524C467.274 157.645 468.59 157.874 469.867 158.273C470.854 158.581 471.823 158.993 472.741 159.536C472.61 159.784 472.498 160.045 472.406 160.318C472.279 160.694 472.198 161.074 472.157 161.452C470.906 161.637 469.721 161.995 468.611 162.466L468.61 162.469C467.375 162.993 466.233 163.655 465.189 164.373C465.073 164.3 464.945 164.24 464.807 164.196C463.921 163.912 462.966 164.382 462.675 165.245C462.384 166.108 462.866 167.038 463.752 167.322C464.637 167.605 465.592 167.136 465.883 166.273C466.018 165.872 465.987 165.458 465.826 165.1C466.803 164.433 467.865 163.82 469.001 163.338L469.001 163.34C469.989 162.92 471.039 162.596 472.142 162.417C472.185 162.97 472.315 163.508 472.523 164.015C471.557 164.688 470.713 165.474 469.972 166.321C469.024 167.406 468.244 168.592 467.597 169.78C466.854 169.74 466.145 170.187 465.902 170.909C465.61 171.772 466.093 172.702 466.979 172.986C467.864 173.269 468.819 172.799 469.11 171.937C469.341 171.25 469.083 170.521 468.523 170.109C469.129 169.012 469.85 167.924 470.714 166.935C471.373 166.181 472.12 165.481 472.968 164.874C473.267 165.343 473.641 165.77 474.078 166.134C473.523 167.2 473.14 168.31 472.886 169.429C472.594 170.715 472.473 172.013 472.455 173.269C472.067 173.458 471.753 173.793 471.606 174.228C471.315 175.09 471.798 176.02 472.684 176.304C473.569 176.588 474.523 176.118 474.814 175.255C475.106 174.392 474.623 173.462 473.738 173.178C473.637 173.146 473.534 173.123 473.431 173.11C473.456 171.971 473.574 170.797 473.838 169.637C474.065 168.637 474.402 167.645 474.884 166.692C475.216 166.881 475.574 167.039 475.954 167.16C476.28 167.265 476.608 167.338 476.936 167.382C477.017 168.399 477.22 169.383 477.51 170.326C477.933 171.705 478.541 173 479.223 174.188C479.147 174.304 479.084 174.43 479.037 174.567C478.747 175.429 479.229 176.36 480.115 176.643C481 176.927 481.955 176.457 482.246 175.594C482.537 174.731 482.055 173.801 481.169 173.517C480.766 173.388 480.347 173.415 479.984 173.565C479.372 172.478 478.829 171.3 478.447 170.053C478.187 169.208 478.002 168.33 477.92 167.428C478.591 167.401 479.246 167.255 479.853 167.005C480.447 168.026 481.171 168.938 481.971 169.754C482.861 170.661 483.843 171.447 484.846 172.134C484.665 172.946 485.14 173.779 485.969 174.044C486.855 174.328 487.809 173.858 488.1 172.995C488.391 172.132 487.909 171.202 487.024 170.918C486.408 170.721 485.761 170.889 485.324 171.298C484.395 170.657 483.49 169.928 482.676 169.098C481.936 168.344 481.267 167.501 480.717 166.56C481.466 166.088 482.102 165.439 482.553 164.649C483.722 165.248 484.947 165.653 486.181 165.911C487.401 166.166 488.632 166.28 489.825 166.304C490.011 166.717 490.37 167.055 490.845 167.207C491.73 167.491 492.685 167.02 492.976 166.158C493.267 165.295 492.785 164.365 491.9 164.081C491.014 163.797 490.059 164.267 489.768 165.131C489.743 165.203 489.724 165.276 489.71 165.349C488.616 165.322 487.495 165.213 486.385 164.981C485.214 164.735 484.054 164.351 482.951 163.779L482.977 163.704C483.264 162.852 483.323 161.982 483.186 161.155C484.311 160.953 485.381 160.613 486.39 160.179C487.44 159.728 488.424 159.176 489.338 158.574C489.465 158.658 489.605 158.725 489.756 158.774C490.641 159.057 491.597 158.588 491.887 157.725C492.178 156.862 491.696 155.932 490.811 155.648C489.925 155.364 488.97 155.834 488.679 156.697C488.549 157.083 488.573 157.483 488.72 157.832C487.871 158.387 486.961 158.894 485.996 159.309C485.035 159.722 484.016 160.043 482.946 160.229C482.695 159.527 482.297 158.879 481.777 158.329C482.422 157.608 483.017 156.868 483.558 156.111C484.324 155.036 484.983 153.924 485.526 152.775C486.23 152.768 486.884 152.332 487.116 151.644C487.407 150.781 486.925 149.85 486.039 149.567C485.154 149.283 484.199 149.753 483.907 150.617C483.665 151.336 483.961 152.103 484.58 152.502C484.073 153.555 483.462 154.577 482.755 155.568C482.239 156.29 481.671 156.997 481.053 157.689C480.575 157.337 480.03 157.054 479.429 156.861Z" fill="#F07C00"/>
<path fill-rule="evenodd" clip-rule="evenodd" d="M491.681 205.657C493.02 198.324 488.627 195.739 484.537 195.96C479.794 196.217 475.218 200.255 477.382 206.896C470.246 202.412 466.504 207.338 465.933 211.493C465.393 215.417 468.531 220.081 474.169 220.28C469.683 225.203 471.101 230.095 474.6 232.026C478.397 234.121 484.086 232.975 486.718 227.203C488.69 232.783 494.832 232.252 498.05 231.159C501.442 228.368 505.381 223.45 497.791 218.182C504.482 218.06 505.907 212.1 504.35 207.657C502.456 204.051 498.713 202.046 491.681 205.657Z" fill="#FFCB00"/>
<path fill-rule="evenodd" clip-rule="evenodd" d="M487.766 212.001C487.642 211.928 487.515 211.861 487.386 211.802C487.73 210.839 487.894 209.856 487.931 208.887C487.963 208.08 487.907 207.28 487.796 206.509C487.967 206.411 488.116 206.272 488.226 206.095C488.58 205.527 488.395 204.785 487.811 204.441C487.228 204.095 486.467 204.277 486.113 204.845C485.759 205.413 485.945 206.154 486.529 206.499C486.707 206.605 486.904 206.661 487.1 206.672C487.198 207.383 487.247 208.119 487.218 208.86C487.183 209.759 487.032 210.67 486.715 211.561C486.081 211.394 485.423 211.383 484.798 211.514C484.599 210.708 484.295 209.949 483.922 209.24C483.517 208.471 483.031 207.76 482.509 207.106C482.82 206.546 482.628 205.84 482.063 205.506C481.479 205.161 480.719 205.342 480.364 205.91C480.011 206.478 480.196 207.219 480.78 207.565C481.164 207.792 481.625 207.791 481.996 207.601C482.473 208.204 482.915 208.858 483.284 209.559C483.64 210.234 483.928 210.955 484.113 211.719C483.732 211.871 483.372 212.079 483.05 212.34C482.445 211.762 481.776 211.279 481.076 210.871C480.125 210.317 479.115 209.905 478.124 209.591C478.048 209.291 477.857 209.019 477.564 208.847C476.981 208.501 476.221 208.683 475.866 209.251C475.512 209.819 475.698 210.56 476.281 210.905C476.864 211.25 477.625 211.069 477.979 210.501C478.018 210.439 478.051 210.374 478.076 210.308C478.967 210.601 479.866 210.976 480.709 211.466C481.359 211.845 481.981 212.295 482.543 212.83C482.407 212.986 482.284 213.154 482.171 213.334C482.017 213.581 481.895 213.839 481.801 214.102C480.878 214.032 479.972 214.096 479.101 214.253L479.1 214.254C478.13 214.429 477.203 214.716 476.337 215.06C476.267 214.989 476.185 214.926 476.095 214.873C475.511 214.527 474.75 214.708 474.396 215.277C474.042 215.845 474.228 216.586 474.812 216.931C475.395 217.276 476.155 217.095 476.509 216.527C476.674 216.263 476.722 215.963 476.667 215.681C477.478 215.364 478.339 215.098 479.231 214.937C480.007 214.798 480.81 214.737 481.627 214.787C481.563 215.188 481.565 215.594 481.627 215.988C480.824 216.313 480.089 216.736 479.417 217.221C478.556 217.842 477.799 218.561 477.136 219.304C476.612 219.156 476.031 219.36 475.735 219.836C475.381 220.404 475.567 221.145 476.15 221.49C476.733 221.835 477.494 221.654 477.847 221.086C478.129 220.634 478.069 220.072 477.74 219.688C478.358 219.004 479.057 218.344 479.841 217.779C480.439 217.347 481.091 216.968 481.798 216.672C481.932 217.055 482.125 217.42 482.376 217.75C481.799 218.42 481.337 219.151 480.966 219.907C480.539 220.777 480.233 221.683 480.007 222.576C479.698 222.647 479.416 222.836 479.238 223.122C478.884 223.69 479.07 224.431 479.654 224.776C480.237 225.121 480.997 224.94 481.351 224.372C481.705 223.803 481.52 223.062 480.937 222.717C480.87 222.678 480.8 222.645 480.729 222.619C480.94 221.811 481.224 220.993 481.609 220.208C481.941 219.532 482.35 218.879 482.855 218.277C483.06 218.466 483.288 218.636 483.539 218.784C483.753 218.911 483.975 219.016 484.201 219.101C484.086 219.838 484.064 220.573 484.111 221.292C484.178 222.343 484.391 223.365 484.676 224.322C484.602 224.392 484.535 224.472 484.479 224.562C484.125 225.13 484.311 225.871 484.895 226.216C485.478 226.561 486.238 226.38 486.592 225.812C486.946 225.243 486.761 224.502 486.178 224.157C485.911 224 485.609 223.952 485.324 224C485.072 223.127 484.886 222.199 484.825 221.249C484.783 220.604 484.8 219.948 484.895 219.292C485.378 219.381 485.869 219.382 486.345 219.303C486.595 220.126 486.957 220.893 487.388 221.604C487.868 222.394 488.436 223.113 489.034 223.764C488.767 224.314 488.964 224.984 489.51 225.307C490.093 225.652 490.854 225.471 491.208 224.903C491.562 224.335 491.376 223.593 490.793 223.249C490.388 223.009 489.897 223.024 489.516 223.246C488.963 222.639 488.442 221.973 488.002 221.25C487.603 220.593 487.269 219.885 487.037 219.125C487.651 218.909 488.215 218.549 488.67 218.059C489.402 218.674 490.207 219.16 491.043 219.543C491.87 219.922 492.727 220.202 493.574 220.411C493.637 220.736 493.835 221.035 494.148 221.219C494.731 221.564 495.491 221.383 495.845 220.815C496.2 220.247 496.014 219.506 495.431 219.161C494.847 218.816 494.086 218.997 493.732 219.565C493.702 219.613 493.677 219.662 493.654 219.712C492.879 219.516 492.098 219.258 491.347 218.913C490.553 218.549 489.791 218.088 489.102 217.502L489.133 217.453C489.483 216.892 489.672 216.281 489.715 215.669C490.552 215.707 491.372 215.637 492.166 215.49C492.991 215.338 493.786 215.103 494.54 214.821C494.616 214.901 494.705 214.972 494.804 215.031C495.387 215.376 496.148 215.195 496.502 214.627C496.856 214.059 496.67 213.317 496.087 212.972C495.504 212.627 494.743 212.808 494.389 213.377C494.23 213.631 494.18 213.92 494.225 214.193C493.526 214.451 492.791 214.666 492.032 214.806C491.277 214.946 490.496 215.01 489.701 214.97C489.642 214.429 489.468 213.903 489.19 213.427C489.773 213.017 490.323 212.585 490.837 212.133C491.566 211.491 492.224 210.804 492.807 210.072C493.31 210.181 493.851 209.975 494.133 209.522C494.487 208.953 494.301 208.212 493.718 207.867C493.135 207.522 492.374 207.703 492.02 208.272C491.724 208.746 491.805 209.34 492.179 209.725C491.639 210.394 491.03 211.024 490.357 211.616C489.867 212.048 489.341 212.461 488.783 212.855C488.502 212.526 488.162 212.236 487.766 212.001Z" fill="#FAB000"/>
<path fill-rule="evenodd" clip-rule="evenodd" d="M486.578 212.442C486.47 212.407 486.359 212.378 486.25 212.355C486.338 211.553 486.283 210.768 486.135 210.014C486.011 209.388 485.821 208.782 485.594 208.207C485.708 208.102 485.797 207.969 485.849 207.814C486.018 207.314 485.739 206.776 485.227 206.612C484.714 206.448 484.162 206.72 483.993 207.22C483.825 207.719 484.104 208.257 484.616 208.421C484.774 208.471 484.935 208.48 485.088 208.454C485.295 208.985 485.467 209.543 485.581 210.119C485.719 210.817 485.769 211.545 485.689 212.286C485.17 212.268 484.661 212.373 484.204 212.584C483.903 211.997 483.529 211.466 483.112 210.985C482.659 210.464 482.155 210 481.633 209.588C481.769 209.102 481.492 208.592 480.996 208.434C480.483 208.27 479.931 208.541 479.762 209.041C479.594 209.54 479.873 210.078 480.386 210.242C480.723 210.35 481.078 210.269 481.329 210.058C481.807 210.44 482.267 210.866 482.68 211.342C483.077 211.8 483.431 212.304 483.714 212.861C483.448 213.044 483.21 213.267 483.009 213.524C482.437 213.184 481.834 212.929 481.22 212.736C480.386 212.476 479.533 212.334 478.712 212.265C478.599 212.048 478.401 211.871 478.145 211.789C477.632 211.625 477.08 211.897 476.911 212.396C476.743 212.895 477.022 213.434 477.535 213.598C478.047 213.762 478.599 213.49 478.768 212.991C478.786 212.936 478.799 212.881 478.807 212.825C479.546 212.896 480.307 213.028 481.046 213.258C481.617 213.437 482.178 213.675 482.709 213.989C482.633 214.133 482.568 214.284 482.515 214.442C482.442 214.659 482.395 214.879 482.371 215.098C481.647 215.205 480.962 215.412 480.32 215.685C479.605 215.988 478.943 216.372 478.34 216.787C478.272 216.745 478.198 216.711 478.119 216.685C477.606 216.521 477.053 216.793 476.885 217.292C476.717 217.791 476.996 218.33 477.508 218.494C478.02 218.658 478.573 218.386 478.741 217.887C478.82 217.655 478.801 217.415 478.708 217.208C479.273 216.823 479.888 216.468 480.545 216.189C481.117 215.947 481.724 215.76 482.363 215.657C482.387 215.976 482.463 216.288 482.583 216.581C482.024 216.97 481.536 217.425 481.107 217.915C480.558 218.543 480.108 219.229 479.733 219.916C479.303 219.893 478.893 220.152 478.752 220.57C478.584 221.068 478.863 221.607 479.375 221.771C479.888 221.935 480.44 221.663 480.608 221.164C480.742 220.767 480.593 220.345 480.269 220.107C480.619 219.472 481.036 218.843 481.537 218.27C481.918 217.834 482.35 217.429 482.84 217.078C483.014 217.349 483.23 217.596 483.483 217.807C483.162 218.423 482.94 219.066 482.793 219.714C482.624 220.457 482.554 221.208 482.544 221.935C482.319 222.044 482.137 222.238 482.053 222.49C481.884 222.988 482.163 223.527 482.676 223.691C483.188 223.855 483.74 223.583 483.909 223.084C484.077 222.585 483.798 222.046 483.286 221.882C483.227 221.864 483.168 221.851 483.108 221.843C483.123 221.184 483.191 220.505 483.344 219.833C483.475 219.255 483.67 218.681 483.949 218.13C484.141 218.239 484.348 218.33 484.568 218.401C484.756 218.461 484.946 218.504 485.136 218.529C485.183 219.117 485.301 219.687 485.468 220.232C485.713 221.03 486.064 221.779 486.459 222.467C486.415 222.534 486.379 222.607 486.352 222.686C486.184 223.185 486.463 223.723 486.975 223.887C487.487 224.051 488.04 223.779 488.208 223.28C488.377 222.781 488.098 222.243 487.586 222.079C487.352 222.004 487.11 222.02 486.9 222.106C486.546 221.477 486.232 220.796 486.01 220.074C485.86 219.585 485.753 219.078 485.705 218.556C486.094 218.54 486.473 218.456 486.824 218.311C487.167 218.901 487.587 219.429 488.05 219.901C488.564 220.426 489.133 220.881 489.713 221.278C489.608 221.748 489.883 222.23 490.362 222.383C490.875 222.547 491.427 222.276 491.596 221.777C491.764 221.277 491.485 220.739 490.973 220.575C490.616 220.461 490.242 220.558 489.989 220.794C489.452 220.423 488.928 220.002 488.457 219.522C488.029 219.085 487.642 218.598 487.324 218.053C487.757 217.78 488.125 217.405 488.386 216.948C489.062 217.294 489.772 217.528 490.485 217.678C491.191 217.825 491.903 217.891 492.593 217.905C492.701 218.144 492.909 218.34 493.183 218.428C493.695 218.592 494.248 218.32 494.416 217.821C494.585 217.322 494.306 216.783 493.794 216.619C493.281 216.455 492.729 216.727 492.56 217.226C492.546 217.268 492.535 217.31 492.527 217.353C491.894 217.337 491.245 217.274 490.604 217.14C489.926 216.997 489.255 216.775 488.616 216.444L488.631 216.401C488.797 215.908 488.831 215.405 488.752 214.926C489.403 214.809 490.022 214.613 490.606 214.361C491.214 214.101 491.783 213.781 492.312 213.433C492.385 213.481 492.466 213.52 492.554 213.548C493.066 213.712 493.618 213.441 493.787 212.942C493.955 212.442 493.676 211.904 493.164 211.74C492.651 211.576 492.099 211.848 491.93 212.347C491.855 212.57 491.869 212.802 491.954 213.004C491.463 213.325 490.936 213.618 490.378 213.858C489.822 214.097 489.233 214.282 488.614 214.39C488.468 213.984 488.238 213.609 487.937 213.291C488.31 212.874 488.654 212.446 488.967 212.008C489.411 211.386 489.792 210.742 490.106 210.078C490.513 210.074 490.892 209.821 491.026 209.423C491.195 208.924 490.916 208.386 490.403 208.222C489.891 208.058 489.338 208.329 489.17 208.829C489.029 209.245 489.201 209.689 489.559 209.92C489.266 210.529 488.912 211.12 488.503 211.694C488.205 212.111 487.876 212.521 487.518 212.921C487.242 212.717 486.927 212.553 486.578 212.442Z" fill="#F07C00"/>
<path d="M19.918 177.361C17.1193 179.972 20.5647 188.977 32.3953 192.377C42.2607 195.213 61.7713 172.656 61.7713 172.656C54.8447 170.736 48.8233 170 43.662 170C29.6207 170.001 21.962 175.453 19.918 177.361Z" fill="url(#paint0_linear_3170_5890)"/>
<path d="M17.354 61.6303C6.28232 64.4737 0 101 0 101C28.7714 93.285 37.2178 81.4533 39.1086 77.1267C42.0554 70.3831 33.3916 60.9992 22.3071 61C20.6986 61 19.0365 61.1985 17.354 61.6303Z" fill="url(#paint1_linear_3170_5890)"/>
<path d="M140.681 238.966C149.335 250.129 168.617 241.362 168.443 226.025C168.272 210.684 132.926 204.788 132.926 204.788L132 204C132 204 134.043 230.4 140.681 238.966Z" fill="url(#paint2_linear_3170_5890)"/>
<path d="M187.284 47.7813C190.872 50.5867 201.007 45.0774 203.016 30.7787C204.694 18.8547 174.468 0 174.468 0C170.398 31.1013 183.691 44.972 187.284 47.7813Z" fill="url(#paint3_linear_3170_5890)"/>
<path d="M224.422 243.774L240.945 250.506C238.154 246.296 236.075 242.501 234.554 239.089C228.487 230.656 221.793 226.004 215.317 226.004C207.709 226.004 203 232.326 203 238.185C203 242.023 204.906 245.536 208.365 248.076C212.569 251.16 219.026 252.793 227.035 252.793C229.717 252.793 232.615 252.592 235.66 252.234C237.102 251.969 238.607 251.726 240.178 251.51L223.941 244.894C223.624 244.766 223.473 244.409 223.606 244.1C223.741 243.789 224.107 243.646 224.422 243.774Z" fill="#FFA3CC"/>
<path d="M246.304 254.063C245.439 253.711 244.555 253.325 243.671 252.938L249.863 268.496C249.988 268.81 249.829 269.161 249.507 269.283C249.433 269.31 249.357 269.324 249.283 269.324C249.032 269.324 248.797 269.176 248.701 268.935L242.864 254.271C242.762 254.97 242.655 255.645 242.543 256.311C240.436 273.003 244.008 281.33 247.559 285.415C250.127 288.373 253.551 290 257.201 290C263.045 290 268.313 285.873 269.457 280.401C270.179 276.941 270.463 265.224 246.304 254.063Z" fill="#FFA3CC"/>
<path d="M267.933 257.877C275.098 257.877 280.487 255.44 283.113 251.01C285.306 247.31 285.267 242.647 283.011 238.84C280.769 235.057 276.766 232.886 272.028 232.886C264.79 232.886 256.277 237.831 247.647 246.93C246.586 248.224 245.422 249.56 244.164 250.934L261.805 247.984C262.144 247.931 262.468 248.151 262.524 248.481C262.584 248.812 262.355 249.126 262.014 249.184L244.822 252.058C245.509 252.359 246.175 252.66 246.828 252.96C254.843 256.221 261.929 257.876 267.927 257.877H267.933Z" fill="#FFA3CC"/>
<path d="M220.884 285.004C224.682 285.004 236.916 282.816 241.327 256.023C241.437 255.154 241.571 254.252 241.712 253.338L230.667 262.714C230.548 262.815 230.402 262.863 230.257 262.863C230.083 262.863 229.909 262.794 229.787 262.654C229.56 262.401 229.587 262.017 229.846 261.798L240.479 252.774C238.904 253.034 237.365 253.256 235.867 253.433C215.194 257.245 208.069 266.103 208.524 273.622C208.904 279.896 214.45 285.004 220.884 285.004Z" fill="#FFA3CC"/>
<path d="M243.068 250.201C244.288 248.755 245.481 247.414 246.647 246.174C255.969 234.735 259.445 224.341 256.185 217.107C254.211 212.725 249.862 209.999 244.836 209.999C240.199 209.999 236.134 212.369 233.964 216.335C232.093 219.754 230.43 226.593 235.515 238.209C237.557 241.053 239.634 244.481 241.705 248.605L240.679 234.043C240.655 233.709 240.914 233.419 241.259 233.396C241.602 233.369 241.9 233.626 241.923 233.96L243.068 250.201Z" fill="#FFA3CC"/>
<defs>
<linearGradient id="paint0_linear_3170_5890" x1="30.1608" y1="181.983" x2="57.4227" y2="179.651" gradientUnits="userSpaceOnUse">
<stop stop-color="#FBD7EA"/>
<stop offset="1" stop-color="#FFA3CC"/>
</linearGradient>
<linearGradient id="paint1_linear_3170_5890" x1="25.6804" y1="72.7147" x2="-0.838926" y2="88.8637" gradientUnits="userSpaceOnUse">
<stop stop-color="#FBD7EA"/>
<stop offset="1" stop-color="#FFA3CC"/>
</linearGradient>
<linearGradient id="paint2_linear_3170_5890" x1="154.382" y1="230.029" x2="125.792" y2="204.78" gradientUnits="userSpaceOnUse">
<stop stop-color="#FBD7EA"/>
<stop offset="1" stop-color="#FFA3CC"/>
</linearGradient>
<linearGradient id="paint3_linear_3170_5890" x1="191.024" y1="35.114" x2="183.908" y2="3.78808" gradientUnits="userSpaceOnUse">
<stop stop-color="#FBD7EA"/>
<stop offset="1" stop-color="#FFA3CC"/>
</linearGradient>
</defs>
</svg>
