<svg width="547" height="248" viewBox="0 0 547 248" fill="none" xmlns="http://www.w3.org/2000/svg">
<path fill-rule="evenodd" clip-rule="evenodd" d="M523.751 146.837C526.072 134.122 518.455 129.639 511.364 130.022C503.139 130.467 495.204 137.469 498.956 148.985C486.583 141.21 480.095 149.752 479.104 156.956C478.168 163.76 483.608 171.847 493.385 172.192C485.606 180.729 488.065 189.212 494.131 192.56C500.715 196.192 510.581 194.205 515.144 184.198C518.565 193.873 529.214 192.951 534.794 191.057C540.676 186.217 547.506 177.689 534.344 168.555C545.947 168.343 548.418 158.009 545.719 150.305C542.433 144.051 535.943 140.574 523.751 146.837Z" fill="#FFCB00"/>
<path fill-rule="evenodd" clip-rule="evenodd" d="M516.961 157.837C516.745 157.71 516.525 157.595 516.302 157.492C516.899 155.822 517.182 154.118 517.248 152.437C517.303 151.037 517.205 149.651 517.012 148.313C517.309 148.144 517.568 147.902 517.759 147.596C518.373 146.61 518.05 145.325 517.04 144.727C516.028 144.129 514.709 144.443 514.095 145.429C513.481 146.413 513.803 147.699 514.815 148.297C515.125 148.481 515.466 148.578 515.805 148.597C515.977 149.831 516.061 151.105 516.011 152.391C515.95 153.95 515.688 155.529 515.138 157.075C514.039 156.785 512.898 156.765 511.814 156.992C511.468 155.594 510.942 154.279 510.294 153.049C509.593 151.716 508.75 150.483 507.845 149.349C508.384 148.378 508.051 147.153 507.071 146.575C506.06 145.976 504.741 146.29 504.127 147.276C503.513 148.261 503.835 149.546 504.847 150.144C505.513 150.538 506.312 150.537 506.957 150.207C507.783 151.254 508.55 152.387 509.19 153.602C509.806 154.773 510.305 156.023 510.625 157.349C509.966 157.611 509.342 157.972 508.783 158.424C507.734 157.423 506.575 156.584 505.36 155.877C503.711 154.918 501.96 154.203 500.241 153.658C500.111 153.138 499.778 152.667 499.271 152.367C498.26 151.769 496.941 152.083 496.327 153.069C495.713 154.054 496.035 155.338 497.047 155.937C498.058 156.535 499.377 156.221 499.99 155.236C500.058 155.128 500.114 155.016 500.159 154.9C501.703 155.408 503.262 156.059 504.723 156.909C505.852 157.566 506.93 158.346 507.904 159.274C507.669 159.545 507.454 159.835 507.26 160.148C506.992 160.576 506.78 161.023 506.617 161.479C505.016 161.359 503.446 161.47 501.935 161.742L501.934 161.744C500.252 162.047 498.645 162.546 497.144 163.142C497.021 163.02 496.88 162.91 496.723 162.817C495.711 162.218 494.392 162.532 493.778 163.518C493.164 164.503 493.487 165.788 494.498 166.386C495.509 166.984 496.828 166.67 497.442 165.685C497.727 165.228 497.81 164.707 497.717 164.219C499.121 163.669 500.614 163.208 502.16 162.929V162.931C503.506 162.688 504.899 162.581 506.315 162.669C506.205 163.364 506.208 164.066 506.315 164.751C504.923 165.313 503.649 166.048 502.483 166.888C500.991 167.965 499.678 169.213 498.528 170.5C497.621 170.243 496.613 170.598 496.099 171.423C495.485 172.407 495.808 173.693 496.819 174.291C497.83 174.889 499.149 174.575 499.763 173.59C500.251 172.807 500.147 171.833 499.576 171.167C500.647 169.98 501.859 168.836 503.22 167.855C504.257 167.107 505.386 166.451 506.612 165.937C506.844 166.601 507.18 167.233 507.615 167.806C506.614 168.967 505.814 170.234 505.17 171.546C504.43 173.054 503.898 174.625 503.506 176.173C502.97 176.298 502.483 176.625 502.174 177.12C501.56 178.105 501.882 179.39 502.894 179.989C503.905 180.587 505.224 180.273 505.838 179.288C506.452 178.302 506.13 177.017 505.119 176.419C505.003 176.35 504.883 176.294 504.76 176.249C505.126 174.847 505.617 173.43 506.285 172.069C506.861 170.896 507.57 169.764 508.446 168.721C508.801 169.047 509.197 169.342 509.631 169.599C510.003 169.819 510.387 170.001 510.78 170.148C510.581 171.427 510.542 172.701 510.623 173.947C510.739 175.77 511.109 177.542 511.602 179.201C511.474 179.323 511.359 179.462 511.262 179.617C510.648 180.602 510.97 181.887 511.982 182.486C512.993 183.084 514.312 182.77 514.925 181.785C515.54 180.799 515.217 179.514 514.207 178.916C513.745 178.643 513.22 178.56 512.727 178.644C512.291 177.129 511.967 175.52 511.861 173.872C511.788 172.754 511.818 171.618 511.983 170.479C512.821 170.633 513.673 170.636 514.497 170.497C514.93 171.925 515.558 173.255 516.306 174.487C517.139 175.857 518.122 177.105 519.16 178.233C518.696 179.187 519.038 180.349 519.985 180.909C520.996 181.507 522.315 181.193 522.929 180.208C523.543 179.223 523.221 177.938 522.21 177.34C521.507 176.924 520.657 176.95 519.996 177.334C519.036 176.282 518.133 175.127 517.37 173.874C516.678 172.735 516.099 171.506 515.697 170.189C516.761 169.815 517.739 169.19 518.528 168.34C519.798 169.407 521.194 170.25 522.643 170.914C524.077 171.571 525.564 172.056 527.032 172.418C527.14 172.981 527.485 173.5 528.027 173.821C529.038 174.418 530.357 174.104 530.97 173.119C531.585 172.134 531.263 170.849 530.252 170.251C529.24 169.652 527.921 169.966 527.306 170.952C527.255 171.035 527.21 171.12 527.172 171.206C525.828 170.866 524.473 170.419 523.17 169.821C521.794 169.189 520.472 168.391 519.278 167.375L519.332 167.289C519.938 166.317 520.266 165.257 520.341 164.196C521.791 164.261 523.214 164.141 524.59 163.886C526.02 163.622 527.4 163.214 528.707 162.726C528.839 162.864 528.992 162.988 529.165 163.09C530.176 163.688 531.495 163.374 532.109 162.389C532.723 161.404 532.401 160.119 531.39 159.521C530.378 158.922 529.059 159.236 528.445 160.222C528.17 160.662 528.082 161.164 528.162 161.636C526.948 162.085 525.674 162.457 524.359 162.7C523.049 162.942 521.696 163.054 520.317 162.984C520.213 162.047 519.912 161.135 519.43 160.309C520.441 159.597 521.394 158.849 522.286 158.064C523.55 156.951 524.692 155.76 525.702 154.491C526.574 154.68 527.512 154.322 528.001 153.537C528.615 152.551 528.293 151.266 527.282 150.668C526.27 150.07 524.951 150.384 524.337 151.369C523.825 152.191 523.965 153.222 524.613 153.889C523.677 155.049 522.62 156.141 521.453 157.169C520.604 157.918 519.693 158.633 518.724 159.316C518.238 158.746 517.647 158.244 516.961 157.837Z" fill="#FAB000"/>
<path fill-rule="evenodd" clip-rule="evenodd" d="M514.903 158.601C514.714 158.541 514.524 158.491 514.333 158.45C514.486 157.061 514.392 155.699 514.134 154.393C513.919 153.306 513.59 152.255 513.196 151.259C513.393 151.077 513.548 150.846 513.639 150.577C513.931 149.711 513.447 148.778 512.559 148.493C511.67 148.209 510.713 148.68 510.421 149.546C510.128 150.411 510.613 151.344 511.501 151.629C511.774 151.716 512.054 151.732 512.319 151.687C512.678 152.607 512.976 153.574 513.173 154.573C513.412 155.784 513.5 157.046 513.36 158.332C512.461 158.3 511.579 158.483 510.785 158.847C510.263 157.831 509.616 156.91 508.892 156.075C508.107 155.171 507.232 154.368 506.328 153.653C506.564 152.811 506.083 151.927 505.223 151.651C504.334 151.367 503.376 151.838 503.084 152.704C502.792 153.569 503.276 154.503 504.165 154.787C504.75 154.975 505.365 154.834 505.801 154.469C506.629 155.13 507.428 155.869 508.143 156.693C508.832 157.488 509.446 158.363 509.936 159.328C509.476 159.646 509.062 160.032 508.714 160.477C507.723 159.889 506.676 159.445 505.612 159.112C504.166 158.661 502.686 158.415 501.263 158.295C501.068 157.917 500.724 157.612 500.28 157.47C499.391 157.185 498.433 157.657 498.141 158.523C497.849 159.388 498.333 160.321 499.221 160.606C500.109 160.89 501.068 160.419 501.359 159.554C501.391 159.459 501.414 159.362 501.428 159.266C502.709 159.388 504.029 159.617 505.311 160.018C506.3 160.327 507.273 160.74 508.193 161.285C508.062 161.534 507.95 161.796 507.857 162.07C507.731 162.446 507.649 162.827 507.608 163.207C506.352 163.392 505.164 163.751 504.05 164.224L504.05 164.227C502.81 164.753 501.664 165.417 500.618 166.137C500.501 166.064 500.372 166.004 500.234 165.96C499.345 165.675 498.387 166.147 498.095 167.012C497.803 167.878 498.287 168.811 499.176 169.096C500.064 169.38 501.022 168.909 501.313 168.043C501.449 167.642 501.418 167.226 501.256 166.867C502.237 166.198 503.302 165.583 504.441 165.1V165.101C505.433 164.68 506.486 164.355 507.593 164.176C507.636 164.73 507.766 165.271 507.975 165.779C507.006 166.454 506.16 167.242 505.416 168.092C504.465 169.181 503.683 170.37 503.033 171.562C502.288 171.522 501.577 171.97 501.332 172.695C501.04 173.56 501.524 174.494 502.413 174.778C503.301 175.063 504.259 174.591 504.551 173.726C504.783 173.038 504.525 172.306 503.962 171.892C504.569 170.792 505.293 169.701 506.161 168.708C506.822 167.952 507.571 167.249 508.421 166.64C508.721 167.111 509.096 167.539 509.536 167.905C508.979 168.973 508.595 170.088 508.339 171.211C508.046 172.501 507.925 173.803 507.908 175.063C507.518 175.252 507.202 175.589 507.055 176.024C506.763 176.89 507.247 177.823 508.136 178.108C509.024 178.392 509.982 177.92 510.274 177.055C510.566 176.189 510.082 175.256 509.194 174.972C509.092 174.939 508.99 174.916 508.887 174.903C508.911 173.76 509.029 172.583 509.294 171.419C509.522 170.415 509.861 169.42 510.344 168.464C510.677 168.654 511.035 168.812 511.417 168.934C511.744 169.039 512.073 169.113 512.402 169.157C512.483 170.177 512.688 171.164 512.978 172.11C513.402 173.493 514.012 174.793 514.697 175.985C514.621 176.101 514.557 176.228 514.511 176.365C514.219 177.23 514.703 178.163 515.592 178.448C516.48 178.732 517.438 178.261 517.729 177.395C518.022 176.529 517.538 175.596 516.65 175.312C516.244 175.182 515.825 175.21 515.46 175.36C514.846 174.27 514.302 173.087 513.918 171.836C513.657 170.988 513.472 170.108 513.389 169.203C514.063 169.175 514.72 169.03 515.329 168.778C515.925 169.803 516.651 170.718 517.454 171.536C518.346 172.446 519.332 173.235 520.338 173.924C520.156 174.739 520.633 175.574 521.465 175.84C522.353 176.125 523.311 175.653 523.603 174.788C523.895 173.922 523.411 172.989 522.523 172.704C521.905 172.507 521.255 172.675 520.817 173.085C519.885 172.442 518.978 171.711 518.161 170.878C517.418 170.122 516.748 169.276 516.196 168.332C516.947 167.859 517.586 167.207 518.037 166.415C519.21 167.016 520.44 167.422 521.677 167.681C522.902 167.937 524.136 168.052 525.333 168.075C525.52 168.489 525.88 168.828 526.356 168.981C527.244 169.266 528.202 168.794 528.494 167.929C528.786 167.063 528.302 166.129 527.415 165.845C526.525 165.561 525.568 166.032 525.275 166.898C525.251 166.971 525.232 167.044 525.218 167.117C524.121 167.089 522.996 166.981 521.883 166.747C520.708 166.501 519.543 166.116 518.437 165.542L518.463 165.466C518.751 164.612 518.81 163.739 518.673 162.909C519.801 162.707 520.875 162.366 521.887 161.93C522.941 161.478 523.928 160.924 524.844 160.32C524.971 160.404 525.112 160.472 525.264 160.521C526.152 160.805 527.11 160.334 527.402 159.468C527.695 158.602 527.21 157.669 526.322 157.385C525.434 157.1 524.476 157.571 524.183 158.437C524.053 158.825 524.077 159.226 524.225 159.576C523.373 160.132 522.46 160.641 521.492 161.057C520.528 161.472 519.506 161.794 518.432 161.98C518.18 161.276 517.781 160.626 517.259 160.075C517.906 159.35 518.503 158.609 519.045 157.849C519.814 156.771 520.475 155.655 521.02 154.502C521.727 154.496 522.383 154.057 522.615 153.368C522.908 152.502 522.423 151.568 521.535 151.284C520.647 150.999 519.688 151.471 519.396 152.337C519.153 153.059 519.45 153.828 520.071 154.229C519.563 155.285 518.95 156.31 518.24 157.305C517.723 158.029 517.153 158.738 516.532 159.432C516.053 159.078 515.507 158.795 514.903 158.601Z" fill="#F07C00"/>
<path fill-rule="evenodd" clip-rule="evenodd" d="M421.622 82.6409C422.951 75.3599 418.59 72.7933 414.53 73.0129C409.821 73.2679 405.277 77.2769 407.426 83.8707C400.341 79.4185 396.627 84.3096 396.059 88.4345C395.524 92.3301 398.638 96.9604 404.237 97.158C399.782 102.046 401.19 106.903 404.664 108.819C408.434 110.899 414.082 109.762 416.695 104.032C418.653 109.572 424.751 109.044 427.946 107.959C431.313 105.188 435.224 100.306 427.688 95.0755C434.331 94.9542 435.746 89.0369 434.201 84.6258C432.32 81.0456 428.603 79.0549 421.622 82.6409Z" fill="#FFCB00"/>
<path fill-rule="evenodd" clip-rule="evenodd" d="M417.735 88.94C417.611 88.867 417.486 88.8009 417.358 88.7424C417.699 87.7861 417.862 86.8102 417.899 85.8476C417.931 85.0464 417.874 84.2526 417.765 83.4865C417.934 83.3901 418.083 83.2514 418.192 83.0761C418.544 82.5117 418.359 81.7758 417.78 81.4334C417.201 81.091 416.446 81.2705 416.094 81.8352C415.743 82.3992 415.927 83.1346 416.507 83.4774C416.684 83.5825 416.879 83.6381 417.073 83.649C417.172 84.3554 417.22 85.0853 417.191 85.8214C417.156 86.7142 417.006 87.6182 416.691 88.5034C416.062 88.3376 415.409 88.3258 414.788 88.4558C414.59 87.6557 414.289 86.9025 413.918 86.1984C413.516 85.4349 413.034 84.7288 412.516 84.0798C412.824 83.5236 412.634 82.8227 412.073 82.4913C411.494 82.1485 410.739 82.3285 410.387 82.8928C410.035 83.4566 410.22 84.1925 410.799 84.5349C411.181 84.7606 411.638 84.7594 412.007 84.5712C412.48 85.1702 412.919 85.8192 413.286 86.5146C413.638 87.1852 413.924 87.9006 414.108 88.66C413.73 88.8108 413.373 89.017 413.053 89.2759C412.452 88.7026 411.788 88.2223 411.093 87.8175C410.149 87.2683 409.146 86.859 408.162 86.5468C408.087 86.2493 407.897 85.9794 407.607 85.8078C407.027 85.4654 406.272 85.645 405.921 86.2097C405.569 86.7736 405.754 87.509 406.333 87.8518C406.912 88.1942 407.667 88.0144 408.018 87.4505C408.057 87.3885 408.09 87.3242 408.115 87.2585C408.999 87.5492 409.892 87.9214 410.728 88.4086C411.375 88.7846 411.991 89.231 412.549 89.7624C412.415 89.9174 412.292 90.0841 412.18 90.2625C412.028 90.5081 411.906 90.764 411.813 91.0252C410.896 90.956 409.997 91.0198 409.132 91.1752L409.131 91.1765C408.168 91.35 407.248 91.6353 406.389 91.9765C406.318 91.9062 406.238 91.844 406.147 91.7902C405.568 91.4478 404.813 91.6277 404.461 92.192C404.11 92.756 404.295 93.4914 404.874 93.8342C405.453 94.1766 406.207 93.9968 406.559 93.4328C406.722 93.1709 406.77 92.8726 406.716 92.5934C407.521 92.2782 408.376 92.0144 409.261 91.8549C410.032 91.7158 410.829 91.6557 411.64 91.706C411.577 92.104 411.578 92.5061 411.64 92.898C410.843 93.22 410.113 93.6406 409.446 94.1218C408.591 94.7386 407.839 95.4526 407.181 96.19C406.662 96.0429 406.084 96.2456 405.79 96.718C405.439 97.2818 405.623 98.0177 406.202 98.3605C406.781 98.703 407.536 98.523 407.888 97.9592C408.168 97.5105 408.108 96.9527 407.781 96.5713C408.394 95.8921 409.088 95.2372 409.867 94.6756C410.461 94.2473 411.107 93.8713 411.81 93.5772C411.943 93.9574 412.135 94.3194 412.384 94.6472C411.811 95.3124 411.353 96.0373 410.984 96.7886C410.56 97.6522 410.255 98.5518 410.032 99.4377C409.724 99.5096 409.446 99.6966 409.269 99.9805C408.917 100.544 409.102 101.28 409.681 101.623C410.26 101.965 411.015 101.785 411.367 101.221C411.718 100.657 411.533 99.9212 410.954 99.5788C410.888 99.5394 410.82 99.5069 410.749 99.4816C410.959 98.6792 411.24 97.8673 411.623 97.088C411.952 96.4164 412.358 95.7683 412.86 95.1711C413.063 95.3577 413.289 95.5266 413.538 95.6737C413.751 95.8 413.971 95.9042 414.196 95.9881C414.082 96.7206 414.06 97.4501 414.106 98.1637C414.172 99.2076 414.384 100.222 414.667 101.172C414.594 101.241 414.527 101.321 414.472 101.41C414.12 101.974 414.305 102.71 414.884 103.053C415.463 103.395 416.218 103.215 416.57 102.651C416.921 102.087 416.737 101.351 416.158 101.008C415.894 100.852 415.593 100.805 415.311 100.853C415.061 99.9854 414.876 99.064 414.815 98.1205C414.773 97.4806 414.79 96.8298 414.885 96.1778C415.365 96.266 415.852 96.2678 416.324 96.1885C416.573 97.006 416.931 97.7676 417.36 98.4732C417.837 99.2578 418.4 99.9718 418.994 100.618C418.728 101.164 418.924 101.829 419.466 102.15C420.045 102.493 420.801 102.313 421.152 101.749C421.504 101.185 421.319 100.449 420.74 100.106C420.338 99.8682 419.851 99.8833 419.473 100.102C418.923 99.4996 418.406 98.8389 417.969 98.1212C417.573 97.4689 417.242 96.7654 417.011 96.011C417.621 95.7971 418.18 95.4393 418.632 94.9524C419.359 95.5636 420.158 96.0458 420.988 96.4265C421.809 96.8025 422.661 97.0804 423.501 97.2878C423.563 97.6102 423.76 97.9069 424.071 98.0906C424.65 98.433 425.405 98.253 425.756 97.6892C426.108 97.1249 425.923 96.389 425.345 96.0466C424.766 95.7038 424.01 95.8837 423.658 96.4479C423.629 96.4955 423.603 96.5444 423.581 96.5938C422.811 96.3993 422.036 96.143 421.29 95.8005C420.503 95.4389 419.746 94.982 419.061 94.3999L419.092 94.3512C419.439 93.7944 419.627 93.1875 419.67 92.58C420.501 92.6175 421.315 92.5482 422.103 92.4024C422.922 92.2512 423.712 92.018 424.46 91.7384C424.536 91.8173 424.624 91.888 424.723 91.9466C425.302 92.289 426.057 92.1094 426.408 91.5456C426.76 90.9809 426.575 90.2454 425.996 89.903C425.417 89.5602 424.662 89.7401 424.31 90.3044C424.153 90.5569 424.103 90.8437 424.148 91.1144C423.454 91.3709 422.723 91.5845 421.971 91.7232C421.221 91.862 420.446 91.9258 419.656 91.8861C419.597 91.349 419.425 90.827 419.149 90.3546C419.728 89.9468 420.273 89.5186 420.784 89.0692C421.508 88.4313 422.162 87.7498 422.74 87.023C423.239 87.1314 423.776 86.9267 424.056 86.4769C424.408 85.9125 424.223 85.1766 423.644 84.8342C423.065 84.4918 422.31 84.6713 421.958 85.236C421.665 85.7066 421.745 86.2969 422.116 86.6786C421.58 87.3428 420.975 87.9682 420.307 88.5568C419.821 88.9849 419.299 89.3946 418.745 89.7854C418.466 89.4593 418.128 89.1724 417.735 88.94Z" fill="#FAB000"/>
<path fill-rule="evenodd" clip-rule="evenodd" d="M416.557 89.3762C416.449 89.3414 416.34 89.3127 416.231 89.2897C416.319 88.4941 416.264 87.7143 416.117 86.9663C415.994 86.3439 415.805 85.7426 415.58 85.1719C415.693 85.0679 415.782 84.9357 415.834 84.7814C416.001 84.2855 415.724 83.7515 415.215 83.5886C414.706 83.4254 414.158 83.6955 413.991 84.1911C413.823 84.6866 414.1 85.221 414.609 85.3839C414.766 85.4342 414.926 85.4429 415.078 85.4171C415.283 85.9445 415.454 86.4977 415.567 87.0695C415.704 87.7631 415.754 88.4854 415.674 89.2217C415.159 89.2035 414.654 89.3082 414.2 89.5165C413.901 88.9347 413.53 88.4075 413.116 87.9298C412.666 87.4119 412.165 86.9521 411.647 86.5432C411.783 86.0609 411.507 85.5544 411.015 85.3968C410.506 85.2338 409.957 85.5037 409.79 85.9995C409.623 86.4947 409.9 87.0292 410.409 87.1925C410.744 87.2998 411.096 87.2189 411.346 87.0098C411.82 87.3886 412.277 87.812 412.687 88.2836C413.081 88.7386 413.433 89.2394 413.713 89.7923C413.45 89.9742 413.213 90.1953 413.014 90.4503C412.446 90.1133 411.847 89.8593 411.237 89.6684C410.41 89.4098 409.562 89.2693 408.747 89.2005C408.636 88.9846 408.439 88.8097 408.184 88.7285C407.675 88.5651 407.127 88.8354 406.96 89.3313C406.793 89.8263 407.07 90.3607 407.579 90.5237C408.087 90.6866 408.636 90.4168 408.803 89.9213C408.821 89.8668 408.834 89.8117 408.842 89.7565C409.576 89.8268 410.331 89.9579 411.065 90.1869C411.632 90.3642 412.189 90.6005 412.715 90.9126C412.641 91.0552 412.576 91.2047 412.523 91.3617C412.451 91.5774 412.404 91.7955 412.38 92.0129C411.661 92.1194 410.981 92.3246 410.343 92.5957C409.634 92.8969 408.977 93.2778 408.378 93.6906C408.311 93.6486 408.238 93.6146 408.158 93.5889C407.649 93.426 407.101 93.6958 406.933 94.1917C406.766 94.6873 407.044 95.2217 407.553 95.3845C408.061 95.5474 408.609 95.2776 408.776 94.7821C408.854 94.552 408.836 94.3138 408.743 94.1082C409.305 93.7253 409.915 93.3734 410.567 93.0965C411.135 92.8554 411.738 92.6701 412.372 92.5677C412.396 92.8852 412.471 93.1944 412.591 93.4853C412.036 93.8724 411.551 94.3233 411.125 94.8101C410.581 95.4333 410.133 96.1143 409.761 96.7966C409.334 96.7739 408.927 97.0305 408.787 97.4455C408.62 97.941 408.897 98.4754 409.406 98.6383C409.914 98.8013 410.463 98.531 410.63 98.036C410.763 97.6417 410.615 97.2225 410.293 96.9859C410.641 96.3559 411.055 95.7307 411.552 95.1627C411.93 94.7299 412.359 94.3274 412.846 93.9789C413.018 94.2485 413.233 94.4937 413.484 94.7027C413.165 95.3146 412.946 95.9526 412.799 96.5955C412.631 97.3341 412.562 98.0797 412.552 98.8013C412.329 98.9097 412.148 99.1025 412.064 99.3515C411.897 99.847 412.174 100.381 412.682 100.544C413.191 100.707 413.74 100.437 413.907 99.942C414.074 99.4461 413.797 98.9116 413.288 98.7488C413.23 98.7302 413.171 98.717 413.112 98.7098C413.127 98.0556 413.194 97.3813 413.346 96.7146C413.477 96.1401 413.67 95.5705 413.947 95.0233C414.138 95.1317 414.343 95.2221 414.561 95.2923C414.749 95.3521 414.937 95.3943 415.125 95.4197C415.172 96.0037 415.289 96.569 415.455 97.1106C415.698 97.9025 416.047 98.6466 416.439 99.3293C416.395 99.3954 416.359 99.4679 416.333 99.5466C416.165 100.042 416.443 100.576 416.952 100.739C417.46 100.902 418.008 100.632 418.176 100.137C418.343 99.641 418.066 99.1066 417.557 98.9437C417.325 98.8693 417.085 98.8851 416.876 98.9713C416.525 98.3469 416.213 97.6697 415.993 96.9538C415.844 96.4681 415.738 95.9644 415.691 95.4458C416.076 95.4302 416.452 95.3467 416.801 95.2031C417.142 95.7893 417.558 96.3131 418.018 96.7818C418.529 97.303 419.093 97.7547 419.669 98.1489C419.565 98.6157 419.838 99.0938 420.314 99.2465C420.823 99.409 421.371 99.1391 421.538 98.6437C421.706 98.1481 421.429 97.6137 420.92 97.4507C420.566 97.3374 420.194 97.4338 419.944 97.6689C419.41 97.3004 418.89 96.8817 418.423 96.405C417.997 95.9719 417.613 95.4881 417.297 94.9473C417.728 94.6762 418.093 94.3033 418.352 93.8497C419.024 94.1939 419.727 94.4261 420.436 94.5746C421.137 94.7209 421.843 94.7866 422.529 94.8002C422.636 95.0375 422.842 95.2314 423.115 95.3187C423.623 95.4817 424.172 95.2118 424.339 94.7163C424.506 94.2205 424.229 93.6863 423.721 93.5235C423.212 93.3602 422.664 93.6305 422.496 94.1263C422.482 94.1679 422.471 94.2098 422.463 94.2518C421.835 94.2359 421.19 94.1736 420.554 94.0402C419.881 93.8988 419.214 93.6785 418.581 93.3497L418.596 93.3066C418.761 92.8176 418.794 92.3174 418.716 91.8423C419.362 91.7263 419.976 91.5313 420.556 91.2818C421.159 91.023 421.725 90.7056 422.249 90.3601C422.322 90.4081 422.402 90.447 422.49 90.4749C422.998 90.6378 423.547 90.3675 423.714 89.8725C423.881 89.3766 423.604 88.8422 423.096 88.6793C422.587 88.5163 422.038 88.7862 421.871 89.2821C421.796 89.5036 421.81 89.7334 421.894 89.9341C421.407 90.2527 420.884 90.5441 420.33 90.7822C419.778 91.0195 419.193 91.2037 418.578 91.3102C418.434 90.9073 418.205 90.535 417.906 90.2194C418.276 89.8049 418.618 89.3799 418.929 88.945C419.369 88.3278 419.748 87.689 420.06 87.0292C420.464 87.0252 420.84 86.7743 420.973 86.3794C421.14 85.8835 420.863 85.3492 420.355 85.1862C419.846 85.0234 419.297 85.2931 419.13 85.7891C418.991 86.2022 419.161 86.6429 419.516 86.8723C419.225 87.477 418.875 88.0639 418.468 88.6335C418.172 89.0482 417.845 89.4545 417.49 89.8517C417.216 89.6491 416.903 89.4866 416.557 89.3762Z" fill="#F07C00"/>
<path fill-rule="evenodd" clip-rule="evenodd" d="M374.606 55.7831C376.92 43.1084 369.328 38.6399 362.259 39.0224C354.061 39.4662 346.151 46.4455 349.891 57.9246C337.558 50.1739 331.091 58.6884 330.103 65.8696C329.171 72.6519 334.593 80.7122 344.339 81.056C336.584 89.5654 339.035 98.0212 345.082 101.358C351.646 104.979 361.479 102.998 366.028 93.0228C369.437 102.667 380.052 101.748 385.614 99.86C391.477 95.0354 398.285 86.5356 385.166 77.4311C396.73 77.2199 399.194 66.9184 396.503 59.2391C393.228 53.0059 386.759 49.5404 374.606 55.7831Z" fill="#FFCB00"/>
<path fill-rule="evenodd" clip-rule="evenodd" d="M367.838 66.7494C367.623 66.622 367.404 66.5075 367.181 66.4051C367.776 64.7405 368.059 63.042 368.124 61.3658C368.179 59.9711 368.081 58.589 367.889 57.2555C368.185 57.0874 368.443 56.8463 368.633 56.5408C369.246 55.5586 368.925 54.2776 367.917 53.6816C366.908 53.0848 365.594 53.3978 364.981 54.3804C364.369 55.362 364.691 56.6428 365.699 57.2396C366.008 57.4226 366.348 57.5194 366.686 57.5383C366.858 58.7682 366.941 60.0388 366.891 61.3204C366.83 62.8745 366.569 64.4487 366.021 65.9892C364.926 65.7006 363.789 65.6801 362.708 65.9065C362.363 64.5133 361.839 63.2023 361.193 61.9762C360.494 60.6474 359.654 59.4178 358.753 58.2888C359.289 57.3202 358.957 56.1001 357.981 55.5227C356.972 54.9263 355.658 55.2392 355.046 56.2219C354.434 57.2034 354.755 58.4843 355.764 59.0807C356.428 59.4738 357.224 59.4719 357.866 59.1438C358.69 60.187 359.454 61.3163 360.092 62.5272C360.706 63.6947 361.204 64.94 361.523 66.2621C360.865 66.524 360.244 66.8835 359.687 67.334C358.641 66.3359 357.485 65.5002 356.275 64.795C354.632 63.8391 352.886 63.1263 351.172 62.5828C351.043 62.0653 350.71 61.5956 350.206 61.297C349.198 60.7002 347.883 61.0135 347.271 61.9959C346.659 62.9778 346.98 64.2587 347.988 64.8551C348.996 65.4511 350.311 65.1381 350.923 64.1561C350.99 64.0485 351.046 63.9365 351.091 63.8217C352.629 64.3281 354.184 64.9764 355.64 65.8241C356.765 66.4787 357.839 67.2561 358.81 68.1811C358.576 68.4508 358.362 68.7408 358.168 69.0519C357.902 69.4794 357.69 69.9245 357.528 70.3792C355.932 70.2587 354.367 70.3699 352.861 70.6411L352.86 70.6438C351.184 70.9458 349.582 71.4428 348.085 72.0365C347.963 71.9144 347.823 71.8052 347.665 71.7127C346.657 71.1159 345.343 71.4288 344.73 72.4115C344.118 73.3929 344.439 74.6739 345.448 75.2707C346.456 75.8667 347.77 75.5537 348.382 74.5719C348.666 74.116 348.749 73.5964 348.656 73.1103C350.056 72.5615 351.544 72.1023 353.086 71.8246L353.085 71.8259C354.427 71.5844 355.815 71.4777 357.227 71.5651C357.117 72.2579 357.12 72.9582 357.227 73.6404C355.84 74.201 354.569 74.933 353.407 75.771C351.92 76.8443 350.611 78.0877 349.465 79.3709C348.56 79.1151 347.556 79.468 347.044 80.2905C346.432 81.2724 346.753 82.5533 347.762 83.1497C348.769 83.7457 350.084 83.4328 350.696 82.4508C351.182 81.67 351.079 80.6991 350.509 80.0354C351.577 78.8524 352.785 77.7124 354.141 76.7347C355.175 75.9893 356.3 75.3344 357.523 74.8227C357.754 75.4844 358.089 76.1146 358.522 76.6856C357.526 77.8432 356.728 79.1056 356.085 80.4133C355.348 81.9164 354.817 83.4827 354.427 85.0255C353.893 85.1499 353.407 85.4756 353.099 85.9696C352.487 86.9515 352.809 88.2324 353.817 88.8288C354.825 89.4248 356.139 89.1119 356.751 88.1304C357.363 87.1478 357.042 85.8668 356.035 85.2708C355.919 85.2024 355.799 85.1456 355.677 85.1015C356.042 83.7046 356.531 82.2913 357.197 80.9345C357.771 79.7655 358.478 78.6369 359.351 77.5968C359.705 77.9227 360.099 78.2163 360.532 78.4725C360.903 78.6921 361.286 78.8739 361.677 79.0199C361.479 80.2947 361.44 81.5645 361.52 82.8069C361.636 84.6241 362.005 86.3903 362.497 88.0442C362.37 88.1651 362.254 88.3035 362.157 88.4588C361.546 89.4407 361.867 90.7212 362.875 91.318C363.883 91.914 365.198 91.6011 365.81 90.6192C366.422 89.637 366.101 88.356 365.093 87.76C364.633 87.4879 364.11 87.4051 363.618 87.4885C363.183 85.9787 362.86 84.3747 362.754 82.732C362.682 81.6179 362.712 80.4851 362.876 79.3501C363.711 79.5036 364.561 79.5067 365.383 79.3679C365.814 80.7912 366.44 82.1171 367.186 83.3455C368.015 84.7111 368.995 85.9542 370.03 87.0792C369.568 88.0302 369.908 89.1879 370.853 89.7466C371.861 90.3425 373.175 90.0296 373.787 89.048C374.399 88.0654 374.078 86.7844 373.07 86.1884C372.37 85.7739 371.522 85.7999 370.864 86.1818C369.907 85.1326 369.006 83.9824 368.247 82.733C367.556 81.5972 366.979 80.3726 366.578 79.0596C367.639 78.6866 368.614 78.064 369.401 77.2163C370.666 78.2807 372.058 79.12 373.502 79.7823C374.931 80.4368 376.413 80.9207 377.877 81.282C377.985 81.8428 378.328 82.3595 378.869 82.6792C379.876 83.2752 381.191 82.9623 381.803 81.9804C382.415 80.9982 382.094 79.7172 381.086 79.1212C380.078 78.5244 378.763 78.8378 378.15 79.82C378.099 79.9024 378.054 79.9875 378.016 80.0736C376.676 79.735 375.326 79.2887 374.027 78.693C372.656 78.0634 371.338 77.2673 370.147 76.2544L370.201 76.1694C370.805 75.2003 371.133 74.1439 371.207 73.086C372.653 73.1511 374.071 73.0308 375.443 72.7772C376.869 72.5139 378.244 72.1075 379.546 71.6211C379.678 71.7587 379.831 71.8815 380.003 71.9836C381.011 72.5796 382.325 72.2667 382.938 71.2851C383.55 70.3024 383.228 69.0215 382.221 68.4255C381.212 67.8291 379.898 68.142 379.285 69.1243C379.012 69.5639 378.924 70.0636 379.003 70.5346C377.794 70.9816 376.523 71.3531 375.213 71.5951C373.907 71.8362 372.558 71.9476 371.184 71.8781C371.08 70.9435 370.78 70.034 370.3 69.212C371.307 68.5019 372.257 67.7566 373.146 66.9742C374.406 65.8638 375.545 64.677 376.551 63.412C377.421 63.601 378.355 63.2441 378.842 62.4615C379.455 61.4787 379.134 60.1979 378.126 59.6019C377.118 59.0055 375.803 59.3184 375.191 60.3007C374.68 61.12 374.819 62.1477 375.466 62.8121C374.532 63.9683 373.479 65.0572 372.316 66.0819C371.47 66.8279 370.561 67.5411 369.596 68.2215C369.111 67.6534 368.523 67.1542 367.838 66.7494Z" fill="#FAB000"/>
<path fill-rule="evenodd" clip-rule="evenodd" d="M365.787 67.5079C365.598 67.4473 365.408 67.3975 365.218 67.3574C365.37 65.9722 365.276 64.6149 365.019 63.3129C364.806 62.2293 364.477 61.1824 364.084 60.1891C364.281 60.0081 364.436 59.7776 364.526 59.5092C364.818 58.646 364.335 57.7159 363.45 57.4324C362.564 57.1485 361.609 57.6183 361.318 58.4816C361.027 59.344 361.509 60.2745 362.395 60.558C362.667 60.6453 362.946 60.6604 363.21 60.6163C363.567 61.5335 363.865 62.4973 364.062 63.4924C364.3 64.7 364.387 65.9575 364.248 67.2391C363.352 67.2073 362.473 67.3899 361.682 67.7524C361.161 66.7399 360.516 65.8213 359.795 64.9899C359.012 64.0884 358.14 63.288 357.239 62.5755C357.474 61.7364 356.995 60.8547 356.137 60.5803C355.251 60.2964 354.296 60.7663 354.005 61.6295C353.714 62.492 354.197 63.4221 355.083 63.706C355.666 63.8927 356.279 63.7524 356.713 63.3885C357.539 64.048 358.335 64.7847 359.048 65.606C359.735 66.3977 360.347 67.2701 360.835 68.2324C360.377 68.5487 359.964 68.9339 359.617 69.3779C358.629 68.7913 357.586 68.3491 356.524 68.0169C355.084 67.5668 353.609 67.3223 352.19 67.202C351.995 66.826 351.653 66.5222 351.21 66.38C350.324 66.0966 349.369 66.5663 349.078 67.4296C348.787 68.292 349.269 69.2221 350.155 69.506C351.04 69.7895 351.995 69.3197 352.286 68.4572C352.318 68.3624 352.341 68.2664 352.355 68.1704C353.632 68.292 354.948 68.5207 356.225 68.9195C357.211 69.2279 358.181 69.6395 359.098 70.1825C358.967 70.4309 358.856 70.6917 358.763 70.9645C358.637 71.3403 358.555 71.7201 358.514 72.0984C357.263 72.2836 356.078 72.6412 354.968 73.1124L354.968 73.1151C353.732 73.6392 352.59 74.3011 351.547 75.0191C351.43 74.9461 351.302 74.8864 351.164 74.8423C350.278 74.5588 349.323 75.0285 349.032 75.8919C348.741 76.7543 349.224 77.6844 350.109 77.9683C350.995 78.2517 351.95 77.782 352.241 76.9195C352.376 76.5188 352.344 76.1043 352.183 75.7463C353.161 75.0796 354.223 74.4669 355.358 73.9847L355.358 73.986C356.347 73.5661 357.397 73.2423 358.499 73.0639C358.542 73.616 358.672 74.1549 358.88 74.6615C357.915 75.3349 357.071 76.12 356.33 76.9673C355.381 78.0528 354.602 79.2384 353.955 80.426C353.212 80.3863 352.503 80.8331 352.259 81.5556C351.968 82.4181 352.45 83.3483 353.336 83.6321C354.222 83.9156 355.176 83.4459 355.467 82.5833C355.699 81.8969 355.441 81.1675 354.88 80.7556C355.486 79.6587 356.207 78.5705 357.072 77.5815C357.731 76.8279 358.478 76.1275 359.325 75.5205C359.624 75.9899 359.998 76.4167 360.436 76.7809C359.881 77.846 359.498 78.9568 359.243 80.0756C358.951 81.3617 358.83 82.6596 358.813 83.9156C358.425 84.1046 358.11 84.4399 357.964 84.8741C357.672 85.7365 358.155 86.6667 359.041 86.9505C359.926 87.234 360.881 86.7643 361.172 85.9017C361.463 85.0385 360.981 84.108 360.095 83.8245C359.994 83.792 359.892 83.7693 359.789 83.7565C359.814 82.6173 359.931 81.4437 360.195 80.2835C360.423 79.2831 360.76 78.2914 361.241 77.3386C361.574 77.5275 361.931 77.6851 362.311 77.8068C362.637 77.9115 362.965 77.9848 363.293 78.0289C363.375 79.0453 363.578 80.0299 363.868 80.9725C364.29 82.3512 364.898 83.6469 365.581 84.8348C365.504 84.9504 365.441 85.0767 365.395 85.2131C365.104 86.0756 365.586 87.0061 366.472 87.2896C367.357 87.5731 368.312 87.1032 368.603 86.2408C368.895 85.3775 368.412 84.4473 367.527 84.1639C367.123 84.0343 366.705 84.0619 366.341 84.2119C365.73 83.125 365.187 81.9461 364.804 80.6996C364.544 79.8545 364.359 78.9769 364.277 78.0744C364.949 78.0471 365.603 77.9016 366.21 77.6515C366.804 78.6723 367.529 79.5847 368.329 80.4003C369.218 81.3073 370.201 82.0939 371.204 82.7803C371.022 83.5928 371.497 84.4251 372.327 84.6904C373.212 84.9743 374.167 84.5041 374.458 83.6416C374.749 82.7784 374.266 81.8481 373.381 81.5648C372.765 81.3675 372.118 81.5352 371.681 81.9441C370.752 81.3032 369.848 80.5741 369.033 79.7445C368.293 78.9901 367.625 78.1476 367.075 77.2065C367.823 76.7345 368.46 76.0856 368.91 75.2956C370.079 75.8947 371.305 76.2991 372.539 76.5576C373.759 76.8124 374.989 76.9269 376.182 76.9502C376.368 77.3634 376.727 77.7013 377.202 77.8536C378.087 78.1371 379.042 77.6669 379.333 76.8044C379.624 75.9416 379.142 75.0111 378.257 74.7276C377.371 74.4437 376.416 74.9139 376.125 75.7772C376.1 75.8493 376.081 75.9227 376.068 75.9956C374.974 75.968 373.852 75.8596 372.743 75.6271C371.572 75.3811 370.411 74.9979 369.308 74.4252L369.335 74.35C369.622 73.4988 369.68 72.6284 369.543 71.8011C370.668 71.5992 371.739 71.2599 372.748 70.8256C373.798 70.3747 374.782 69.8221 375.695 69.2208C375.822 69.304 375.962 69.372 376.114 69.4204C376.999 69.7038 377.954 69.234 378.245 68.3716C378.536 67.5083 378.054 66.5781 377.168 66.2946C376.282 66.0108 375.328 66.4807 375.036 67.3439C374.906 67.7298 374.93 68.1296 375.077 68.4789C374.229 69.0337 373.318 69.5409 372.353 69.9552C371.393 70.3687 370.374 70.6892 369.303 70.8751C369.052 70.1732 368.655 69.5255 368.134 68.9759C368.779 68.254 369.374 67.5144 369.915 66.7573C370.681 65.6828 371.34 64.5708 371.883 63.4215C372.587 63.4148 373.241 62.9781 373.473 62.2903C373.764 61.4275 373.282 60.4969 372.397 60.2135C371.511 59.9296 370.556 60.3997 370.265 61.2631C370.022 61.9827 370.318 62.7495 370.938 63.1487C370.431 64.2016 369.82 65.2232 369.112 66.2145C368.597 66.9364 368.029 67.6436 367.41 68.3356C366.933 67.983 366.388 67.7005 365.787 67.5079Z" fill="#F07C00"/>
<path fill-rule="evenodd" clip-rule="evenodd" d="M470.808 175.71C472.147 168.377 467.754 165.792 463.664 166.013C458.921 166.269 454.345 170.308 456.509 176.949C449.373 172.465 445.631 177.391 445.06 181.546C444.52 185.47 447.658 190.134 453.296 190.332C448.809 195.256 450.228 200.148 453.727 202.078C457.524 204.173 463.213 203.028 465.845 197.256C467.817 202.836 473.959 202.304 477.177 201.212C480.569 198.421 484.508 193.503 476.918 188.235C483.609 188.113 485.034 182.153 483.477 177.71C481.582 174.103 477.84 172.098 470.808 175.71Z" fill="#FFCB00"/>
<path fill-rule="evenodd" clip-rule="evenodd" d="M466.893 182.054C466.769 181.98 466.642 181.914 466.513 181.855C466.857 180.892 467.021 179.909 467.058 178.939C467.09 178.132 467.033 177.333 466.922 176.561C467.094 176.464 467.243 176.324 467.353 176.148C467.707 175.579 467.521 174.838 466.938 174.494C466.355 174.148 465.594 174.329 465.24 174.898C464.886 175.466 465.072 176.207 465.656 176.552C465.834 176.658 466.031 176.714 466.227 176.724C466.325 177.436 466.374 178.171 466.345 178.913C466.31 179.812 466.159 180.723 465.842 181.614C465.208 181.447 464.55 181.435 463.925 181.566C463.726 180.76 463.422 180.002 463.049 179.292C462.644 178.524 462.158 177.812 461.636 177.159C461.947 176.599 461.755 175.893 461.19 175.559C460.606 175.214 459.846 175.394 459.491 175.963C459.137 176.531 459.323 177.272 459.907 177.617C460.291 177.844 460.752 177.843 461.123 177.654C461.6 178.257 462.042 178.911 462.411 179.611C462.767 180.287 463.055 181.008 463.24 181.772C462.859 181.924 462.499 182.132 462.177 182.392C461.572 181.815 460.903 181.331 460.203 180.923C459.252 180.37 458.242 179.958 457.251 179.643C457.175 179.344 456.983 179.072 456.691 178.899C456.108 178.554 455.347 178.735 454.993 179.304C454.639 179.872 454.825 180.613 455.408 180.958C455.991 181.303 456.752 181.122 457.106 180.554C457.145 180.492 457.178 180.427 457.203 180.36C458.094 180.653 458.993 181.028 459.836 181.519C460.486 181.898 461.108 182.347 461.67 182.882C461.534 183.039 461.41 183.206 461.298 183.386C461.144 183.634 461.022 183.891 460.928 184.154C460.005 184.084 459.099 184.149 458.228 184.306L458.227 184.307C457.257 184.482 456.33 184.769 455.464 185.113C455.394 185.042 455.312 184.979 455.221 184.925C454.638 184.58 453.877 184.761 453.523 185.33C453.169 185.898 453.355 186.639 453.938 186.984C454.522 187.329 455.282 187.148 455.636 186.58C455.801 186.316 455.849 186.015 455.794 185.734C456.605 185.417 457.466 185.151 458.357 184.99C459.134 184.85 459.937 184.79 460.754 184.84C460.69 185.241 460.692 185.646 460.754 186.041C459.951 186.365 459.216 186.789 458.544 187.273C457.683 187.895 456.926 188.614 456.263 189.357C455.739 189.209 455.158 189.413 454.862 189.888C454.508 190.457 454.694 191.198 455.277 191.543C455.86 191.888 456.621 191.707 456.974 191.139C457.256 190.687 457.196 190.125 456.867 189.741C457.485 189.057 458.184 188.397 458.968 187.831C459.566 187.4 460.218 187.021 460.925 186.725C461.059 187.108 461.252 187.473 461.503 187.803C460.926 188.473 460.464 189.203 460.093 189.96C459.666 190.83 459.359 191.736 459.134 192.628C458.825 192.7 458.543 192.889 458.365 193.174C458.011 193.742 458.197 194.484 458.781 194.829C459.364 195.173 460.124 194.992 460.478 194.424C460.832 193.856 460.647 193.115 460.064 192.77C459.997 192.73 459.927 192.698 459.856 192.672C460.067 191.864 460.351 191.046 460.736 190.261C461.068 189.585 461.477 188.932 461.982 188.33C462.187 188.518 462.415 188.688 462.666 188.837C462.88 188.964 463.102 189.069 463.328 189.153C463.213 189.891 463.191 190.626 463.238 191.345C463.305 192.396 463.518 193.418 463.803 194.375C463.729 194.445 463.662 194.525 463.606 194.615C463.252 195.182 463.438 195.924 464.022 196.269C464.605 196.614 465.365 196.433 465.719 195.865C466.073 195.296 465.887 194.555 465.304 194.21C465.038 194.053 464.736 194.005 464.451 194.053C464.199 193.18 464.013 192.251 463.952 191.301C463.91 190.656 463.927 190.001 464.022 189.345C464.505 189.433 464.996 189.435 465.472 189.355C465.722 190.179 466.084 190.946 466.515 191.657C466.995 192.446 467.563 193.166 468.161 193.817C467.893 194.367 468.091 195.037 468.637 195.36C469.22 195.705 469.981 195.524 470.335 194.956C470.689 194.387 470.503 193.646 469.92 193.301C469.515 193.061 469.024 193.077 468.643 193.299C468.09 192.692 467.569 192.026 467.129 191.303C466.73 190.646 466.396 189.938 466.164 189.178C466.778 188.962 467.342 188.602 467.797 188.111C468.529 188.727 469.334 189.213 470.17 189.596C470.996 189.975 471.854 190.255 472.701 190.464C472.763 190.788 472.962 191.087 473.275 191.272C473.858 191.617 474.618 191.436 474.972 190.868C475.327 190.299 475.141 189.558 474.558 189.213C473.974 188.868 473.213 189.049 472.859 189.618C472.829 189.665 472.803 189.715 472.781 189.764C472.006 189.569 471.225 189.311 470.474 188.966C469.68 188.602 468.918 188.141 468.229 187.555L468.26 187.506C468.61 186.945 468.799 186.334 468.842 185.722C469.679 185.759 470.499 185.69 471.292 185.543C472.118 185.391 472.913 185.156 473.667 184.874C473.743 184.954 473.831 185.025 473.931 185.084C474.514 185.429 475.275 185.248 475.629 184.68C475.983 184.111 475.797 183.37 475.214 183.025C474.631 182.68 473.87 182.861 473.516 183.43C473.357 183.684 473.307 183.973 473.352 184.245C472.653 184.504 471.917 184.719 471.159 184.859C470.404 184.998 469.623 185.063 468.828 185.023C468.769 184.482 468.595 183.956 468.317 183.48C468.9 183.069 469.45 182.638 469.964 182.186C470.693 181.543 471.351 180.856 471.934 180.125C472.437 180.234 472.978 180.027 473.26 179.574C473.614 179.006 473.428 178.265 472.845 177.92C472.261 177.575 471.501 177.756 471.147 178.325C470.851 178.799 470.932 179.393 471.306 179.777C470.766 180.446 470.157 181.076 469.484 181.669C468.994 182.101 468.468 182.513 467.91 182.907C467.629 182.578 467.289 182.288 466.893 182.054Z" fill="#FAB000"/>
<path fill-rule="evenodd" clip-rule="evenodd" d="M465.705 182.495C465.597 182.46 465.486 182.431 465.376 182.408C465.465 181.606 465.41 180.821 465.262 180.067C465.138 179.441 464.948 178.835 464.721 178.26C464.835 178.155 464.924 178.022 464.976 177.867C465.145 177.367 464.866 176.829 464.354 176.665C463.841 176.501 463.289 176.773 463.12 177.272C462.952 177.771 463.231 178.309 463.743 178.473C463.901 178.524 464.062 178.533 464.215 178.507C464.422 179.038 464.594 179.596 464.708 180.171C464.845 180.87 464.896 181.598 464.816 182.339C464.297 182.321 463.788 182.426 463.331 182.636C463.03 182.05 462.656 181.519 462.239 181.037C461.786 180.516 461.282 180.053 460.76 179.641C460.896 179.155 460.619 178.645 460.123 178.486C459.61 178.322 459.058 178.594 458.889 179.093C458.721 179.593 459 180.131 459.513 180.295C459.85 180.403 460.205 180.322 460.456 180.111C460.934 180.493 461.394 180.919 461.807 181.394C462.204 181.852 462.558 182.357 462.841 182.914C462.575 183.097 462.337 183.32 462.136 183.577C461.564 183.237 460.961 182.981 460.347 182.789C459.513 182.529 458.66 182.387 457.839 182.318C457.726 182.1 457.528 181.924 457.272 181.842C456.759 181.678 456.207 181.95 456.038 182.449C455.87 182.948 456.149 183.487 456.662 183.651C457.174 183.815 457.726 183.543 457.895 183.044C457.913 182.989 457.926 182.933 457.934 182.878C458.673 182.948 459.434 183.08 460.173 183.311C460.744 183.49 461.305 183.728 461.836 184.042C461.76 184.186 461.695 184.337 461.642 184.495C461.569 184.712 461.522 184.932 461.498 185.15C460.774 185.258 460.089 185.464 459.447 185.737C458.732 186.041 458.07 186.425 457.467 186.84C457.399 186.798 457.325 186.764 457.246 186.738C456.733 186.574 456.18 186.846 456.012 187.345C455.844 187.844 456.123 188.382 456.635 188.547C457.147 188.711 457.7 188.439 457.868 187.94C457.946 187.708 457.928 187.468 457.835 187.261C458.4 186.875 459.015 186.521 459.672 186.242C460.244 185.999 460.851 185.813 461.489 185.709C461.514 186.029 461.59 186.341 461.71 186.634C461.151 187.023 460.663 187.477 460.234 187.968C459.685 188.596 459.235 189.282 458.86 189.969C458.43 189.946 458.02 190.204 457.879 190.622C457.711 191.121 457.99 191.66 458.502 191.824C459.014 191.988 459.567 191.716 459.735 191.217C459.869 190.82 459.72 190.398 459.395 190.159C459.746 189.525 460.163 188.895 460.664 188.323C461.045 187.887 461.477 187.482 461.967 187.13C462.14 187.402 462.357 187.649 462.61 187.86C462.289 188.476 462.067 189.119 461.92 189.766C461.751 190.51 461.681 191.261 461.671 191.988C461.446 192.097 461.264 192.291 461.179 192.542C461.011 193.041 461.29 193.58 461.803 193.744C462.315 193.908 462.867 193.636 463.036 193.137C463.204 192.638 462.925 192.099 462.413 191.935C462.354 191.916 462.295 191.903 462.235 191.896C462.25 191.237 462.318 190.558 462.471 189.886C462.602 189.307 462.797 188.734 463.076 188.182C463.268 188.292 463.475 188.383 463.695 188.453C463.883 188.514 464.073 188.556 464.263 188.582C464.31 189.17 464.428 189.74 464.595 190.285C464.84 191.083 465.191 191.832 465.586 192.52C465.542 192.587 465.506 192.66 465.479 192.739C465.311 193.237 465.59 193.776 466.102 193.94C466.614 194.104 467.167 193.832 467.335 193.333C467.504 192.834 467.225 192.296 466.713 192.131C466.479 192.057 466.237 192.073 466.027 192.159C465.672 191.53 465.359 190.848 465.137 190.127C464.987 189.638 464.88 189.131 464.832 188.608C465.221 188.592 465.6 188.508 465.951 188.364C466.294 188.954 466.714 189.482 467.177 189.954C467.691 190.479 468.26 190.934 468.84 191.331C468.735 191.801 469.009 192.282 469.489 192.436C470.002 192.6 470.554 192.328 470.723 191.829C470.891 191.33 470.612 190.792 470.1 190.628C469.743 190.513 469.369 190.611 469.116 190.847C468.579 190.476 468.055 190.055 467.584 189.574C467.156 189.138 466.769 188.651 466.451 188.106C466.884 187.833 467.252 187.457 467.513 187C468.189 187.347 468.898 187.581 469.612 187.731C470.318 187.878 471.03 187.944 471.72 187.958C471.828 188.197 472.036 188.392 472.31 188.481C472.822 188.645 473.375 188.372 473.543 187.874C473.712 187.374 473.433 186.836 472.921 186.672C472.408 186.508 471.856 186.78 471.687 187.279C471.673 187.321 471.662 187.363 471.654 187.406C471.021 187.39 470.372 187.327 469.731 187.192C469.053 187.05 468.381 186.828 467.743 186.497L467.758 186.454C467.924 185.961 467.958 185.457 467.879 184.978C468.53 184.862 469.149 184.665 469.733 184.414C470.34 184.153 470.91 183.834 471.439 183.486C471.512 183.534 471.593 183.573 471.681 183.601C472.193 183.765 472.745 183.493 472.914 182.995C473.082 182.495 472.803 181.957 472.291 181.793C471.778 181.629 471.226 181.9 471.057 182.4C470.982 182.623 470.996 182.855 471.081 183.057C470.59 183.377 470.063 183.671 469.505 183.911C468.949 184.15 468.36 184.335 467.741 184.443C467.595 184.037 467.365 183.662 467.064 183.344C467.437 182.927 467.781 182.498 468.094 182.061C468.538 181.439 468.919 180.795 469.233 180.13C469.64 180.126 470.019 179.874 470.153 179.476C470.321 178.977 470.043 178.438 469.53 178.274C469.018 178.11 468.465 178.382 468.297 178.882C468.156 179.298 468.328 179.741 468.686 179.972C468.393 180.582 468.039 181.173 467.63 181.747C467.332 182.164 467.003 182.573 466.645 182.974C466.369 182.77 466.053 182.606 465.705 182.495Z" fill="#F07C00"/>
<path d="M0.917996 202.361C-1.88067 204.972 1.56466 213.977 13.3953 217.377C23.2607 220.213 42.7713 197.656 42.7713 197.656C35.8447 195.736 29.8233 195 24.662 195C10.6207 195.001 2.962 200.453 0.917996 202.361Z" fill="url(#paint0_linear_3209_17885)"/>
<path d="M59.354 59.6303C48.2823 62.4737 42 99 42 99C70.7714 91.285 79.2178 79.4533 81.1086 75.1267C84.0554 68.3831 75.3916 58.9992 64.3071 59C62.6986 59 61.0365 59.1985 59.354 59.6303Z" fill="url(#paint1_linear_3209_17885)"/>
<path d="M121.681 179.966C130.335 191.129 149.617 182.362 149.443 167.025C149.272 151.684 113.926 145.788 113.926 145.788L113 145C113 145 115.043 171.4 121.681 179.966Z" fill="url(#paint2_linear_3209_17885)"/>
<path d="M220.583 47.7813C224.171 50.5867 234.306 45.0774 236.315 30.7787C237.993 18.8547 207.766 0 207.766 0C203.696 31.1013 216.99 44.972 220.583 47.7813Z" fill="url(#paint3_linear_3209_17885)"/>
<path d="M237.422 201.774L253.945 208.506C251.154 204.296 249.075 200.501 247.554 197.089C241.487 188.656 234.793 184.004 228.317 184.004C220.709 184.004 216 190.326 216 196.185C216 200.023 217.906 203.536 221.365 206.076C225.569 209.16 232.026 210.793 240.035 210.793C242.717 210.793 245.615 210.592 248.66 210.234C250.102 209.969 251.607 209.726 253.178 209.51L236.941 202.894C236.624 202.766 236.473 202.409 236.606 202.1C236.741 201.789 237.107 201.646 237.422 201.774Z" fill="#FFA3CC"/>
<path d="M259.304 212.063C258.439 211.711 257.555 211.325 256.671 210.938L262.863 226.496C262.988 226.81 262.829 227.161 262.507 227.283C262.433 227.31 262.357 227.324 262.283 227.324C262.032 227.324 261.797 227.176 261.701 226.935L255.864 212.271C255.762 212.97 255.655 213.645 255.543 214.311C253.436 231.003 257.008 239.33 260.559 243.415C263.127 246.373 266.551 248 270.201 248C276.045 248 281.313 243.873 282.457 238.401C283.179 234.941 283.463 223.224 259.304 212.063Z" fill="#FFA3CC"/>
<path d="M280.933 215.877C288.098 215.877 293.487 213.44 296.113 209.01C298.306 205.31 298.267 200.647 296.011 196.84C293.769 193.057 289.766 190.886 285.028 190.886C277.79 190.886 269.277 195.831 260.647 204.93C259.586 206.224 258.422 207.56 257.164 208.934L274.805 205.984C275.144 205.931 275.468 206.151 275.524 206.481C275.584 206.812 275.355 207.126 275.014 207.184L257.822 210.058C258.509 210.359 259.175 210.66 259.828 210.96C267.843 214.221 274.929 215.876 280.927 215.877H280.933Z" fill="#FFA3CC"/>
<path d="M233.884 243.004C237.682 243.004 249.916 240.816 254.327 214.023C254.437 213.154 254.571 212.252 254.712 211.338L243.667 220.714C243.548 220.815 243.402 220.863 243.257 220.863C243.083 220.863 242.909 220.794 242.787 220.654C242.56 220.401 242.587 220.017 242.846 219.798L253.479 210.774C251.904 211.034 250.365 211.256 248.867 211.433C228.194 215.245 221.069 224.103 221.524 231.622C221.904 237.896 227.45 243.004 233.884 243.004Z" fill="#FFA3CC"/>
<path d="M256.068 208.201C257.288 206.755 258.481 205.414 259.647 204.174C268.969 192.735 272.445 182.341 269.185 175.107C267.211 170.725 262.862 167.999 257.836 167.999C253.199 167.999 249.134 170.369 246.964 174.335C245.093 177.754 243.43 184.593 248.515 196.209C250.557 199.053 252.634 202.481 254.705 206.605L253.679 192.043C253.655 191.709 253.914 191.419 254.259 191.396C254.602 191.369 254.9 191.626 254.923 191.96L256.068 208.201Z" fill="#FFA3CC"/>
<defs>
<linearGradient id="paint0_linear_3209_17885" x1="11.1608" y1="206.983" x2="38.4227" y2="204.651" gradientUnits="userSpaceOnUse">
<stop stop-color="#FBD7EA"/>
<stop offset="1" stop-color="#FFA3CC"/>
</linearGradient>
<linearGradient id="paint1_linear_3209_17885" x1="67.6804" y1="70.7147" x2="41.1611" y2="86.8637" gradientUnits="userSpaceOnUse">
<stop stop-color="#FBD7EA"/>
<stop offset="1" stop-color="#FFA3CC"/>
</linearGradient>
<linearGradient id="paint2_linear_3209_17885" x1="135.382" y1="171.029" x2="106.792" y2="145.78" gradientUnits="userSpaceOnUse">
<stop stop-color="#FBD7EA"/>
<stop offset="1" stop-color="#FFA3CC"/>
</linearGradient>
<linearGradient id="paint3_linear_3209_17885" x1="224.323" y1="35.114" x2="217.207" y2="3.78808" gradientUnits="userSpaceOnUse">
<stop stop-color="#FBD7EA"/>
<stop offset="1" stop-color="#FFA3CC"/>
</linearGradient>
</defs>
</svg>
