<svg width="518" height="85" viewBox="0 0 518 85" fill="none" xmlns="http://www.w3.org/2000/svg">
<g filter="url(#filter0_d_3212_5686)">
<mask id="path-1-outside-1_3212_5686" maskUnits="userSpaceOnUse" x="110" y="12" width="404" height="59" fill="black">
<rect fill="white" x="110" y="12" width="404" height="59"/>
<path d="M133.88 28.8779C133.56 26.8727 132.992 25.2077 132.176 23.8828C131.36 22.5221 130.313 21.5016 129.035 20.8213C127.793 20.1409 126.338 19.8187 124.67 19.8545C123.144 19.8545 121.795 20.2842 120.624 21.1436C119.488 22.0029 118.921 23.113 118.921 24.4736C118.921 25.5837 119.222 26.5505 119.826 27.374C120.464 28.1976 121.423 28.9674 122.7 29.6836C123.978 30.3997 125.593 31.1696 127.545 31.9932C128.893 32.5303 130.277 33.1569 131.697 33.873C133.117 34.5892 134.43 35.4486 135.636 36.4512C136.843 37.418 137.819 38.5638 138.564 39.8887C139.31 41.1777 139.682 42.6995 139.682 44.4541C139.682 46.5667 139.115 48.4466 137.979 50.0938C136.843 51.7409 135.246 53.0299 133.188 53.9609C131.165 54.8561 128.787 55.3037 126.054 55.3037C124.635 55.3037 123.091 55.071 121.423 54.6055C119.79 54.1758 118.246 53.5312 116.791 52.6719L116.951 54.9277H112.852V42.3594H116.365C116.862 45.3672 117.998 47.641 119.772 49.1807C121.582 50.6846 123.73 51.4365 126.214 51.4365C127.491 51.4365 128.609 51.2038 129.568 50.7383C130.526 50.2728 131.271 49.6641 131.804 48.9121C132.336 48.1243 132.602 47.2829 132.602 46.3877C132.602 45.1344 132.158 44.096 131.271 43.2725C130.419 42.4489 129.337 41.7507 128.024 41.1777C126.746 40.6048 125.433 40.0498 124.084 39.5127C122.381 38.7965 120.784 38.0446 119.293 37.2568C117.838 36.4333 116.56 35.5023 115.46 34.4639C114.36 33.4255 113.508 32.2438 112.905 30.9189C112.302 29.5583 112 28.0007 112 26.2461C112 25.1361 112.213 23.9902 112.639 22.8086C113.065 21.5911 113.757 20.4811 114.715 19.4785C115.673 18.4401 116.951 17.5986 118.548 16.9541C120.145 16.3096 122.115 15.9873 124.457 15.9873C125.877 15.9873 127.42 16.2021 129.089 16.6318C130.792 17.0615 132.247 17.7061 133.454 18.5654L133.241 16.3633H137.393V28.8779H133.88Z"/>
<path d="M144.787 68.1406V64.6494C145.781 64.6494 146.491 64.4525 146.917 64.0586C147.378 63.6647 147.662 63.0918 147.768 62.3398C147.91 61.6237 147.981 60.8001 147.981 59.8691V37.1494C147.981 36.5049 147.999 35.7887 148.034 35.001C148.07 34.1774 148.123 33.3717 148.194 32.584C147.626 32.6198 146.952 32.6556 146.171 32.6914C145.39 32.6914 144.805 32.7093 144.414 32.7451V28.6631C146.083 28.6631 147.467 28.5736 148.567 28.3945C149.703 28.2155 150.59 28.0007 151.229 27.75C151.903 27.4993 152.364 27.2666 152.613 27.0518H155.221C155.292 27.4098 155.345 27.8574 155.381 28.3945C155.416 28.8958 155.452 29.3076 155.487 29.6299C156.73 28.5557 157.954 27.8037 159.161 27.374C160.403 26.9443 161.574 26.7295 162.674 26.7295C164.804 26.7295 166.667 27.2845 168.264 28.3945C169.896 29.5046 171.156 31.0801 172.044 33.1211C172.966 35.1621 173.428 37.5612 173.428 40.3184C173.428 43.1829 172.878 45.7611 171.777 48.0527C170.677 50.3086 169.133 52.0811 167.146 53.3701C165.194 54.6592 162.887 55.3037 160.225 55.3037C159.267 55.3037 158.398 55.1963 157.617 54.9814C156.872 54.8024 156.162 54.5876 155.487 54.3369V59.4932C155.487 59.9945 155.47 60.6927 155.434 61.5879C155.434 62.5189 155.399 63.3962 155.328 64.2197C155.896 64.1481 156.517 64.0944 157.191 64.0586C157.865 64.0586 158.38 64.0586 158.735 64.0586V68.1406H144.787ZM159.374 51.2754C161.006 51.2396 162.266 50.7562 163.153 49.8252C164.076 48.8584 164.715 47.6051 165.07 46.0654C165.425 44.5257 165.602 42.8786 165.602 41.124C165.602 39.4769 165.407 37.9193 165.017 36.4512C164.626 34.9831 164.005 33.8014 163.153 32.9062C162.302 31.9753 161.184 31.5277 159.799 31.5635C158.912 31.5993 158.096 31.832 157.351 32.2617C156.605 32.6556 155.984 33.2106 155.487 33.9268C155.487 35.0368 155.487 36.1468 155.487 37.2568C155.487 38.3311 155.487 39.4053 155.487 40.4795C155.487 41.5537 155.487 42.6458 155.487 43.7559C155.487 44.8301 155.487 45.9222 155.487 47.0322C155.487 48.1064 155.487 49.1986 155.487 50.3086C155.878 50.5592 156.428 50.792 157.138 51.0068C157.848 51.2217 158.593 51.3112 159.374 51.2754Z"/>
<path d="M179.421 50.9531C180.415 50.9531 181.125 50.7562 181.551 50.3623C181.977 49.9684 182.243 49.4134 182.349 48.6973C182.491 47.9453 182.562 47.1038 182.562 46.1729V37.1494C182.562 36.5049 182.58 35.7887 182.615 35.001C182.651 34.1774 182.704 33.3717 182.775 32.584C182.207 32.6198 181.533 32.6556 180.752 32.6914C180.007 32.6914 179.439 32.7093 179.049 32.7451V28.6631H181.178C182.562 28.6631 183.822 28.484 184.958 28.126C186.129 27.7679 186.892 27.4098 187.247 27.0518H189.855C189.926 27.4098 189.98 28.0902 190.015 29.0928C190.051 30.0596 190.068 30.9189 190.068 31.6709C191.027 30.4893 191.932 29.5404 192.783 28.8242C193.635 28.1081 194.469 27.5889 195.285 27.2666C196.137 26.9085 196.989 26.7295 197.841 26.7295C199.083 26.7295 200.165 27.0876 201.088 27.8037C202.011 28.484 202.472 29.612 202.472 31.1875C202.472 31.7246 202.348 32.2975 202.099 32.9062C201.851 33.4792 201.461 33.9626 200.928 34.3564C200.396 34.7503 199.668 34.9473 198.746 34.9473C198.036 34.9473 197.308 34.7324 196.563 34.3027C195.818 33.873 195.392 33.0495 195.285 31.832C194.576 31.832 193.866 32.1364 193.156 32.7451C192.446 33.318 191.807 34.0163 191.239 34.8398C190.707 35.6276 190.334 36.3617 190.122 37.042V45.7969C190.122 46.2982 190.104 47.0143 190.068 47.9453C190.033 48.8405 189.98 49.6999 189.909 50.5234C190.476 50.4518 191.098 50.416 191.772 50.416C192.482 50.3802 193.014 50.3623 193.369 50.3623V54.4443H179.421V50.9531Z"/>
<path d="M207.129 50.9531C208.122 50.9531 208.832 50.7562 209.258 50.3623C209.684 49.9684 209.95 49.4134 210.056 48.6973C210.198 47.9453 210.269 47.1038 210.269 46.1729V37.2568C210.269 36.6123 210.287 35.8783 210.323 35.0547C210.358 34.1953 210.411 33.3717 210.482 32.584C209.915 32.6198 209.24 32.6556 208.459 32.6914C207.714 32.6914 207.146 32.7093 206.756 32.7451V28.6631C208.388 28.6631 209.773 28.5736 210.908 28.3945C212.044 28.2155 212.931 28.0007 213.57 27.75C214.244 27.4993 214.706 27.2666 214.954 27.0518H217.829V45.7969C217.829 46.2982 217.811 47.0143 217.776 47.9453C217.74 48.8405 217.687 49.6999 217.616 50.5234C218.184 50.4518 218.805 50.416 219.479 50.416C220.189 50.3802 220.721 50.3623 221.076 50.3623V54.4443H207.129V50.9531ZM213.783 22.8086C212.576 22.8086 211.583 22.3789 210.802 21.5195C210.021 20.6602 209.631 19.6217 209.631 18.4043C209.631 17.1868 210.039 16.1484 210.855 15.2891C211.671 14.4297 212.63 14 213.73 14C214.865 14 215.806 14.4297 216.551 15.2891C217.332 16.1484 217.722 17.1868 217.722 18.4043C217.722 19.6217 217.367 20.6602 216.658 21.5195C215.948 22.3789 214.99 22.8086 213.783 22.8086Z"/>
<path d="M226.674 54.4443V50.9531C227.668 50.9531 228.377 50.7562 228.803 50.3623C229.229 49.9684 229.495 49.4134 229.602 48.6973C229.744 47.9453 229.815 47.1038 229.815 46.1729V37.1494C229.815 36.5049 229.832 35.7887 229.868 35.001C229.903 34.1774 229.957 33.3717 230.028 32.584C229.46 32.6198 228.785 32.6556 228.005 32.6914C227.259 32.6914 226.692 32.7093 226.301 32.7451V28.6631C227.934 28.6631 229.318 28.5736 230.454 28.3945C231.589 28.2155 232.476 28.0007 233.115 27.75C233.79 27.4993 234.251 27.2666 234.499 27.0518H237.108C237.179 27.5173 237.214 27.8574 237.214 28.0723C237.214 28.2871 237.214 28.502 237.214 28.7168C237.25 28.8958 237.321 29.236 237.427 29.7373C238.137 29.1644 238.953 28.6631 239.876 28.2334C240.799 27.7679 241.722 27.4098 242.644 27.1592C243.567 26.8727 244.383 26.7295 245.093 26.7295C248.358 26.7295 250.665 27.6784 252.014 29.5762C253.398 31.4382 254.09 34.446 254.09 38.5996V45.7969C254.09 46.2982 254.072 47.0143 254.037 47.9453C254.001 48.8405 253.948 49.6999 253.877 50.5234C254.48 50.4518 255.119 50.416 255.794 50.416C256.468 50.3802 256.982 50.3623 257.337 50.3623V54.4443H243.39V50.9531C244.383 50.9531 245.093 50.7562 245.519 50.3623C245.98 49.9684 246.264 49.4134 246.371 48.6973C246.513 47.9453 246.584 47.1038 246.584 46.1729L246.531 38.5459C246.531 36.2184 246.193 34.4997 245.519 33.3896C244.88 32.2438 243.78 31.6709 242.219 31.6709C241.331 31.6709 240.444 31.8678 239.557 32.2617C238.705 32.6556 237.977 33.1211 237.374 33.6582C237.374 34.1595 237.374 34.6787 237.374 35.2158C237.374 35.7171 237.374 36.2184 237.374 36.7197V45.7969C237.374 46.2982 237.356 47.0143 237.321 47.9453C237.285 48.8405 237.232 49.6999 237.161 50.5234C237.729 50.4518 238.35 50.416 239.024 50.416C239.734 50.3802 240.267 50.3623 240.621 50.3623V54.4443H226.674Z"/>
<path d="M274.093 69C271.041 69 268.627 68.6598 266.853 67.9795C265.078 67.335 263.818 66.4756 263.073 65.4014C262.328 64.3271 261.955 63.1813 261.955 61.9639C261.955 61.2119 262.115 60.46 262.434 59.708C262.754 58.9561 263.268 58.222 263.978 57.5059C264.723 56.8255 265.735 56.2526 267.012 55.7871C265.557 55.3932 264.528 54.7666 263.925 53.9072C263.357 53.012 263.073 52.0632 263.073 51.0605C263.073 50.1296 263.446 49.0911 264.191 47.9453C264.936 46.7637 266.285 45.8685 268.237 45.2598C266.746 44.651 265.522 43.7021 264.564 42.4131C263.605 41.124 263.091 39.5664 263.02 37.7402C262.949 35.5918 263.481 33.694 264.617 32.0469C265.753 30.3639 267.243 29.057 269.089 28.126C270.934 27.195 272.868 26.7295 274.891 26.7295C275.814 26.7295 276.879 26.8548 278.085 27.1055C279.292 27.3561 280.339 27.7858 281.226 28.3945C281.617 27.2845 282.114 26.2461 282.717 25.2793C283.356 24.2767 284.119 23.471 285.006 22.8623C285.893 22.2178 286.887 21.8955 287.987 21.8955C289.194 21.8955 290.099 22.2178 290.702 22.8623C291.341 23.471 291.66 24.2946 291.66 25.333C291.66 25.7627 291.554 26.2461 291.341 26.7832C291.164 27.2845 290.826 27.7142 290.329 28.0723C289.868 28.4303 289.212 28.6094 288.36 28.6094C287.827 28.6094 287.295 28.4124 286.763 28.0186C286.23 27.5889 285.911 27.0876 285.804 26.5146C285.343 26.6579 284.882 27.1234 284.42 27.9111C283.959 28.6989 283.693 29.3971 283.622 30.0059C284.651 30.901 285.432 31.9395 285.964 33.1211C286.497 34.3027 286.763 35.5739 286.763 36.9346C286.763 39.0114 286.177 40.8555 285.006 42.4668C283.87 44.0423 282.38 45.2956 280.534 46.2266C278.724 47.1217 276.772 47.5693 274.678 47.5693C274.217 47.5693 273.702 47.5514 273.134 47.5156C272.567 47.444 272.017 47.4082 271.484 47.4082C270.703 47.4082 270.047 47.5514 269.514 47.8379C268.982 48.1243 268.716 48.5182 268.716 49.0195C268.716 49.6999 269.231 50.1654 270.26 50.416C271.289 50.6667 273.046 50.8636 275.53 51.0068C278.263 51.1501 280.641 51.5081 282.664 52.0811C284.722 52.6182 286.319 53.4775 287.455 54.6592C288.59 55.8408 289.158 57.4701 289.158 59.5469C289.158 61.0866 288.715 62.4294 287.827 63.5752C286.94 64.7568 285.751 65.7415 284.261 66.5293C282.806 67.3529 281.191 67.9616 279.416 68.3555C277.642 68.7852 275.867 69 274.093 69ZM275.637 65.2939C278.156 65.2939 280.055 64.8285 281.333 63.8975C282.646 62.9665 283.302 61.9997 283.302 60.9971C283.302 60.2451 283.019 59.6185 282.451 59.1172C281.883 58.6517 281.031 58.2757 279.895 57.9893C278.795 57.7028 277.376 57.5238 275.637 57.4521C274.856 57.3805 273.951 57.3268 272.922 57.291C271.892 57.2552 270.987 57.1657 270.207 57.0225C269.674 57.4521 269.266 57.9893 268.982 58.6338C268.698 59.2783 268.539 59.9049 268.503 60.5137C268.432 61.946 269.035 63.0918 270.313 63.9512C271.626 64.8464 273.401 65.2939 275.637 65.2939ZM274.891 43.9707C275.849 43.9707 276.648 43.6663 277.287 43.0576C277.961 42.4489 278.458 41.679 278.777 40.748C279.132 39.8171 279.31 38.8682 279.31 37.9014C279.31 36.6481 279.15 35.4486 278.831 34.3027C278.511 33.1211 278.014 32.1722 277.34 31.4561C276.701 30.7041 275.867 30.3281 274.838 30.3281C273.418 30.3281 272.318 30.9727 271.537 32.2617C270.757 33.5508 270.366 35.0189 270.366 36.666C270.366 37.9193 270.544 39.1188 270.899 40.2647C271.254 41.3747 271.768 42.2699 272.442 42.9502C273.117 43.6305 273.933 43.9707 274.891 43.9707Z"/>
<path d="M330.061 54.9814C328.854 52.0094 327.648 49.0553 326.441 46.1191C325.27 43.1829 324.081 40.2467 322.874 37.3105C322.59 36.6302 322.218 35.6813 321.756 34.4639C321.33 33.2106 320.869 31.7783 320.372 30.167C319.911 28.5557 319.485 26.8906 319.094 25.1719C319.165 27.1771 319.219 29.0749 319.254 30.8652C319.29 32.6198 319.29 34.3027 319.254 35.9141C319.254 36.7018 319.254 37.5075 319.254 38.3311C319.254 39.1546 319.236 39.9782 319.201 40.8018C319.201 41.5895 319.201 42.3952 319.201 43.2188C319.201 44.0065 319.201 44.8122 319.201 45.6357C319.201 46.6025 319.165 47.5335 319.094 48.4287C319.059 49.3239 319.006 50.0042 318.935 50.4697C319.538 50.3981 320.266 50.3623 321.117 50.3623C322.005 50.3265 322.626 50.3086 322.981 50.3086V54.4443H310.843V50.8994C311.659 50.8636 312.334 50.7562 312.866 50.5771C313.434 50.3981 313.86 49.9863 314.144 49.3418C314.463 48.6973 314.623 47.6589 314.623 46.2266L314.942 25.6553C314.978 24.6885 315.013 23.7575 315.049 22.8623C315.084 21.9671 315.12 21.2868 315.155 20.8213C314.587 20.8571 313.877 20.8929 313.026 20.9287C312.174 20.9287 311.553 20.9466 311.162 20.9824V16.8467H322.927L330.966 37.6328C331.285 38.4564 331.64 39.4232 332.031 40.5332C332.421 41.6074 332.794 42.6637 333.149 43.7021C333.503 44.7048 333.77 45.5104 333.947 46.1191H334C334.462 44.8659 334.888 43.6484 335.278 42.4668C335.668 41.2852 336.076 40.1393 336.502 39.0293C337.886 35.3053 339.253 31.5993 340.601 27.9111C341.986 24.223 343.37 20.5348 344.754 16.8467H357.051V20.3916C356.27 20.4274 355.578 20.5348 354.975 20.7139C354.372 20.8929 353.91 21.3047 353.591 21.9492C353.307 22.5579 353.183 23.5964 353.218 25.0645L354.017 45.6357C354.088 46.6025 354.088 47.5335 354.017 48.4287C353.946 49.3239 353.875 50.0042 353.804 50.4697C354.407 50.3981 355.135 50.3623 355.986 50.3623C356.874 50.3265 357.495 50.3086 357.85 50.3086V54.4443H343.05V50.8994C343.867 50.8636 344.559 50.7562 345.126 50.5771C345.73 50.3981 346.173 49.9863 346.457 49.3418C346.777 48.6973 346.901 47.6589 346.83 46.2266L346.404 34.8398C346.404 34.4102 346.369 33.6761 346.298 32.6377C346.227 31.5635 346.156 30.3997 346.085 29.1465C346.049 27.8574 346.014 26.6579 345.978 25.5478C345.872 25.7985 345.765 26.0492 345.659 26.2998C345.552 26.5146 345.464 26.7474 345.393 26.998L335.012 54.9814H330.061Z"/>
<path d="M375.802 55.3037C373.211 55.3037 370.922 54.7308 368.934 53.585C366.947 52.4033 365.403 50.7562 364.303 48.6436C363.203 46.4951 362.653 43.9707 362.653 41.0703C362.653 38.5638 363.203 36.2184 364.303 34.0342C365.403 31.8499 366.947 30.0954 368.934 28.7705C370.957 27.4098 373.3 26.7295 375.961 26.7295C377.452 26.7295 378.907 26.9443 380.327 27.374C381.746 27.7679 383.024 28.4661 384.16 29.4687C385.331 30.4714 386.254 31.832 386.928 33.5508C387.638 35.2695 387.975 37.418 387.939 39.9961L370.478 40.3184C370.478 42.252 370.709 43.9886 371.17 45.5283C371.667 47.068 372.466 48.2855 373.566 49.1807C374.666 50.0758 376.139 50.5234 377.984 50.5234C378.694 50.5234 379.493 50.3981 380.38 50.1475C381.303 49.8968 382.225 49.485 383.148 48.9121C384.106 48.3034 384.994 47.4977 385.81 46.4951L388.205 48.751C386.928 50.5771 385.561 51.9736 384.106 52.9404C382.651 53.8714 381.196 54.498 379.741 54.8203C378.321 55.1426 377.008 55.3037 375.802 55.3037ZM370.798 36.5586H380.593C380.557 35.0547 380.344 33.873 379.954 33.0137C379.599 32.1185 379.102 31.474 378.463 31.0801C377.825 30.6862 377.079 30.4893 376.228 30.4893C374.666 30.4893 373.442 31.0622 372.554 32.208C371.667 33.318 371.081 34.7682 370.798 36.5586Z"/>
<path d="M406.576 55.3037C403.985 55.3037 401.696 54.7308 399.709 53.585C397.721 52.4033 396.178 50.7562 395.077 48.6436C393.977 46.4951 393.427 43.9707 393.427 41.0703C393.427 38.5638 393.977 36.2184 395.077 34.0342C396.178 31.8499 397.721 30.0954 399.709 28.7705C401.732 27.4098 404.074 26.7295 406.736 26.7295C408.227 26.7295 409.682 26.9443 411.101 27.374C412.521 27.7679 413.798 28.4661 414.934 29.4687C416.105 30.4714 417.028 31.832 417.702 33.5508C418.412 35.2695 418.749 37.418 418.714 39.9961L401.253 40.3184C401.253 42.252 401.483 43.9886 401.945 45.5283C402.442 47.068 403.24 48.2855 404.34 49.1807C405.441 50.0758 406.913 50.5234 408.759 50.5234C409.469 50.5234 410.267 50.3981 411.154 50.1475C412.077 49.8968 413 49.485 413.923 48.9121C414.881 48.3034 415.768 47.4977 416.584 46.4951L418.98 48.751C417.702 50.5771 416.336 51.9736 414.881 52.9404C413.426 53.8714 411.971 54.498 410.516 54.8203C409.096 55.1426 407.783 55.3037 406.576 55.3037ZM401.572 36.5586H411.367C411.332 35.0547 411.119 33.873 410.729 33.0137C410.374 32.1185 409.877 31.474 409.238 31.0801C408.599 30.6862 407.854 30.4893 407.002 30.4893C405.441 30.4893 404.216 31.0622 403.329 32.208C402.442 33.318 401.856 34.7682 401.572 36.5586Z"/>
<path d="M435.275 55.3037C434.21 55.3037 433.181 55.1784 432.187 54.9277C431.229 54.6771 430.342 54.2116 429.525 53.5312C428.744 52.8151 428.123 51.7767 427.662 50.416C427.201 49.0553 426.97 47.2471 426.97 44.9912L427.076 32.0469H423.456V27.5889C424.557 27.5531 425.621 27.1771 426.651 26.4609C427.68 25.7448 428.549 24.8138 429.259 23.668C430.004 22.5221 430.501 21.3226 430.75 20.0693H434.689L434.636 27.5889H441.397V31.7246L434.636 31.8857L434.583 45.0986C434.583 45.9222 434.654 46.7458 434.796 47.5693C434.973 48.3571 435.292 49.0195 435.754 49.5566C436.215 50.0579 436.889 50.3086 437.777 50.3086C438.274 50.3086 438.948 50.1296 439.8 49.7715C440.687 49.4134 441.627 48.5182 442.621 47.0859L445.176 49.5029C444.218 50.9352 443.224 52.0452 442.195 52.833C441.166 53.6208 440.172 54.1937 439.214 54.5518C438.291 54.9098 437.475 55.1247 436.765 55.1963C436.055 55.2679 435.559 55.3037 435.275 55.3037Z"/>
<path d="M459.874 55.3037C457.745 55.3037 456.023 54.8919 454.71 54.0684C453.432 53.2448 452.492 51.9557 451.889 50.2012C451.321 48.4466 451.037 46.1908 451.037 43.4336V37.2568C451.037 36.6123 451.055 35.8783 451.09 35.0547C451.126 34.1953 451.161 33.3717 451.197 32.584C450.629 32.6198 449.954 32.6556 449.174 32.6914C448.428 32.6914 447.86 32.7093 447.47 32.7451V28.6631H448.002C450.203 28.6631 451.942 28.484 453.22 28.126C454.497 27.7679 455.313 27.4098 455.668 27.0518H458.596V43.4873C458.596 45.8148 458.898 47.5514 459.501 48.6973C460.105 49.8073 461.063 50.3623 462.376 50.3623C463.299 50.3623 464.221 50.1117 465.144 49.6104C466.102 49.0732 466.883 48.4645 467.487 47.7842V37.2568C467.487 36.6123 467.504 35.8783 467.54 35.0547C467.575 34.1953 467.629 33.3717 467.699 32.584C467.132 32.6198 466.457 32.6556 465.677 32.6914C464.931 32.6914 464.363 32.7093 463.973 32.7451V28.6631H465.251C466.919 28.6631 468.392 28.484 469.669 28.126C470.947 27.7321 471.763 27.374 472.118 27.0518H475.046V45.7969C475.046 46.2982 475.028 47.0143 474.993 47.9453C474.957 48.8405 474.904 49.6999 474.833 50.5234C475.401 50.4518 476.022 50.416 476.696 50.416C477.406 50.3802 477.938 50.3623 478.293 50.3623V54.4443H468.179C468.143 53.9788 468.09 53.5133 468.019 53.0479C467.983 52.5824 467.93 52.1169 467.859 51.6514C466.759 52.5824 465.57 53.4238 464.292 54.1758C463.05 54.9277 461.577 55.3037 459.874 55.3037Z"/>
<path d="M483.359 68.1406V64.6494C484.353 64.6494 485.063 64.4525 485.489 64.0586C485.95 63.6647 486.234 63.0918 486.341 62.3398C486.483 61.6237 486.554 60.8001 486.554 59.8691V37.1494C486.554 36.5049 486.571 35.7887 486.607 35.001C486.642 34.1774 486.695 33.3717 486.766 32.584C486.199 32.6198 485.524 32.6556 484.744 32.6914C483.963 32.6914 483.377 32.7093 482.987 32.7451V28.6631C484.655 28.6631 486.039 28.5736 487.139 28.3945C488.275 28.2155 489.162 28.0007 489.801 27.75C490.475 27.4993 490.937 27.2666 491.185 27.0518H493.794C493.865 27.4098 493.918 27.8574 493.953 28.3945C493.989 28.8958 494.024 29.3076 494.06 29.6299C495.302 28.5557 496.526 27.8037 497.733 27.374C498.975 26.9443 500.146 26.7295 501.246 26.7295C503.376 26.7295 505.239 27.2845 506.836 28.3945C508.469 29.5046 509.729 31.0801 510.616 33.1211C511.539 35.1621 512 37.5612 512 40.3184C512 43.1829 511.45 45.7611 510.35 48.0527C509.25 50.3086 507.706 52.0811 505.718 53.3701C503.766 54.6592 501.459 55.3037 498.798 55.3037C497.839 55.3037 496.97 55.1963 496.189 54.9814C495.444 54.8024 494.734 54.5876 494.06 54.3369V59.4932C494.06 59.9945 494.042 60.6927 494.006 61.5879C494.006 62.5189 493.971 63.3962 493.9 64.2197C494.468 64.1481 495.089 64.0944 495.763 64.0586C496.438 64.0586 496.952 64.0586 497.307 64.0586V68.1406H483.359ZM497.946 51.2754C499.578 51.2396 500.838 50.7562 501.726 49.8252C502.648 48.8584 503.287 47.6051 503.642 46.0654C503.997 44.5257 504.174 42.8786 504.174 41.124C504.174 39.4769 503.979 37.9193 503.589 36.4512C503.198 34.9831 502.577 33.8014 501.726 32.9062C500.874 31.9753 499.756 31.5277 498.372 31.5635C497.485 31.5993 496.668 31.832 495.923 32.2617C495.178 32.6556 494.557 33.2106 494.06 33.9268C494.06 35.0368 494.06 36.1468 494.06 37.2568C494.06 38.3311 494.06 39.4053 494.06 40.4795C494.06 41.5537 494.06 42.6458 494.06 43.7559C494.06 44.8301 494.06 45.9222 494.06 47.0322C494.06 48.1064 494.06 49.1986 494.06 50.3086C494.45 50.5592 495 50.792 495.71 51.0068C496.42 51.2217 497.165 51.3112 497.946 51.2754Z"/>
</mask>
<path d="M133.88 28.8779C133.56 26.8727 132.992 25.2077 132.176 23.8828C131.36 22.5221 130.313 21.5016 129.035 20.8213C127.793 20.1409 126.338 19.8187 124.67 19.8545C123.144 19.8545 121.795 20.2842 120.624 21.1436C119.488 22.0029 118.921 23.113 118.921 24.4736C118.921 25.5837 119.222 26.5505 119.826 27.374C120.464 28.1976 121.423 28.9674 122.7 29.6836C123.978 30.3997 125.593 31.1696 127.545 31.9932C128.893 32.5303 130.277 33.1569 131.697 33.873C133.117 34.5892 134.43 35.4486 135.636 36.4512C136.843 37.418 137.819 38.5638 138.564 39.8887C139.31 41.1777 139.682 42.6995 139.682 44.4541C139.682 46.5667 139.115 48.4466 137.979 50.0938C136.843 51.7409 135.246 53.0299 133.188 53.9609C131.165 54.8561 128.787 55.3037 126.054 55.3037C124.635 55.3037 123.091 55.071 121.423 54.6055C119.79 54.1758 118.246 53.5312 116.791 52.6719L116.951 54.9277H112.852V42.3594H116.365C116.862 45.3672 117.998 47.641 119.772 49.1807C121.582 50.6846 123.73 51.4365 126.214 51.4365C127.491 51.4365 128.609 51.2038 129.568 50.7383C130.526 50.2728 131.271 49.6641 131.804 48.9121C132.336 48.1243 132.602 47.2829 132.602 46.3877C132.602 45.1344 132.158 44.096 131.271 43.2725C130.419 42.4489 129.337 41.7507 128.024 41.1777C126.746 40.6048 125.433 40.0498 124.084 39.5127C122.381 38.7965 120.784 38.0446 119.293 37.2568C117.838 36.4333 116.56 35.5023 115.46 34.4639C114.36 33.4255 113.508 32.2438 112.905 30.9189C112.302 29.5583 112 28.0007 112 26.2461C112 25.1361 112.213 23.9902 112.639 22.8086C113.065 21.5911 113.757 20.4811 114.715 19.4785C115.673 18.4401 116.951 17.5986 118.548 16.9541C120.145 16.3096 122.115 15.9873 124.457 15.9873C125.877 15.9873 127.42 16.2021 129.089 16.6318C130.792 17.0615 132.247 17.7061 133.454 18.5654L133.241 16.3633H137.393V28.8779H133.88Z" fill="url(#paint0_linear_3212_5686)"/>
<path d="M144.787 68.1406V64.6494C145.781 64.6494 146.491 64.4525 146.917 64.0586C147.378 63.6647 147.662 63.0918 147.768 62.3398C147.91 61.6237 147.981 60.8001 147.981 59.8691V37.1494C147.981 36.5049 147.999 35.7887 148.034 35.001C148.07 34.1774 148.123 33.3717 148.194 32.584C147.626 32.6198 146.952 32.6556 146.171 32.6914C145.39 32.6914 144.805 32.7093 144.414 32.7451V28.6631C146.083 28.6631 147.467 28.5736 148.567 28.3945C149.703 28.2155 150.59 28.0007 151.229 27.75C151.903 27.4993 152.364 27.2666 152.613 27.0518H155.221C155.292 27.4098 155.345 27.8574 155.381 28.3945C155.416 28.8958 155.452 29.3076 155.487 29.6299C156.73 28.5557 157.954 27.8037 159.161 27.374C160.403 26.9443 161.574 26.7295 162.674 26.7295C164.804 26.7295 166.667 27.2845 168.264 28.3945C169.896 29.5046 171.156 31.0801 172.044 33.1211C172.966 35.1621 173.428 37.5612 173.428 40.3184C173.428 43.1829 172.878 45.7611 171.777 48.0527C170.677 50.3086 169.133 52.0811 167.146 53.3701C165.194 54.6592 162.887 55.3037 160.225 55.3037C159.267 55.3037 158.398 55.1963 157.617 54.9814C156.872 54.8024 156.162 54.5876 155.487 54.3369V59.4932C155.487 59.9945 155.47 60.6927 155.434 61.5879C155.434 62.5189 155.399 63.3962 155.328 64.2197C155.896 64.1481 156.517 64.0944 157.191 64.0586C157.865 64.0586 158.38 64.0586 158.735 64.0586V68.1406H144.787ZM159.374 51.2754C161.006 51.2396 162.266 50.7562 163.153 49.8252C164.076 48.8584 164.715 47.6051 165.07 46.0654C165.425 44.5257 165.602 42.8786 165.602 41.124C165.602 39.4769 165.407 37.9193 165.017 36.4512C164.626 34.9831 164.005 33.8014 163.153 32.9062C162.302 31.9753 161.184 31.5277 159.799 31.5635C158.912 31.5993 158.096 31.832 157.351 32.2617C156.605 32.6556 155.984 33.2106 155.487 33.9268C155.487 35.0368 155.487 36.1468 155.487 37.2568C155.487 38.3311 155.487 39.4053 155.487 40.4795C155.487 41.5537 155.487 42.6458 155.487 43.7559C155.487 44.8301 155.487 45.9222 155.487 47.0322C155.487 48.1064 155.487 49.1986 155.487 50.3086C155.878 50.5592 156.428 50.792 157.138 51.0068C157.848 51.2217 158.593 51.3112 159.374 51.2754Z" fill="url(#paint1_linear_3212_5686)"/>
<path d="M179.421 50.9531C180.415 50.9531 181.125 50.7562 181.551 50.3623C181.977 49.9684 182.243 49.4134 182.349 48.6973C182.491 47.9453 182.562 47.1038 182.562 46.1729V37.1494C182.562 36.5049 182.58 35.7887 182.615 35.001C182.651 34.1774 182.704 33.3717 182.775 32.584C182.207 32.6198 181.533 32.6556 180.752 32.6914C180.007 32.6914 179.439 32.7093 179.049 32.7451V28.6631H181.178C182.562 28.6631 183.822 28.484 184.958 28.126C186.129 27.7679 186.892 27.4098 187.247 27.0518H189.855C189.926 27.4098 189.98 28.0902 190.015 29.0928C190.051 30.0596 190.068 30.9189 190.068 31.6709C191.027 30.4893 191.932 29.5404 192.783 28.8242C193.635 28.1081 194.469 27.5889 195.285 27.2666C196.137 26.9085 196.989 26.7295 197.841 26.7295C199.083 26.7295 200.165 27.0876 201.088 27.8037C202.011 28.484 202.472 29.612 202.472 31.1875C202.472 31.7246 202.348 32.2975 202.099 32.9062C201.851 33.4792 201.461 33.9626 200.928 34.3564C200.396 34.7503 199.668 34.9473 198.746 34.9473C198.036 34.9473 197.308 34.7324 196.563 34.3027C195.818 33.873 195.392 33.0495 195.285 31.832C194.576 31.832 193.866 32.1364 193.156 32.7451C192.446 33.318 191.807 34.0163 191.239 34.8398C190.707 35.6276 190.334 36.3617 190.122 37.042V45.7969C190.122 46.2982 190.104 47.0143 190.068 47.9453C190.033 48.8405 189.98 49.6999 189.909 50.5234C190.476 50.4518 191.098 50.416 191.772 50.416C192.482 50.3802 193.014 50.3623 193.369 50.3623V54.4443H179.421V50.9531Z" fill="url(#paint2_linear_3212_5686)"/>
<path d="M207.129 50.9531C208.122 50.9531 208.832 50.7562 209.258 50.3623C209.684 49.9684 209.95 49.4134 210.056 48.6973C210.198 47.9453 210.269 47.1038 210.269 46.1729V37.2568C210.269 36.6123 210.287 35.8783 210.323 35.0547C210.358 34.1953 210.411 33.3717 210.482 32.584C209.915 32.6198 209.24 32.6556 208.459 32.6914C207.714 32.6914 207.146 32.7093 206.756 32.7451V28.6631C208.388 28.6631 209.773 28.5736 210.908 28.3945C212.044 28.2155 212.931 28.0007 213.57 27.75C214.244 27.4993 214.706 27.2666 214.954 27.0518H217.829V45.7969C217.829 46.2982 217.811 47.0143 217.776 47.9453C217.74 48.8405 217.687 49.6999 217.616 50.5234C218.184 50.4518 218.805 50.416 219.479 50.416C220.189 50.3802 220.721 50.3623 221.076 50.3623V54.4443H207.129V50.9531ZM213.783 22.8086C212.576 22.8086 211.583 22.3789 210.802 21.5195C210.021 20.6602 209.631 19.6217 209.631 18.4043C209.631 17.1868 210.039 16.1484 210.855 15.2891C211.671 14.4297 212.63 14 213.73 14C214.865 14 215.806 14.4297 216.551 15.2891C217.332 16.1484 217.722 17.1868 217.722 18.4043C217.722 19.6217 217.367 20.6602 216.658 21.5195C215.948 22.3789 214.99 22.8086 213.783 22.8086Z" fill="url(#paint3_linear_3212_5686)"/>
<path d="M226.674 54.4443V50.9531C227.668 50.9531 228.377 50.7562 228.803 50.3623C229.229 49.9684 229.495 49.4134 229.602 48.6973C229.744 47.9453 229.815 47.1038 229.815 46.1729V37.1494C229.815 36.5049 229.832 35.7887 229.868 35.001C229.903 34.1774 229.957 33.3717 230.028 32.584C229.46 32.6198 228.785 32.6556 228.005 32.6914C227.259 32.6914 226.692 32.7093 226.301 32.7451V28.6631C227.934 28.6631 229.318 28.5736 230.454 28.3945C231.589 28.2155 232.476 28.0007 233.115 27.75C233.79 27.4993 234.251 27.2666 234.499 27.0518H237.108C237.179 27.5173 237.214 27.8574 237.214 28.0723C237.214 28.2871 237.214 28.502 237.214 28.7168C237.25 28.8958 237.321 29.236 237.427 29.7373C238.137 29.1644 238.953 28.6631 239.876 28.2334C240.799 27.7679 241.722 27.4098 242.644 27.1592C243.567 26.8727 244.383 26.7295 245.093 26.7295C248.358 26.7295 250.665 27.6784 252.014 29.5762C253.398 31.4382 254.09 34.446 254.09 38.5996V45.7969C254.09 46.2982 254.072 47.0143 254.037 47.9453C254.001 48.8405 253.948 49.6999 253.877 50.5234C254.48 50.4518 255.119 50.416 255.794 50.416C256.468 50.3802 256.982 50.3623 257.337 50.3623V54.4443H243.39V50.9531C244.383 50.9531 245.093 50.7562 245.519 50.3623C245.98 49.9684 246.264 49.4134 246.371 48.6973C246.513 47.9453 246.584 47.1038 246.584 46.1729L246.531 38.5459C246.531 36.2184 246.193 34.4997 245.519 33.3896C244.88 32.2438 243.78 31.6709 242.219 31.6709C241.331 31.6709 240.444 31.8678 239.557 32.2617C238.705 32.6556 237.977 33.1211 237.374 33.6582C237.374 34.1595 237.374 34.6787 237.374 35.2158C237.374 35.7171 237.374 36.2184 237.374 36.7197V45.7969C237.374 46.2982 237.356 47.0143 237.321 47.9453C237.285 48.8405 237.232 49.6999 237.161 50.5234C237.729 50.4518 238.35 50.416 239.024 50.416C239.734 50.3802 240.267 50.3623 240.621 50.3623V54.4443H226.674Z" fill="url(#paint4_linear_3212_5686)"/>
<path d="M274.093 69C271.041 69 268.627 68.6598 266.853 67.9795C265.078 67.335 263.818 66.4756 263.073 65.4014C262.328 64.3271 261.955 63.1813 261.955 61.9639C261.955 61.2119 262.115 60.46 262.434 59.708C262.754 58.9561 263.268 58.222 263.978 57.5059C264.723 56.8255 265.735 56.2526 267.012 55.7871C265.557 55.3932 264.528 54.7666 263.925 53.9072C263.357 53.012 263.073 52.0632 263.073 51.0605C263.073 50.1296 263.446 49.0911 264.191 47.9453C264.936 46.7637 266.285 45.8685 268.237 45.2598C266.746 44.651 265.522 43.7021 264.564 42.4131C263.605 41.124 263.091 39.5664 263.02 37.7402C262.949 35.5918 263.481 33.694 264.617 32.0469C265.753 30.3639 267.243 29.057 269.089 28.126C270.934 27.195 272.868 26.7295 274.891 26.7295C275.814 26.7295 276.879 26.8548 278.085 27.1055C279.292 27.3561 280.339 27.7858 281.226 28.3945C281.617 27.2845 282.114 26.2461 282.717 25.2793C283.356 24.2767 284.119 23.471 285.006 22.8623C285.893 22.2178 286.887 21.8955 287.987 21.8955C289.194 21.8955 290.099 22.2178 290.702 22.8623C291.341 23.471 291.66 24.2946 291.66 25.333C291.66 25.7627 291.554 26.2461 291.341 26.7832C291.164 27.2845 290.826 27.7142 290.329 28.0723C289.868 28.4303 289.212 28.6094 288.36 28.6094C287.827 28.6094 287.295 28.4124 286.763 28.0186C286.23 27.5889 285.911 27.0876 285.804 26.5146C285.343 26.6579 284.882 27.1234 284.42 27.9111C283.959 28.6989 283.693 29.3971 283.622 30.0059C284.651 30.901 285.432 31.9395 285.964 33.1211C286.497 34.3027 286.763 35.5739 286.763 36.9346C286.763 39.0114 286.177 40.8555 285.006 42.4668C283.87 44.0423 282.38 45.2956 280.534 46.2266C278.724 47.1217 276.772 47.5693 274.678 47.5693C274.217 47.5693 273.702 47.5514 273.134 47.5156C272.567 47.444 272.017 47.4082 271.484 47.4082C270.703 47.4082 270.047 47.5514 269.514 47.8379C268.982 48.1243 268.716 48.5182 268.716 49.0195C268.716 49.6999 269.231 50.1654 270.26 50.416C271.289 50.6667 273.046 50.8636 275.53 51.0068C278.263 51.1501 280.641 51.5081 282.664 52.0811C284.722 52.6182 286.319 53.4775 287.455 54.6592C288.59 55.8408 289.158 57.4701 289.158 59.5469C289.158 61.0866 288.715 62.4294 287.827 63.5752C286.94 64.7568 285.751 65.7415 284.261 66.5293C282.806 67.3529 281.191 67.9616 279.416 68.3555C277.642 68.7852 275.867 69 274.093 69ZM275.637 65.2939C278.156 65.2939 280.055 64.8285 281.333 63.8975C282.646 62.9665 283.302 61.9997 283.302 60.9971C283.302 60.2451 283.019 59.6185 282.451 59.1172C281.883 58.6517 281.031 58.2757 279.895 57.9893C278.795 57.7028 277.376 57.5238 275.637 57.4521C274.856 57.3805 273.951 57.3268 272.922 57.291C271.892 57.2552 270.987 57.1657 270.207 57.0225C269.674 57.4521 269.266 57.9893 268.982 58.6338C268.698 59.2783 268.539 59.9049 268.503 60.5137C268.432 61.946 269.035 63.0918 270.313 63.9512C271.626 64.8464 273.401 65.2939 275.637 65.2939ZM274.891 43.9707C275.849 43.9707 276.648 43.6663 277.287 43.0576C277.961 42.4489 278.458 41.679 278.777 40.748C279.132 39.8171 279.31 38.8682 279.31 37.9014C279.31 36.6481 279.15 35.4486 278.831 34.3027C278.511 33.1211 278.014 32.1722 277.34 31.4561C276.701 30.7041 275.867 30.3281 274.838 30.3281C273.418 30.3281 272.318 30.9727 271.537 32.2617C270.757 33.5508 270.366 35.0189 270.366 36.666C270.366 37.9193 270.544 39.1188 270.899 40.2647C271.254 41.3747 271.768 42.2699 272.442 42.9502C273.117 43.6305 273.933 43.9707 274.891 43.9707Z" fill="url(#paint5_linear_3212_5686)"/>
<path d="M330.061 54.9814C328.854 52.0094 327.648 49.0553 326.441 46.1191C325.27 43.1829 324.081 40.2467 322.874 37.3105C322.59 36.6302 322.218 35.6813 321.756 34.4639C321.33 33.2106 320.869 31.7783 320.372 30.167C319.911 28.5557 319.485 26.8906 319.094 25.1719C319.165 27.1771 319.219 29.0749 319.254 30.8652C319.29 32.6198 319.29 34.3027 319.254 35.9141C319.254 36.7018 319.254 37.5075 319.254 38.3311C319.254 39.1546 319.236 39.9782 319.201 40.8018C319.201 41.5895 319.201 42.3952 319.201 43.2188C319.201 44.0065 319.201 44.8122 319.201 45.6357C319.201 46.6025 319.165 47.5335 319.094 48.4287C319.059 49.3239 319.006 50.0042 318.935 50.4697C319.538 50.3981 320.266 50.3623 321.117 50.3623C322.005 50.3265 322.626 50.3086 322.981 50.3086V54.4443H310.843V50.8994C311.659 50.8636 312.334 50.7562 312.866 50.5771C313.434 50.3981 313.86 49.9863 314.144 49.3418C314.463 48.6973 314.623 47.6589 314.623 46.2266L314.942 25.6553C314.978 24.6885 315.013 23.7575 315.049 22.8623C315.084 21.9671 315.12 21.2868 315.155 20.8213C314.587 20.8571 313.877 20.8929 313.026 20.9287C312.174 20.9287 311.553 20.9466 311.162 20.9824V16.8467H322.927L330.966 37.6328C331.285 38.4564 331.64 39.4232 332.031 40.5332C332.421 41.6074 332.794 42.6637 333.149 43.7021C333.503 44.7048 333.77 45.5104 333.947 46.1191H334C334.462 44.8659 334.888 43.6484 335.278 42.4668C335.668 41.2852 336.076 40.1393 336.502 39.0293C337.886 35.3053 339.253 31.5993 340.601 27.9111C341.986 24.223 343.37 20.5348 344.754 16.8467H357.051V20.3916C356.27 20.4274 355.578 20.5348 354.975 20.7139C354.372 20.8929 353.91 21.3047 353.591 21.9492C353.307 22.5579 353.183 23.5964 353.218 25.0645L354.017 45.6357C354.088 46.6025 354.088 47.5335 354.017 48.4287C353.946 49.3239 353.875 50.0042 353.804 50.4697C354.407 50.3981 355.135 50.3623 355.986 50.3623C356.874 50.3265 357.495 50.3086 357.85 50.3086V54.4443H343.05V50.8994C343.867 50.8636 344.559 50.7562 345.126 50.5771C345.73 50.3981 346.173 49.9863 346.457 49.3418C346.777 48.6973 346.901 47.6589 346.83 46.2266L346.404 34.8398C346.404 34.4102 346.369 33.6761 346.298 32.6377C346.227 31.5635 346.156 30.3997 346.085 29.1465C346.049 27.8574 346.014 26.6579 345.978 25.5478C345.872 25.7985 345.765 26.0492 345.659 26.2998C345.552 26.5146 345.464 26.7474 345.393 26.998L335.012 54.9814H330.061Z" fill="url(#paint6_linear_3212_5686)"/>
<path d="M375.802 55.3037C373.211 55.3037 370.922 54.7308 368.934 53.585C366.947 52.4033 365.403 50.7562 364.303 48.6436C363.203 46.4951 362.653 43.9707 362.653 41.0703C362.653 38.5638 363.203 36.2184 364.303 34.0342C365.403 31.8499 366.947 30.0954 368.934 28.7705C370.957 27.4098 373.3 26.7295 375.961 26.7295C377.452 26.7295 378.907 26.9443 380.327 27.374C381.746 27.7679 383.024 28.4661 384.16 29.4687C385.331 30.4714 386.254 31.832 386.928 33.5508C387.638 35.2695 387.975 37.418 387.939 39.9961L370.478 40.3184C370.478 42.252 370.709 43.9886 371.17 45.5283C371.667 47.068 372.466 48.2855 373.566 49.1807C374.666 50.0758 376.139 50.5234 377.984 50.5234C378.694 50.5234 379.493 50.3981 380.38 50.1475C381.303 49.8968 382.225 49.485 383.148 48.9121C384.106 48.3034 384.994 47.4977 385.81 46.4951L388.205 48.751C386.928 50.5771 385.561 51.9736 384.106 52.9404C382.651 53.8714 381.196 54.498 379.741 54.8203C378.321 55.1426 377.008 55.3037 375.802 55.3037ZM370.798 36.5586H380.593C380.557 35.0547 380.344 33.873 379.954 33.0137C379.599 32.1185 379.102 31.474 378.463 31.0801C377.825 30.6862 377.079 30.4893 376.228 30.4893C374.666 30.4893 373.442 31.0622 372.554 32.208C371.667 33.318 371.081 34.7682 370.798 36.5586Z" fill="url(#paint7_linear_3212_5686)"/>
<path d="M406.576 55.3037C403.985 55.3037 401.696 54.7308 399.709 53.585C397.721 52.4033 396.178 50.7562 395.077 48.6436C393.977 46.4951 393.427 43.9707 393.427 41.0703C393.427 38.5638 393.977 36.2184 395.077 34.0342C396.178 31.8499 397.721 30.0954 399.709 28.7705C401.732 27.4098 404.074 26.7295 406.736 26.7295C408.227 26.7295 409.682 26.9443 411.101 27.374C412.521 27.7679 413.798 28.4661 414.934 29.4687C416.105 30.4714 417.028 31.832 417.702 33.5508C418.412 35.2695 418.749 37.418 418.714 39.9961L401.253 40.3184C401.253 42.252 401.483 43.9886 401.945 45.5283C402.442 47.068 403.24 48.2855 404.34 49.1807C405.441 50.0758 406.913 50.5234 408.759 50.5234C409.469 50.5234 410.267 50.3981 411.154 50.1475C412.077 49.8968 413 49.485 413.923 48.9121C414.881 48.3034 415.768 47.4977 416.584 46.4951L418.98 48.751C417.702 50.5771 416.336 51.9736 414.881 52.9404C413.426 53.8714 411.971 54.498 410.516 54.8203C409.096 55.1426 407.783 55.3037 406.576 55.3037ZM401.572 36.5586H411.367C411.332 35.0547 411.119 33.873 410.729 33.0137C410.374 32.1185 409.877 31.474 409.238 31.0801C408.599 30.6862 407.854 30.4893 407.002 30.4893C405.441 30.4893 404.216 31.0622 403.329 32.208C402.442 33.318 401.856 34.7682 401.572 36.5586Z" fill="url(#paint8_linear_3212_5686)"/>
<path d="M435.275 55.3037C434.21 55.3037 433.181 55.1784 432.187 54.9277C431.229 54.6771 430.342 54.2116 429.525 53.5312C428.744 52.8151 428.123 51.7767 427.662 50.416C427.201 49.0553 426.97 47.2471 426.97 44.9912L427.076 32.0469H423.456V27.5889C424.557 27.5531 425.621 27.1771 426.651 26.4609C427.68 25.7448 428.549 24.8138 429.259 23.668C430.004 22.5221 430.501 21.3226 430.75 20.0693H434.689L434.636 27.5889H441.397V31.7246L434.636 31.8857L434.583 45.0986C434.583 45.9222 434.654 46.7458 434.796 47.5693C434.973 48.3571 435.292 49.0195 435.754 49.5566C436.215 50.0579 436.889 50.3086 437.777 50.3086C438.274 50.3086 438.948 50.1296 439.8 49.7715C440.687 49.4134 441.627 48.5182 442.621 47.0859L445.176 49.5029C444.218 50.9352 443.224 52.0452 442.195 52.833C441.166 53.6208 440.172 54.1937 439.214 54.5518C438.291 54.9098 437.475 55.1247 436.765 55.1963C436.055 55.2679 435.559 55.3037 435.275 55.3037Z" fill="url(#paint9_linear_3212_5686)"/>
<path d="M459.874 55.3037C457.745 55.3037 456.023 54.8919 454.71 54.0684C453.432 53.2448 452.492 51.9557 451.889 50.2012C451.321 48.4466 451.037 46.1908 451.037 43.4336V37.2568C451.037 36.6123 451.055 35.8783 451.09 35.0547C451.126 34.1953 451.161 33.3717 451.197 32.584C450.629 32.6198 449.954 32.6556 449.174 32.6914C448.428 32.6914 447.86 32.7093 447.47 32.7451V28.6631H448.002C450.203 28.6631 451.942 28.484 453.22 28.126C454.497 27.7679 455.313 27.4098 455.668 27.0518H458.596V43.4873C458.596 45.8148 458.898 47.5514 459.501 48.6973C460.105 49.8073 461.063 50.3623 462.376 50.3623C463.299 50.3623 464.221 50.1117 465.144 49.6104C466.102 49.0732 466.883 48.4645 467.487 47.7842V37.2568C467.487 36.6123 467.504 35.8783 467.54 35.0547C467.575 34.1953 467.629 33.3717 467.699 32.584C467.132 32.6198 466.457 32.6556 465.677 32.6914C464.931 32.6914 464.363 32.7093 463.973 32.7451V28.6631H465.251C466.919 28.6631 468.392 28.484 469.669 28.126C470.947 27.7321 471.763 27.374 472.118 27.0518H475.046V45.7969C475.046 46.2982 475.028 47.0143 474.993 47.9453C474.957 48.8405 474.904 49.6999 474.833 50.5234C475.401 50.4518 476.022 50.416 476.696 50.416C477.406 50.3802 477.938 50.3623 478.293 50.3623V54.4443H468.179C468.143 53.9788 468.09 53.5133 468.019 53.0479C467.983 52.5824 467.93 52.1169 467.859 51.6514C466.759 52.5824 465.57 53.4238 464.292 54.1758C463.05 54.9277 461.577 55.3037 459.874 55.3037Z" fill="url(#paint10_linear_3212_5686)"/>
<path d="M483.359 68.1406V64.6494C484.353 64.6494 485.063 64.4525 485.489 64.0586C485.95 63.6647 486.234 63.0918 486.341 62.3398C486.483 61.6237 486.554 60.8001 486.554 59.8691V37.1494C486.554 36.5049 486.571 35.7887 486.607 35.001C486.642 34.1774 486.695 33.3717 486.766 32.584C486.199 32.6198 485.524 32.6556 484.744 32.6914C483.963 32.6914 483.377 32.7093 482.987 32.7451V28.6631C484.655 28.6631 486.039 28.5736 487.139 28.3945C488.275 28.2155 489.162 28.0007 489.801 27.75C490.475 27.4993 490.937 27.2666 491.185 27.0518H493.794C493.865 27.4098 493.918 27.8574 493.953 28.3945C493.989 28.8958 494.024 29.3076 494.06 29.6299C495.302 28.5557 496.526 27.8037 497.733 27.374C498.975 26.9443 500.146 26.7295 501.246 26.7295C503.376 26.7295 505.239 27.2845 506.836 28.3945C508.469 29.5046 509.729 31.0801 510.616 33.1211C511.539 35.1621 512 37.5612 512 40.3184C512 43.1829 511.45 45.7611 510.35 48.0527C509.25 50.3086 507.706 52.0811 505.718 53.3701C503.766 54.6592 501.459 55.3037 498.798 55.3037C497.839 55.3037 496.97 55.1963 496.189 54.9814C495.444 54.8024 494.734 54.5876 494.06 54.3369V59.4932C494.06 59.9945 494.042 60.6927 494.006 61.5879C494.006 62.5189 493.971 63.3962 493.9 64.2197C494.468 64.1481 495.089 64.0944 495.763 64.0586C496.438 64.0586 496.952 64.0586 497.307 64.0586V68.1406H483.359ZM497.946 51.2754C499.578 51.2396 500.838 50.7562 501.726 49.8252C502.648 48.8584 503.287 47.6051 503.642 46.0654C503.997 44.5257 504.174 42.8786 504.174 41.124C504.174 39.4769 503.979 37.9193 503.589 36.4512C503.198 34.9831 502.577 33.8014 501.726 32.9062C500.874 31.9753 499.756 31.5277 498.372 31.5635C497.485 31.5993 496.668 31.832 495.923 32.2617C495.178 32.6556 494.557 33.2106 494.06 33.9268C494.06 35.0368 494.06 36.1468 494.06 37.2568C494.06 38.3311 494.06 39.4053 494.06 40.4795C494.06 41.5537 494.06 42.6458 494.06 43.7559C494.06 44.8301 494.06 45.9222 494.06 47.0322C494.06 48.1064 494.06 49.1986 494.06 50.3086C494.45 50.5592 495 50.792 495.71 51.0068C496.42 51.2217 497.165 51.3112 497.946 51.2754Z" fill="url(#paint11_linear_3212_5686)"/>
<path d="M133.88 28.8779C133.56 26.8727 132.992 25.2077 132.176 23.8828C131.36 22.5221 130.313 21.5016 129.035 20.8213C127.793 20.1409 126.338 19.8187 124.67 19.8545C123.144 19.8545 121.795 20.2842 120.624 21.1436C119.488 22.0029 118.921 23.113 118.921 24.4736C118.921 25.5837 119.222 26.5505 119.826 27.374C120.464 28.1976 121.423 28.9674 122.7 29.6836C123.978 30.3997 125.593 31.1696 127.545 31.9932C128.893 32.5303 130.277 33.1569 131.697 33.873C133.117 34.5892 134.43 35.4486 135.636 36.4512C136.843 37.418 137.819 38.5638 138.564 39.8887C139.31 41.1777 139.682 42.6995 139.682 44.4541C139.682 46.5667 139.115 48.4466 137.979 50.0938C136.843 51.7409 135.246 53.0299 133.188 53.9609C131.165 54.8561 128.787 55.3037 126.054 55.3037C124.635 55.3037 123.091 55.071 121.423 54.6055C119.79 54.1758 118.246 53.5312 116.791 52.6719L116.951 54.9277H112.852V42.3594H116.365C116.862 45.3672 117.998 47.641 119.772 49.1807C121.582 50.6846 123.73 51.4365 126.214 51.4365C127.491 51.4365 128.609 51.2038 129.568 50.7383C130.526 50.2728 131.271 49.6641 131.804 48.9121C132.336 48.1243 132.602 47.2829 132.602 46.3877C132.602 45.1344 132.158 44.096 131.271 43.2725C130.419 42.4489 129.337 41.7507 128.024 41.1777C126.746 40.6048 125.433 40.0498 124.084 39.5127C122.381 38.7965 120.784 38.0446 119.293 37.2568C117.838 36.4333 116.56 35.5023 115.46 34.4639C114.36 33.4255 113.508 32.2438 112.905 30.9189C112.302 29.5583 112 28.0007 112 26.2461C112 25.1361 112.213 23.9902 112.639 22.8086C113.065 21.5911 113.757 20.4811 114.715 19.4785C115.673 18.4401 116.951 17.5986 118.548 16.9541C120.145 16.3096 122.115 15.9873 124.457 15.9873C125.877 15.9873 127.42 16.2021 129.089 16.6318C130.792 17.0615 132.247 17.7061 133.454 18.5654L133.241 16.3633H137.393V28.8779H133.88Z" stroke="white" stroke-width="3" mask="url(#path-1-outside-1_3212_5686)"/>
<path d="M144.787 68.1406V64.6494C145.781 64.6494 146.491 64.4525 146.917 64.0586C147.378 63.6647 147.662 63.0918 147.768 62.3398C147.91 61.6237 147.981 60.8001 147.981 59.8691V37.1494C147.981 36.5049 147.999 35.7887 148.034 35.001C148.07 34.1774 148.123 33.3717 148.194 32.584C147.626 32.6198 146.952 32.6556 146.171 32.6914C145.39 32.6914 144.805 32.7093 144.414 32.7451V28.6631C146.083 28.6631 147.467 28.5736 148.567 28.3945C149.703 28.2155 150.59 28.0007 151.229 27.75C151.903 27.4993 152.364 27.2666 152.613 27.0518H155.221C155.292 27.4098 155.345 27.8574 155.381 28.3945C155.416 28.8958 155.452 29.3076 155.487 29.6299C156.73 28.5557 157.954 27.8037 159.161 27.374C160.403 26.9443 161.574 26.7295 162.674 26.7295C164.804 26.7295 166.667 27.2845 168.264 28.3945C169.896 29.5046 171.156 31.0801 172.044 33.1211C172.966 35.1621 173.428 37.5612 173.428 40.3184C173.428 43.1829 172.878 45.7611 171.777 48.0527C170.677 50.3086 169.133 52.0811 167.146 53.3701C165.194 54.6592 162.887 55.3037 160.225 55.3037C159.267 55.3037 158.398 55.1963 157.617 54.9814C156.872 54.8024 156.162 54.5876 155.487 54.3369V59.4932C155.487 59.9945 155.47 60.6927 155.434 61.5879C155.434 62.5189 155.399 63.3962 155.328 64.2197C155.896 64.1481 156.517 64.0944 157.191 64.0586C157.865 64.0586 158.38 64.0586 158.735 64.0586V68.1406H144.787ZM159.374 51.2754C161.006 51.2396 162.266 50.7562 163.153 49.8252C164.076 48.8584 164.715 47.6051 165.07 46.0654C165.425 44.5257 165.602 42.8786 165.602 41.124C165.602 39.4769 165.407 37.9193 165.017 36.4512C164.626 34.9831 164.005 33.8014 163.153 32.9062C162.302 31.9753 161.184 31.5277 159.799 31.5635C158.912 31.5993 158.096 31.832 157.351 32.2617C156.605 32.6556 155.984 33.2106 155.487 33.9268C155.487 35.0368 155.487 36.1468 155.487 37.2568C155.487 38.3311 155.487 39.4053 155.487 40.4795C155.487 41.5537 155.487 42.6458 155.487 43.7559C155.487 44.8301 155.487 45.9222 155.487 47.0322C155.487 48.1064 155.487 49.1986 155.487 50.3086C155.878 50.5592 156.428 50.792 157.138 51.0068C157.848 51.2217 158.593 51.3112 159.374 51.2754Z" stroke="white" stroke-width="3" mask="url(#path-1-outside-1_3212_5686)"/>
<path d="M179.421 50.9531C180.415 50.9531 181.125 50.7562 181.551 50.3623C181.977 49.9684 182.243 49.4134 182.349 48.6973C182.491 47.9453 182.562 47.1038 182.562 46.1729V37.1494C182.562 36.5049 182.58 35.7887 182.615 35.001C182.651 34.1774 182.704 33.3717 182.775 32.584C182.207 32.6198 181.533 32.6556 180.752 32.6914C180.007 32.6914 179.439 32.7093 179.049 32.7451V28.6631H181.178C182.562 28.6631 183.822 28.484 184.958 28.126C186.129 27.7679 186.892 27.4098 187.247 27.0518H189.855C189.926 27.4098 189.98 28.0902 190.015 29.0928C190.051 30.0596 190.068 30.9189 190.068 31.6709C191.027 30.4893 191.932 29.5404 192.783 28.8242C193.635 28.1081 194.469 27.5889 195.285 27.2666C196.137 26.9085 196.989 26.7295 197.841 26.7295C199.083 26.7295 200.165 27.0876 201.088 27.8037C202.011 28.484 202.472 29.612 202.472 31.1875C202.472 31.7246 202.348 32.2975 202.099 32.9062C201.851 33.4792 201.461 33.9626 200.928 34.3564C200.396 34.7503 199.668 34.9473 198.746 34.9473C198.036 34.9473 197.308 34.7324 196.563 34.3027C195.818 33.873 195.392 33.0495 195.285 31.832C194.576 31.832 193.866 32.1364 193.156 32.7451C192.446 33.318 191.807 34.0163 191.239 34.8398C190.707 35.6276 190.334 36.3617 190.122 37.042V45.7969C190.122 46.2982 190.104 47.0143 190.068 47.9453C190.033 48.8405 189.98 49.6999 189.909 50.5234C190.476 50.4518 191.098 50.416 191.772 50.416C192.482 50.3802 193.014 50.3623 193.369 50.3623V54.4443H179.421V50.9531Z" stroke="white" stroke-width="3" mask="url(#path-1-outside-1_3212_5686)"/>
<path d="M207.129 50.9531C208.122 50.9531 208.832 50.7562 209.258 50.3623C209.684 49.9684 209.95 49.4134 210.056 48.6973C210.198 47.9453 210.269 47.1038 210.269 46.1729V37.2568C210.269 36.6123 210.287 35.8783 210.323 35.0547C210.358 34.1953 210.411 33.3717 210.482 32.584C209.915 32.6198 209.24 32.6556 208.459 32.6914C207.714 32.6914 207.146 32.7093 206.756 32.7451V28.6631C208.388 28.6631 209.773 28.5736 210.908 28.3945C212.044 28.2155 212.931 28.0007 213.57 27.75C214.244 27.4993 214.706 27.2666 214.954 27.0518H217.829V45.7969C217.829 46.2982 217.811 47.0143 217.776 47.9453C217.74 48.8405 217.687 49.6999 217.616 50.5234C218.184 50.4518 218.805 50.416 219.479 50.416C220.189 50.3802 220.721 50.3623 221.076 50.3623V54.4443H207.129V50.9531ZM213.783 22.8086C212.576 22.8086 211.583 22.3789 210.802 21.5195C210.021 20.6602 209.631 19.6217 209.631 18.4043C209.631 17.1868 210.039 16.1484 210.855 15.2891C211.671 14.4297 212.63 14 213.73 14C214.865 14 215.806 14.4297 216.551 15.2891C217.332 16.1484 217.722 17.1868 217.722 18.4043C217.722 19.6217 217.367 20.6602 216.658 21.5195C215.948 22.3789 214.99 22.8086 213.783 22.8086Z" stroke="white" stroke-width="3" mask="url(#path-1-outside-1_3212_5686)"/>
<path d="M226.674 54.4443V50.9531C227.668 50.9531 228.377 50.7562 228.803 50.3623C229.229 49.9684 229.495 49.4134 229.602 48.6973C229.744 47.9453 229.815 47.1038 229.815 46.1729V37.1494C229.815 36.5049 229.832 35.7887 229.868 35.001C229.903 34.1774 229.957 33.3717 230.028 32.584C229.46 32.6198 228.785 32.6556 228.005 32.6914C227.259 32.6914 226.692 32.7093 226.301 32.7451V28.6631C227.934 28.6631 229.318 28.5736 230.454 28.3945C231.589 28.2155 232.476 28.0007 233.115 27.75C233.79 27.4993 234.251 27.2666 234.499 27.0518H237.108C237.179 27.5173 237.214 27.8574 237.214 28.0723C237.214 28.2871 237.214 28.502 237.214 28.7168C237.25 28.8958 237.321 29.236 237.427 29.7373C238.137 29.1644 238.953 28.6631 239.876 28.2334C240.799 27.7679 241.722 27.4098 242.644 27.1592C243.567 26.8727 244.383 26.7295 245.093 26.7295C248.358 26.7295 250.665 27.6784 252.014 29.5762C253.398 31.4382 254.09 34.446 254.09 38.5996V45.7969C254.09 46.2982 254.072 47.0143 254.037 47.9453C254.001 48.8405 253.948 49.6999 253.877 50.5234C254.48 50.4518 255.119 50.416 255.794 50.416C256.468 50.3802 256.982 50.3623 257.337 50.3623V54.4443H243.39V50.9531C244.383 50.9531 245.093 50.7562 245.519 50.3623C245.98 49.9684 246.264 49.4134 246.371 48.6973C246.513 47.9453 246.584 47.1038 246.584 46.1729L246.531 38.5459C246.531 36.2184 246.193 34.4997 245.519 33.3896C244.88 32.2438 243.78 31.6709 242.219 31.6709C241.331 31.6709 240.444 31.8678 239.557 32.2617C238.705 32.6556 237.977 33.1211 237.374 33.6582C237.374 34.1595 237.374 34.6787 237.374 35.2158C237.374 35.7171 237.374 36.2184 237.374 36.7197V45.7969C237.374 46.2982 237.356 47.0143 237.321 47.9453C237.285 48.8405 237.232 49.6999 237.161 50.5234C237.729 50.4518 238.35 50.416 239.024 50.416C239.734 50.3802 240.267 50.3623 240.621 50.3623V54.4443H226.674Z" stroke="white" stroke-width="3" mask="url(#path-1-outside-1_3212_5686)"/>
<path d="M274.093 69C271.041 69 268.627 68.6598 266.853 67.9795C265.078 67.335 263.818 66.4756 263.073 65.4014C262.328 64.3271 261.955 63.1813 261.955 61.9639C261.955 61.2119 262.115 60.46 262.434 59.708C262.754 58.9561 263.268 58.222 263.978 57.5059C264.723 56.8255 265.735 56.2526 267.012 55.7871C265.557 55.3932 264.528 54.7666 263.925 53.9072C263.357 53.012 263.073 52.0632 263.073 51.0605C263.073 50.1296 263.446 49.0911 264.191 47.9453C264.936 46.7637 266.285 45.8685 268.237 45.2598C266.746 44.651 265.522 43.7021 264.564 42.4131C263.605 41.124 263.091 39.5664 263.02 37.7402C262.949 35.5918 263.481 33.694 264.617 32.0469C265.753 30.3639 267.243 29.057 269.089 28.126C270.934 27.195 272.868 26.7295 274.891 26.7295C275.814 26.7295 276.879 26.8548 278.085 27.1055C279.292 27.3561 280.339 27.7858 281.226 28.3945C281.617 27.2845 282.114 26.2461 282.717 25.2793C283.356 24.2767 284.119 23.471 285.006 22.8623C285.893 22.2178 286.887 21.8955 287.987 21.8955C289.194 21.8955 290.099 22.2178 290.702 22.8623C291.341 23.471 291.66 24.2946 291.66 25.333C291.66 25.7627 291.554 26.2461 291.341 26.7832C291.164 27.2845 290.826 27.7142 290.329 28.0723C289.868 28.4303 289.212 28.6094 288.36 28.6094C287.827 28.6094 287.295 28.4124 286.763 28.0186C286.23 27.5889 285.911 27.0876 285.804 26.5146C285.343 26.6579 284.882 27.1234 284.42 27.9111C283.959 28.6989 283.693 29.3971 283.622 30.0059C284.651 30.901 285.432 31.9395 285.964 33.1211C286.497 34.3027 286.763 35.5739 286.763 36.9346C286.763 39.0114 286.177 40.8555 285.006 42.4668C283.87 44.0423 282.38 45.2956 280.534 46.2266C278.724 47.1217 276.772 47.5693 274.678 47.5693C274.217 47.5693 273.702 47.5514 273.134 47.5156C272.567 47.444 272.017 47.4082 271.484 47.4082C270.703 47.4082 270.047 47.5514 269.514 47.8379C268.982 48.1243 268.716 48.5182 268.716 49.0195C268.716 49.6999 269.231 50.1654 270.26 50.416C271.289 50.6667 273.046 50.8636 275.53 51.0068C278.263 51.1501 280.641 51.5081 282.664 52.0811C284.722 52.6182 286.319 53.4775 287.455 54.6592C288.59 55.8408 289.158 57.4701 289.158 59.5469C289.158 61.0866 288.715 62.4294 287.827 63.5752C286.94 64.7568 285.751 65.7415 284.261 66.5293C282.806 67.3529 281.191 67.9616 279.416 68.3555C277.642 68.7852 275.867 69 274.093 69ZM275.637 65.2939C278.156 65.2939 280.055 64.8285 281.333 63.8975C282.646 62.9665 283.302 61.9997 283.302 60.9971C283.302 60.2451 283.019 59.6185 282.451 59.1172C281.883 58.6517 281.031 58.2757 279.895 57.9893C278.795 57.7028 277.376 57.5238 275.637 57.4521C274.856 57.3805 273.951 57.3268 272.922 57.291C271.892 57.2552 270.987 57.1657 270.207 57.0225C269.674 57.4521 269.266 57.9893 268.982 58.6338C268.698 59.2783 268.539 59.9049 268.503 60.5137C268.432 61.946 269.035 63.0918 270.313 63.9512C271.626 64.8464 273.401 65.2939 275.637 65.2939ZM274.891 43.9707C275.849 43.9707 276.648 43.6663 277.287 43.0576C277.961 42.4489 278.458 41.679 278.777 40.748C279.132 39.8171 279.31 38.8682 279.31 37.9014C279.31 36.6481 279.15 35.4486 278.831 34.3027C278.511 33.1211 278.014 32.1722 277.34 31.4561C276.701 30.7041 275.867 30.3281 274.838 30.3281C273.418 30.3281 272.318 30.9727 271.537 32.2617C270.757 33.5508 270.366 35.0189 270.366 36.666C270.366 37.9193 270.544 39.1188 270.899 40.2647C271.254 41.3747 271.768 42.2699 272.442 42.9502C273.117 43.6305 273.933 43.9707 274.891 43.9707Z" stroke="white" stroke-width="3" mask="url(#path-1-outside-1_3212_5686)"/>
<path d="M330.061 54.9814C328.854 52.0094 327.648 49.0553 326.441 46.1191C325.27 43.1829 324.081 40.2467 322.874 37.3105C322.59 36.6302 322.218 35.6813 321.756 34.4639C321.33 33.2106 320.869 31.7783 320.372 30.167C319.911 28.5557 319.485 26.8906 319.094 25.1719C319.165 27.1771 319.219 29.0749 319.254 30.8652C319.29 32.6198 319.29 34.3027 319.254 35.9141C319.254 36.7018 319.254 37.5075 319.254 38.3311C319.254 39.1546 319.236 39.9782 319.201 40.8018C319.201 41.5895 319.201 42.3952 319.201 43.2188C319.201 44.0065 319.201 44.8122 319.201 45.6357C319.201 46.6025 319.165 47.5335 319.094 48.4287C319.059 49.3239 319.006 50.0042 318.935 50.4697C319.538 50.3981 320.266 50.3623 321.117 50.3623C322.005 50.3265 322.626 50.3086 322.981 50.3086V54.4443H310.843V50.8994C311.659 50.8636 312.334 50.7562 312.866 50.5771C313.434 50.3981 313.86 49.9863 314.144 49.3418C314.463 48.6973 314.623 47.6589 314.623 46.2266L314.942 25.6553C314.978 24.6885 315.013 23.7575 315.049 22.8623C315.084 21.9671 315.12 21.2868 315.155 20.8213C314.587 20.8571 313.877 20.8929 313.026 20.9287C312.174 20.9287 311.553 20.9466 311.162 20.9824V16.8467H322.927L330.966 37.6328C331.285 38.4564 331.64 39.4232 332.031 40.5332C332.421 41.6074 332.794 42.6637 333.149 43.7021C333.503 44.7048 333.77 45.5104 333.947 46.1191H334C334.462 44.8659 334.888 43.6484 335.278 42.4668C335.668 41.2852 336.076 40.1393 336.502 39.0293C337.886 35.3053 339.253 31.5993 340.601 27.9111C341.986 24.223 343.37 20.5348 344.754 16.8467H357.051V20.3916C356.27 20.4274 355.578 20.5348 354.975 20.7139C354.372 20.8929 353.91 21.3047 353.591 21.9492C353.307 22.5579 353.183 23.5964 353.218 25.0645L354.017 45.6357C354.088 46.6025 354.088 47.5335 354.017 48.4287C353.946 49.3239 353.875 50.0042 353.804 50.4697C354.407 50.3981 355.135 50.3623 355.986 50.3623C356.874 50.3265 357.495 50.3086 357.85 50.3086V54.4443H343.05V50.8994C343.867 50.8636 344.559 50.7562 345.126 50.5771C345.73 50.3981 346.173 49.9863 346.457 49.3418C346.777 48.6973 346.901 47.6589 346.83 46.2266L346.404 34.8398C346.404 34.4102 346.369 33.6761 346.298 32.6377C346.227 31.5635 346.156 30.3997 346.085 29.1465C346.049 27.8574 346.014 26.6579 345.978 25.5478C345.872 25.7985 345.765 26.0492 345.659 26.2998C345.552 26.5146 345.464 26.7474 345.393 26.998L335.012 54.9814H330.061Z" stroke="white" stroke-width="3" mask="url(#path-1-outside-1_3212_5686)"/>
<path d="M375.802 55.3037C373.211 55.3037 370.922 54.7308 368.934 53.585C366.947 52.4033 365.403 50.7562 364.303 48.6436C363.203 46.4951 362.653 43.9707 362.653 41.0703C362.653 38.5638 363.203 36.2184 364.303 34.0342C365.403 31.8499 366.947 30.0954 368.934 28.7705C370.957 27.4098 373.3 26.7295 375.961 26.7295C377.452 26.7295 378.907 26.9443 380.327 27.374C381.746 27.7679 383.024 28.4661 384.16 29.4687C385.331 30.4714 386.254 31.832 386.928 33.5508C387.638 35.2695 387.975 37.418 387.939 39.9961L370.478 40.3184C370.478 42.252 370.709 43.9886 371.17 45.5283C371.667 47.068 372.466 48.2855 373.566 49.1807C374.666 50.0758 376.139 50.5234 377.984 50.5234C378.694 50.5234 379.493 50.3981 380.38 50.1475C381.303 49.8968 382.225 49.485 383.148 48.9121C384.106 48.3034 384.994 47.4977 385.81 46.4951L388.205 48.751C386.928 50.5771 385.561 51.9736 384.106 52.9404C382.651 53.8714 381.196 54.498 379.741 54.8203C378.321 55.1426 377.008 55.3037 375.802 55.3037ZM370.798 36.5586H380.593C380.557 35.0547 380.344 33.873 379.954 33.0137C379.599 32.1185 379.102 31.474 378.463 31.0801C377.825 30.6862 377.079 30.4893 376.228 30.4893C374.666 30.4893 373.442 31.0622 372.554 32.208C371.667 33.318 371.081 34.7682 370.798 36.5586Z" stroke="white" stroke-width="3" mask="url(#path-1-outside-1_3212_5686)"/>
<path d="M406.576 55.3037C403.985 55.3037 401.696 54.7308 399.709 53.585C397.721 52.4033 396.178 50.7562 395.077 48.6436C393.977 46.4951 393.427 43.9707 393.427 41.0703C393.427 38.5638 393.977 36.2184 395.077 34.0342C396.178 31.8499 397.721 30.0954 399.709 28.7705C401.732 27.4098 404.074 26.7295 406.736 26.7295C408.227 26.7295 409.682 26.9443 411.101 27.374C412.521 27.7679 413.798 28.4661 414.934 29.4687C416.105 30.4714 417.028 31.832 417.702 33.5508C418.412 35.2695 418.749 37.418 418.714 39.9961L401.253 40.3184C401.253 42.252 401.483 43.9886 401.945 45.5283C402.442 47.068 403.24 48.2855 404.34 49.1807C405.441 50.0758 406.913 50.5234 408.759 50.5234C409.469 50.5234 410.267 50.3981 411.154 50.1475C412.077 49.8968 413 49.485 413.923 48.9121C414.881 48.3034 415.768 47.4977 416.584 46.4951L418.98 48.751C417.702 50.5771 416.336 51.9736 414.881 52.9404C413.426 53.8714 411.971 54.498 410.516 54.8203C409.096 55.1426 407.783 55.3037 406.576 55.3037ZM401.572 36.5586H411.367C411.332 35.0547 411.119 33.873 410.729 33.0137C410.374 32.1185 409.877 31.474 409.238 31.0801C408.599 30.6862 407.854 30.4893 407.002 30.4893C405.441 30.4893 404.216 31.0622 403.329 32.208C402.442 33.318 401.856 34.7682 401.572 36.5586Z" stroke="white" stroke-width="3" mask="url(#path-1-outside-1_3212_5686)"/>
<path d="M435.275 55.3037C434.21 55.3037 433.181 55.1784 432.187 54.9277C431.229 54.6771 430.342 54.2116 429.525 53.5312C428.744 52.8151 428.123 51.7767 427.662 50.416C427.201 49.0553 426.97 47.2471 426.97 44.9912L427.076 32.0469H423.456V27.5889C424.557 27.5531 425.621 27.1771 426.651 26.4609C427.68 25.7448 428.549 24.8138 429.259 23.668C430.004 22.5221 430.501 21.3226 430.75 20.0693H434.689L434.636 27.5889H441.397V31.7246L434.636 31.8857L434.583 45.0986C434.583 45.9222 434.654 46.7458 434.796 47.5693C434.973 48.3571 435.292 49.0195 435.754 49.5566C436.215 50.0579 436.889 50.3086 437.777 50.3086C438.274 50.3086 438.948 50.1296 439.8 49.7715C440.687 49.4134 441.627 48.5182 442.621 47.0859L445.176 49.5029C444.218 50.9352 443.224 52.0452 442.195 52.833C441.166 53.6208 440.172 54.1937 439.214 54.5518C438.291 54.9098 437.475 55.1247 436.765 55.1963C436.055 55.2679 435.559 55.3037 435.275 55.3037Z" stroke="white" stroke-width="3" mask="url(#path-1-outside-1_3212_5686)"/>
<path d="M459.874 55.3037C457.745 55.3037 456.023 54.8919 454.71 54.0684C453.432 53.2448 452.492 51.9557 451.889 50.2012C451.321 48.4466 451.037 46.1908 451.037 43.4336V37.2568C451.037 36.6123 451.055 35.8783 451.09 35.0547C451.126 34.1953 451.161 33.3717 451.197 32.584C450.629 32.6198 449.954 32.6556 449.174 32.6914C448.428 32.6914 447.86 32.7093 447.47 32.7451V28.6631H448.002C450.203 28.6631 451.942 28.484 453.22 28.126C454.497 27.7679 455.313 27.4098 455.668 27.0518H458.596V43.4873C458.596 45.8148 458.898 47.5514 459.501 48.6973C460.105 49.8073 461.063 50.3623 462.376 50.3623C463.299 50.3623 464.221 50.1117 465.144 49.6104C466.102 49.0732 466.883 48.4645 467.487 47.7842V37.2568C467.487 36.6123 467.504 35.8783 467.54 35.0547C467.575 34.1953 467.629 33.3717 467.699 32.584C467.132 32.6198 466.457 32.6556 465.677 32.6914C464.931 32.6914 464.363 32.7093 463.973 32.7451V28.6631H465.251C466.919 28.6631 468.392 28.484 469.669 28.126C470.947 27.7321 471.763 27.374 472.118 27.0518H475.046V45.7969C475.046 46.2982 475.028 47.0143 474.993 47.9453C474.957 48.8405 474.904 49.6999 474.833 50.5234C475.401 50.4518 476.022 50.416 476.696 50.416C477.406 50.3802 477.938 50.3623 478.293 50.3623V54.4443H468.179C468.143 53.9788 468.09 53.5133 468.019 53.0479C467.983 52.5824 467.93 52.1169 467.859 51.6514C466.759 52.5824 465.57 53.4238 464.292 54.1758C463.05 54.9277 461.577 55.3037 459.874 55.3037Z" stroke="white" stroke-width="3" mask="url(#path-1-outside-1_3212_5686)"/>
<path d="M483.359 68.1406V64.6494C484.353 64.6494 485.063 64.4525 485.489 64.0586C485.95 63.6647 486.234 63.0918 486.341 62.3398C486.483 61.6237 486.554 60.8001 486.554 59.8691V37.1494C486.554 36.5049 486.571 35.7887 486.607 35.001C486.642 34.1774 486.695 33.3717 486.766 32.584C486.199 32.6198 485.524 32.6556 484.744 32.6914C483.963 32.6914 483.377 32.7093 482.987 32.7451V28.6631C484.655 28.6631 486.039 28.5736 487.139 28.3945C488.275 28.2155 489.162 28.0007 489.801 27.75C490.475 27.4993 490.937 27.2666 491.185 27.0518H493.794C493.865 27.4098 493.918 27.8574 493.953 28.3945C493.989 28.8958 494.024 29.3076 494.06 29.6299C495.302 28.5557 496.526 27.8037 497.733 27.374C498.975 26.9443 500.146 26.7295 501.246 26.7295C503.376 26.7295 505.239 27.2845 506.836 28.3945C508.469 29.5046 509.729 31.0801 510.616 33.1211C511.539 35.1621 512 37.5612 512 40.3184C512 43.1829 511.45 45.7611 510.35 48.0527C509.25 50.3086 507.706 52.0811 505.718 53.3701C503.766 54.6592 501.459 55.3037 498.798 55.3037C497.839 55.3037 496.97 55.1963 496.189 54.9814C495.444 54.8024 494.734 54.5876 494.06 54.3369V59.4932C494.06 59.9945 494.042 60.6927 494.006 61.5879C494.006 62.5189 493.971 63.3962 493.9 64.2197C494.468 64.1481 495.089 64.0944 495.763 64.0586C496.438 64.0586 496.952 64.0586 497.307 64.0586V68.1406H483.359ZM497.946 51.2754C499.578 51.2396 500.838 50.7562 501.726 49.8252C502.648 48.8584 503.287 47.6051 503.642 46.0654C503.997 44.5257 504.174 42.8786 504.174 41.124C504.174 39.4769 503.979 37.9193 503.589 36.4512C503.198 34.9831 502.577 33.8014 501.726 32.9062C500.874 31.9753 499.756 31.5277 498.372 31.5635C497.485 31.5993 496.668 31.832 495.923 32.2617C495.178 32.6556 494.557 33.2106 494.06 33.9268C494.06 35.0368 494.06 36.1468 494.06 37.2568C494.06 38.3311 494.06 39.4053 494.06 40.4795C494.06 41.5537 494.06 42.6458 494.06 43.7559C494.06 44.8301 494.06 45.9222 494.06 47.0322C494.06 48.1064 494.06 49.1986 494.06 50.3086C494.45 50.5592 495 50.792 495.71 51.0068C496.42 51.2217 497.165 51.3112 497.946 51.2754Z" stroke="white" stroke-width="3" mask="url(#path-1-outside-1_3212_5686)"/>
</g>
<g filter="url(#filter1_d_3212_5686)">
<path d="M6.04119 44.7585V40.1449L20.3146 25.3565C21.8388 23.75 23.0952 22.3426 24.0838 21.1342C25.0862 19.9122 25.8345 18.7519 26.3288 17.6534C26.8232 16.5549 27.0703 15.3878 27.0703 14.152C27.0703 12.7514 26.7408 11.5431 26.0817 10.527C25.4226 9.49716 24.5232 8.70762 23.3835 8.15838C22.2438 7.59541 20.96 7.31392 19.532 7.31392C18.0215 7.31392 16.7034 7.62287 15.5774 8.24077C14.4515 8.85867 13.5864 9.73059 12.9822 10.8565C12.3781 11.9825 12.076 13.3007 12.076 14.8111H6C6 12.2434 6.59044 9.99834 7.77131 8.076C8.95218 6.15365 10.5724 4.66383 12.6321 3.60653C14.6918 2.53551 17.0329 2 19.6555 2C22.3056 2 24.6399 2.52865 26.6584 3.58594C28.6906 4.6295 30.2765 6.05753 31.4162 7.87003C32.5559 9.6688 33.1257 11.701 33.1257 13.9666C33.1257 15.532 32.8305 17.063 32.2401 18.5597C31.6634 20.0563 30.6541 21.7247 29.2124 23.5646C27.7706 25.3909 25.7659 27.6084 23.1982 30.2173L14.8153 38.9915V39.3004H33.8054V44.7585H6.04119Z" fill="url(#paint12_linear_3212_5686)"/>
<path d="M56.2969 45.4588C53.0426 45.4451 50.2621 44.5869 47.9553 42.8842C45.6484 41.1816 43.884 38.7031 42.6619 35.4489C41.4399 32.1946 40.8288 28.2744 40.8288 23.6882C40.8288 19.1158 41.4399 15.2093 42.6619 11.9688C43.8977 8.72822 45.669 6.25663 47.9759 4.55398C50.2964 2.85133 53.0701 2 56.2969 2C59.5237 2 62.2905 2.85819 64.5973 4.57457C66.9041 6.27723 68.6686 8.74882 69.8906 11.9893C71.1264 15.2161 71.7443 19.1158 71.7443 23.6882C71.7443 28.2881 71.1333 32.2152 69.9112 35.4695C68.6892 38.71 66.9247 41.1884 64.6179 42.9048C62.3111 44.6075 59.5374 45.4588 56.2969 45.4588ZM56.2969 39.9595C59.1529 39.9595 61.3842 38.5658 62.9908 35.7784C64.611 32.991 65.4212 28.9609 65.4212 23.6882C65.4212 20.1868 65.0504 17.2277 64.3089 14.8111C63.5812 12.3807 62.5308 10.5407 61.1577 9.29119C59.7983 8.02794 58.178 7.39631 56.2969 7.39631C53.4545 7.39631 51.2232 8.79687 49.603 11.598C47.9827 14.3991 47.1657 18.4292 47.152 23.6882C47.152 27.2034 47.5159 30.1761 48.2436 32.6065C48.9851 35.0232 50.0355 36.8563 51.3949 38.1058C52.7543 39.3416 54.3883 39.9595 56.2969 39.9595Z" fill="url(#paint13_linear_3212_5686)"/>
<path d="M5.29119 44.7585V45.5085H6.04119H33.8054H34.5554V44.7585V39.3004V38.5504H33.8054H16.274L23.7367 30.7394C26.3121 28.1224 28.3364 25.8846 29.801 24.0294L29.8027 24.0272C31.2705 22.154 32.3261 20.4211 32.9389 18.832C33.5621 17.2511 33.8757 15.6278 33.8757 13.9666C33.8757 11.5689 33.2707 9.39627 32.0506 7.46999C30.835 5.53709 29.1457 4.02064 27.0037 2.92015C24.8622 1.79904 22.4059 1.25 19.6555 1.25C16.929 1.25 14.4671 1.80737 12.2878 2.94021C10.1103 4.05841 8.38659 5.64148 7.13225 7.68343C5.86923 9.73951 5.25 12.1244 5.25 14.8111V15.5611H6H12.076H12.826V14.8111C12.826 13.4019 13.1073 12.2098 13.6431 11.2111C14.1783 10.2138 14.9388 9.44674 15.9382 8.89827C16.9356 8.35093 18.1254 8.06392 19.532 8.06392C20.8591 8.06392 22.0271 8.32486 23.0514 8.83081L23.0513 8.83085L23.0579 8.83401C24.077 9.32512 24.8685 10.0227 25.45 10.9313L25.45 10.9313L25.4525 10.9351C26.021 11.8116 26.3203 12.8731 26.3203 14.152C26.3203 15.2845 26.0945 16.3465 25.6449 17.3456C25.1846 18.3684 24.4766 19.4727 23.5039 20.6586L23.5033 20.6593C22.5304 21.8484 21.288 23.2408 19.7727 24.8381C19.772 24.8388 19.7712 24.8396 19.7705 24.8403L5.50155 39.624L5.29119 39.842V40.1449V44.7585ZM56.2937 46.2088H56.2969C59.6759 46.2088 62.611 45.3183 65.0633 43.5083L65.0656 43.5065C67.5093 41.6883 69.3507 39.0813 70.613 35.7341L70.6133 35.7331C71.8755 32.3722 72.4943 28.3507 72.4943 23.6882C72.4943 19.053 71.8686 15.0579 70.5918 11.7232C69.3297 8.37706 67.4883 5.77664 65.0439 3.97204C62.5922 2.14827 59.6638 1.25 56.2969 1.25C52.9307 1.25 49.9968 2.14092 47.5322 3.94929L47.5305 3.95055C45.0859 5.75489 43.2373 8.35514 41.9612 11.7015L41.9602 11.7041C40.6978 15.0515 40.0788 19.0527 40.0788 23.6882C40.0788 28.3373 40.6978 32.3518 41.9598 35.7125C43.2219 39.0734 45.0637 41.6822 47.5099 43.4877C49.9617 45.2974 52.9026 46.1945 56.2937 46.2088ZM62.3424 35.4015L62.341 35.4039C60.8479 37.9944 58.8463 39.2095 56.2969 39.2095C54.5675 39.2095 53.116 38.6563 51.9007 37.5521C50.6704 36.4204 49.6773 34.7211 48.9614 32.3892C48.2614 30.0502 47.902 27.1555 47.902 23.6887C47.9157 18.4882 48.7267 14.6108 50.2522 11.9735C51.7607 9.36564 53.764 8.14631 56.2969 8.14631C57.9915 8.14631 59.4286 8.70822 60.6471 9.84059L60.6471 9.84062L60.6529 9.8459C61.8948 10.9761 62.888 12.6803 63.5905 15.0262L63.5919 15.0311C64.3049 17.3549 64.6712 20.2349 64.6712 23.6882C64.6712 28.9038 63.8664 32.7796 62.3424 35.4015Z" stroke="white" stroke-width="1.5"/>
</g>
<g filter="url(#filter2_d_3212_5686)">
<path d="M21.0412 74.7585V70.1449L35.3146 55.3565C36.8388 53.75 38.0952 52.3426 39.0838 51.1342C40.0862 49.9122 40.8345 48.7519 41.3288 47.6534C41.8232 46.5549 42.0703 45.3878 42.0703 44.152C42.0703 42.7514 41.7408 41.5431 41.0817 40.527C40.4226 39.4972 39.5232 38.7076 38.3835 38.1584C37.2438 37.5954 35.96 37.3139 34.532 37.3139C33.0215 37.3139 31.7034 37.6229 30.5774 38.2408C29.4515 38.8587 28.5864 39.7306 27.9822 40.8565C27.3781 41.9825 27.076 43.3007 27.076 44.8111H21C21 42.2434 21.5904 39.9983 22.7713 38.076C23.9522 36.1536 25.5724 34.6638 27.6321 33.6065C29.6918 32.5355 32.0329 32 34.6555 32C37.3056 32 39.6399 32.5286 41.6584 33.5859C43.6906 34.6295 45.2765 36.0575 46.4162 37.87C47.5559 39.6688 48.1257 41.701 48.1257 43.9666C48.1257 45.532 47.8305 47.063 47.2401 48.5597C46.6634 50.0563 45.6541 51.7247 44.2124 53.5646C42.7706 55.3909 40.7659 57.6084 38.1982 60.2173L29.8153 68.9915V69.3004H48.8054V74.7585H21.0412Z" fill="url(#paint14_linear_3212_5686)"/>
<path d="M54.8196 66.5199V61.3707L73.0476 32.5767H77.1051V40.1562H74.5305L61.4929 60.794V61.1236H86.4766V66.5199H54.8196ZM74.8189 74.7585V64.9545L74.8601 62.6065V32.5767H80.8949V74.7585H74.8189Z" fill="url(#paint15_linear_3212_5686)"/>
<path d="M20.2912 74.7585V75.5085H21.0412H48.8054H49.5554V74.7585V69.3004V68.5504H48.8054H31.274L38.7367 60.7394C41.3121 58.1224 43.3364 55.8846 44.801 54.0294L44.8027 54.0272C46.2705 52.154 47.3261 50.4211 47.9389 48.832C48.5621 47.2511 48.8757 45.6278 48.8757 43.9666C48.8757 41.5689 48.2707 39.3963 47.0506 37.47C45.835 35.5371 44.1457 34.0206 42.0037 32.9201C39.8622 31.799 37.4059 31.25 34.6555 31.25C31.929 31.25 29.4671 31.8074 27.2878 32.9402C25.1103 34.0584 23.3866 35.6415 22.1322 37.6834C20.8692 39.7395 20.25 42.1244 20.25 44.8111V45.5611H21H27.076H27.826V44.8111C27.826 43.4019 28.1073 42.2098 28.6431 41.2111C29.1783 40.2138 29.9388 39.4467 30.9382 38.8983C31.9356 38.3509 33.1254 38.0639 34.532 38.0639C35.8591 38.0639 37.0271 38.3249 38.0514 38.8308L38.0513 38.8308L38.0579 38.834C39.077 39.3251 39.8685 40.0227 40.45 40.9313L40.45 40.9313L40.4525 40.9351C41.021 41.8116 41.3203 42.8731 41.3203 44.152C41.3203 45.2845 41.0945 46.3465 40.6449 47.3456C40.1846 48.3684 39.4766 49.4727 38.5039 50.6586L38.5033 50.6593C37.5304 51.8484 36.288 53.2408 34.7727 54.8381C34.772 54.8388 34.7712 54.8396 34.7705 54.8403L20.5016 69.624L20.2912 69.842V70.1449V74.7585ZM54.0696 66.5199V67.2699H54.8196H74.0689V74.7585V75.5085H74.8189H80.8949H81.6449V74.7585V67.2699H86.4766H87.2266V66.5199V61.1236V60.3736H86.4766H81.6449V32.5767V31.8267H80.8949H77.8551H77.1051H74.8601H74.1101H73.0476H72.6347L72.4139 32.1755L54.1859 60.9696L54.0696 61.1533V61.3707V66.5199ZM74.1101 60.3736H62.6456L74.1101 42.2261V60.3736Z" stroke="white" stroke-width="1.5"/>
</g>
<defs>
<filter id="filter0_d_3212_5686" x="106.5" y="12.5" width="411" height="66" filterUnits="userSpaceOnUse" color-interpolation-filters="sRGB">
<feFlood flood-opacity="0" result="BackgroundImageFix"/>
<feColorMatrix in="SourceAlpha" type="matrix" values="0 0 0 0 0 0 0 0 0 0 0 0 0 0 0 0 0 0 127 0" result="hardAlpha"/>
<feOffset dy="4"/>
<feGaussianBlur stdDeviation="2"/>
<feComposite in2="hardAlpha" operator="out"/>
<feColorMatrix type="matrix" values="0 0 0 0 1 0 0 0 0 1 0 0 0 0 1 0 0 0 0.25 0"/>
<feBlend mode="normal" in2="BackgroundImageFix" result="effect1_dropShadow_3212_5686"/>
<feBlend mode="normal" in="SourceGraphic" in2="effect1_dropShadow_3212_5686" result="shape"/>
</filter>
<filter id="filter1_d_3212_5686" x="0.5" y="0.5" width="76.7441" height="54.459" filterUnits="userSpaceOnUse" color-interpolation-filters="sRGB">
<feFlood flood-opacity="0" result="BackgroundImageFix"/>
<feColorMatrix in="SourceAlpha" type="matrix" values="0 0 0 0 0 0 0 0 0 0 0 0 0 0 0 0 0 0 127 0" result="hardAlpha"/>
<feOffset dy="4"/>
<feGaussianBlur stdDeviation="2"/>
<feComposite in2="hardAlpha" operator="out"/>
<feColorMatrix type="matrix" values="0 0 0 0 1 0 0 0 0 1 0 0 0 0 1 0 0 0 0.25 0"/>
<feBlend mode="normal" in2="BackgroundImageFix" result="effect1_dropShadow_3212_5686"/>
<feBlend mode="normal" in="SourceGraphic" in2="effect1_dropShadow_3212_5686" result="shape"/>
</filter>
<filter id="filter2_d_3212_5686" x="15.5" y="30.5" width="76.4766" height="53.7578" filterUnits="userSpaceOnUse" color-interpolation-filters="sRGB">
<feFlood flood-opacity="0" result="BackgroundImageFix"/>
<feColorMatrix in="SourceAlpha" type="matrix" values="0 0 0 0 0 0 0 0 0 0 0 0 0 0 0 0 0 0 127 0" result="hardAlpha"/>
<feOffset dy="4"/>
<feGaussianBlur stdDeviation="2"/>
<feComposite in2="hardAlpha" operator="out"/>
<feColorMatrix type="matrix" values="0 0 0 0 1 0 0 0 0 1 0 0 0 0 1 0 0 0 0.25 0"/>
<feBlend mode="normal" in2="BackgroundImageFix" result="effect1_dropShadow_3212_5686"/>
<feBlend mode="normal" in="SourceGraphic" in2="effect1_dropShadow_3212_5686" result="shape"/>
</filter>
<linearGradient id="paint0_linear_3212_5686" x1="311.594" y1="14" x2="311.594" y2="69" gradientUnits="userSpaceOnUse">
<stop stop-color="#FFA3CC"/>
<stop offset="1" stop-color="#FFCB00"/>
</linearGradient>
<linearGradient id="paint1_linear_3212_5686" x1="311.594" y1="14" x2="311.594" y2="69" gradientUnits="userSpaceOnUse">
<stop stop-color="#FFA3CC"/>
<stop offset="1" stop-color="#FFCB00"/>
</linearGradient>
<linearGradient id="paint2_linear_3212_5686" x1="311.594" y1="14" x2="311.594" y2="69" gradientUnits="userSpaceOnUse">
<stop stop-color="#FFA3CC"/>
<stop offset="1" stop-color="#FFCB00"/>
</linearGradient>
<linearGradient id="paint3_linear_3212_5686" x1="311.594" y1="14" x2="311.594" y2="69" gradientUnits="userSpaceOnUse">
<stop stop-color="#FFA3CC"/>
<stop offset="1" stop-color="#FFCB00"/>
</linearGradient>
<linearGradient id="paint4_linear_3212_5686" x1="311.594" y1="14" x2="311.594" y2="69" gradientUnits="userSpaceOnUse">
<stop stop-color="#FFA3CC"/>
<stop offset="1" stop-color="#FFCB00"/>
</linearGradient>
<linearGradient id="paint5_linear_3212_5686" x1="311.594" y1="14" x2="311.594" y2="69" gradientUnits="userSpaceOnUse">
<stop stop-color="#FFA3CC"/>
<stop offset="1" stop-color="#FFCB00"/>
</linearGradient>
<linearGradient id="paint6_linear_3212_5686" x1="311.594" y1="14" x2="311.594" y2="69" gradientUnits="userSpaceOnUse">
<stop stop-color="#FFA3CC"/>
<stop offset="1" stop-color="#FFCB00"/>
</linearGradient>
<linearGradient id="paint7_linear_3212_5686" x1="311.594" y1="14" x2="311.594" y2="69" gradientUnits="userSpaceOnUse">
<stop stop-color="#FFA3CC"/>
<stop offset="1" stop-color="#FFCB00"/>
</linearGradient>
<linearGradient id="paint8_linear_3212_5686" x1="311.594" y1="14" x2="311.594" y2="69" gradientUnits="userSpaceOnUse">
<stop stop-color="#FFA3CC"/>
<stop offset="1" stop-color="#FFCB00"/>
</linearGradient>
<linearGradient id="paint9_linear_3212_5686" x1="311.594" y1="14" x2="311.594" y2="69" gradientUnits="userSpaceOnUse">
<stop stop-color="#FFA3CC"/>
<stop offset="1" stop-color="#FFCB00"/>
</linearGradient>
<linearGradient id="paint10_linear_3212_5686" x1="311.594" y1="14" x2="311.594" y2="69" gradientUnits="userSpaceOnUse">
<stop stop-color="#FFA3CC"/>
<stop offset="1" stop-color="#FFCB00"/>
</linearGradient>
<linearGradient id="paint11_linear_3212_5686" x1="311.594" y1="14" x2="311.594" y2="69" gradientUnits="userSpaceOnUse">
<stop stop-color="#FFA3CC"/>
<stop offset="1" stop-color="#FFCB00"/>
</linearGradient>
<linearGradient id="paint12_linear_3212_5686" x1="38.8729" y1="2" x2="38.8729" y2="45.9777" gradientUnits="userSpaceOnUse">
<stop stop-color="#FFCB00"/>
<stop offset="1" stop-color="#FFCB00"/>
</linearGradient>
<linearGradient id="paint13_linear_3212_5686" x1="38.8729" y1="2" x2="38.8729" y2="45.9777" gradientUnits="userSpaceOnUse">
<stop stop-color="#FFCB00"/>
<stop offset="1" stop-color="#FFCB00"/>
</linearGradient>
<linearGradient id="paint14_linear_3212_5686" x1="53.8617" y1="75.1301" x2="53.8617" y2="32" gradientUnits="userSpaceOnUse">
<stop stop-color="#FFA3CC"/>
<stop offset="1" stop-color="#FFCB00"/>
</linearGradient>
<linearGradient id="paint15_linear_3212_5686" x1="53.8617" y1="75.1301" x2="53.8617" y2="32" gradientUnits="userSpaceOnUse">
<stop stop-color="#FFA3CC"/>
<stop offset="1" stop-color="#FFCB00"/>
</linearGradient>
</defs>
</svg>
