<svg width="265" height="265" viewBox="0 0 265 265" fill="none" xmlns="http://www.w3.org/2000/svg">
  <path fill-rule="evenodd" clip-rule="evenodd"
    d="M132.5 265C205.678 265 265 205.678 265 132.5C265 59.3223 205.678 0 132.5 0C59.3223 0 0 59.3223 0 132.5C0 205.678 59.3223 265 132.5 265ZM132.5 241C192.423 241 241 192.423 241 132.5C241 72.5771 192.423 24 132.5 24C72.5771 24 24 72.5771 24 132.5C24 192.423 72.5771 241 132.5 241Z"
    fill="currentcolor" />
  <path fill-rule="evenodd" clip-rule="evenodd"
    d="M172.343 92.6572H92.6572V172.343H172.343V92.6572ZM164.93 100.07H100.07V164.93H164.93V100.07Z" fill="currentcolor" />
  <path
    d="M109.643 34.651H108.432L109.291 35.5055L111.246 37.4509L111.464 37.6678L111.756 37.571C113.165 37.1039 114.741 36.8669 116.488 36.8669H128.699C128.679 40.5768 128.448 45.3489 128.003 51.1868H103.776H102.565L103.424 52.0413L105.379 53.9867L105.597 54.2036L105.889 54.1068C107.298 53.6397 108.874 53.4027 110.621 53.4027H127.634C126.46 60.3751 123.914 66.3423 120.006 71.3182C115.982 76.4416 110.746 80.6116 104.287 83.8243L103.838 84.0479L104.063 84.4965L104.552 85.4692L104.757 85.877L105.182 85.71C112.252 82.9295 118.183 78.9991 122.964 73.9149C127.699 68.8802 130.804 62.0299 132.311 53.4027H133.42C134.293 58.544 136.415 64.0141 139.768 69.8103C143.242 75.8177 148.448 80.7016 155.362 84.4679L155.8 84.7064L156.04 84.2692C156.926 82.6539 158.649 81.4975 161.338 80.8681L161.724 80.7777V80.3812V79.6517V79.2363L161.316 79.1602C156.197 78.2055 151.386 75.8176 146.881 71.976C142.525 68.2622 138.81 62.0931 135.769 53.4027H159.268H160.48L159.621 52.5482L154.487 47.4415L154.123 47.0793L153.771 47.4531L150.252 51.1868H132.664C132.963 46.0606 133.192 41.2873 133.35 36.8669H155.112H156.324L155.465 36.0124L150.576 31.1489L150.223 30.7982L149.871 31.1489L146.35 34.651H109.643Z"
    fill="currentcolor" stroke="currentcolor" />
  <path
    d="M127.033 183.21H125.826L126.679 184.064L128.54 185.925L128.759 186.144L129.052 186.046C130.386 185.601 131.959 185.374 133.78 185.374H159.138H160.345L159.492 184.52L155.769 180.798L155.431 180.459L155.078 180.783L152.429 183.21H127.033ZM132.582 203.921L132.532 204.785L133.305 204.398L136.562 202.769L136.839 202.631V202.322V201.194H150.03V203.253V204.011L150.727 203.712L153.984 202.316L154.313 202.175L154.286 201.818C154.136 199.867 154.058 196.873 154.055 192.828L155.681 191.812L156.236 191.465L155.755 191.02L152.73 188.229L152.377 187.903L152.038 188.242L150.09 190.19H136.471L133.33 188.394L132.521 187.932L132.583 188.862C132.737 191.176 132.814 193.608 132.814 196.157C132.814 198.706 132.737 201.294 132.582 203.921ZM128.627 233.014L128.6 233.801L129.324 233.491L132.581 232.095L132.884 231.965V231.635V227.948H153.054V231.868V232.626L153.751 232.328L157.009 230.932L157.327 230.795L157.311 230.448C157.158 227.228 157.08 220.259 157.079 209.528L158.769 208.049L159.188 207.683L158.779 207.306L155.755 204.514L155.402 204.188L155.062 204.528L153.115 206.475H132.755L129.384 204.452L128.596 203.98L128.627 204.898C128.782 209.545 128.859 214.27 128.859 219.073C128.859 223.875 128.782 228.522 128.627 233.014ZM114.482 179.32L114.152 179.134L113.884 179.402L113.418 179.867L113.105 180.181L113.379 180.53C115.047 182.653 116.218 184.921 116.897 187.335C117.077 187.976 117.278 188.51 117.507 188.925C117.732 189.332 118.012 189.676 118.376 189.857C118.772 190.056 119.189 190.023 119.571 189.825C119.929 189.639 120.259 189.31 120.57 188.896C121.201 188.054 121.53 187.175 121.483 186.273C121.437 185.372 121.022 184.521 120.31 183.726C118.943 182.198 116.993 180.732 114.482 179.32ZM119.794 195.145C118.006 199.782 115.977 203.705 113.712 206.92C111.326 210.306 108.515 213.619 105.276 216.858L104.986 217.148L105.213 217.489L105.679 218.187L105.95 218.594L106.363 218.331C109.556 216.3 112.866 213.409 116.296 209.671C116.291 221.662 116.213 229.595 116.064 233.477L116.032 234.322L116.787 233.944L120.044 232.315L120.339 232.168L120.32 231.839C120.17 229.284 120.092 220.524 120.088 205.531C121.5 206.878 122.615 208.437 123.439 210.21C123.699 210.771 123.962 211.232 124.232 211.579C124.495 211.917 124.804 212.198 125.171 212.31C125.58 212.434 125.965 212.323 126.28 212.067C126.572 211.829 126.812 211.463 127.019 211.029C127.433 210.159 127.621 209.326 127.529 208.545C127.436 207.754 127.062 207.067 126.442 206.492C125.349 205.477 123.355 204.394 120.526 203.231C121.428 201.542 122.639 199.108 124.158 195.935L126.112 194.849L126.692 194.527L126.223 194.059L122.966 190.801L122.613 190.448L122.259 190.801L120.079 192.981H105.862H104.655L105.508 193.835L107.37 195.696L107.588 195.915L107.881 195.817L109.898 195.145H119.794ZM150.03 199.03H136.839V192.353H150.03V199.03ZM140.957 215.781H132.884V208.638H140.957V215.781ZM152.822 215.781H144.749V208.638H152.822V215.781ZM140.957 225.785H132.884V217.944H140.957V225.785ZM152.822 225.785H144.749V217.944H152.822V225.785Z"
    fill="currentcolor" stroke="currentcolor" />
  <path
    d="M204.64 125.637V144.679H199.194H198.001L198.837 145.53L200.667 147.391L200.887 147.615L201.184 147.514C202.497 147.069 203.966 146.842 205.597 146.842H233.497H234.742L233.842 145.981L229.955 142.259L229.598 141.918L229.252 142.27L226.884 144.679H226.679V123.401L228.443 122.603L229.12 122.297L228.581 121.785L225.151 118.528L224.815 118.209L224.471 118.519L222.556 120.251H216.729L217.668 115.668H229.838H231.03L230.194 114.817L226.307 110.862L225.95 110.5L225.593 110.862L222.996 113.505H218.11L218.865 110.045L220.158 108.511L220.548 108.048L220.02 107.752L215.446 105.193L214.702 104.777V105.629C214.702 107.379 214.425 109.999 213.862 113.505H201.481H200.391L201.101 114.331L202.702 116.192L202.915 116.439L203.227 116.344C204.698 115.895 206.325 115.668 208.112 115.668H213.47L212.719 120.251H208.468L205.149 118.451L204.37 118.028L204.411 118.914C204.564 122.171 204.64 124.409 204.64 125.637ZM199.63 159.826C204.065 157.803 208.122 155.238 211.799 152.132L214.232 151.232L215.103 150.91L214.354 150.36L210.238 147.335L209.823 147.031L209.531 147.454C206.672 151.587 202.983 155.189 198.456 158.259L197.959 158.596L198.38 159.023L199.066 159.721L199.311 159.971L199.63 159.826ZM219.815 148.86L219.577 149.222L219.902 149.509C223.394 152.598 225.662 155.224 226.762 157.387C227.058 157.968 227.356 158.441 227.663 158.787C227.963 159.125 228.318 159.393 228.731 159.458C229.176 159.527 229.565 159.345 229.872 159.045C230.168 158.757 230.419 158.335 230.64 157.824C231.081 156.803 231.266 155.851 231.132 154.99C230.996 154.114 230.539 153.385 229.802 152.811C228.455 151.763 225.469 150.151 220.905 147.985L220.511 147.798L220.272 148.162L219.815 148.86ZM195.164 108.344L195.788 107.836L195.057 107.501L190.483 105.407L189.957 105.166L189.795 105.722C187.37 114.047 183.891 121.042 179.364 126.721L179.139 127.004L179.337 127.307L179.795 128.005L180.1 128.471L180.53 128.117C181.839 127.041 183.121 125.769 184.375 124.303L185.802 125.755L186.022 125.979L186.319 125.878C187.412 125.507 188.333 125.296 189.089 125.229V133.28H181.356H180.164L181 134.13L182.829 135.991L183.049 136.215L183.346 136.114C184.659 135.669 186.129 135.443 187.759 135.443H189.089V150.37C187.057 150.863 185.388 151.216 184.076 151.433C182.667 151.665 181.721 151.73 181.191 151.663L180.379 151.559L180.657 152.329L182.258 156.749L182.528 157.495L183.085 156.929C183.955 156.045 184.927 155.386 186.004 154.948C187.125 154.492 192.473 152.716 202.092 149.61L202.514 149.474L202.429 149.038L202.2 147.875L202.1 147.369L201.598 147.484L193.062 149.437V148.294L193.196 148.385L193.882 148.85L194.26 149.106L194.549 148.753C196.087 146.876 197.253 145.179 198.037 143.664C198.772 142.244 199.725 141.014 200.898 139.969L201.371 139.549L200.852 139.186L197.193 136.627L196.601 136.212L196.422 136.913C195.374 141.028 194.253 144.609 193.062 147.659V135.443H200.795H201.796L201.194 134.642L198.221 130.687L197.872 130.223L197.465 130.637L194.868 133.28H193.062V125.206H199.194H200.233L199.584 124.394L196.611 120.672L196.222 120.185L195.831 120.671L193.923 123.043H185.407C187.543 120.329 189.598 117.037 191.574 113.175C194.173 115.476 195.898 117.643 196.792 119.673C197.048 120.253 197.307 120.727 197.574 121.077C197.833 121.415 198.151 121.705 198.543 121.792C198.98 121.889 199.359 121.704 199.643 121.415C199.915 121.138 200.142 120.731 200.342 120.243C200.746 119.257 200.906 118.329 200.774 117.476C200.64 116.613 200.214 115.872 199.526 115.26C198.293 114.162 195.939 112.882 192.53 111.414C193.006 110.423 193.869 109.398 195.164 108.344ZM183.781 137.86L183.489 137.545L183.134 137.786L182.448 138.251L182.127 138.469L182.257 138.833C183.47 142.225 184.058 144.915 184.058 146.924C184.058 147.467 184.097 147.932 184.186 148.305C184.271 148.664 184.422 149.02 184.712 149.241C185.04 149.492 185.426 149.484 185.765 149.354C186.085 149.232 186.409 148.99 186.732 148.682C188.066 147.41 188.561 145.911 188.129 144.24C187.918 143.422 187.434 142.485 186.714 141.436C185.99 140.382 185.011 139.189 183.781 137.86ZM222.706 126.3H208.612V122.415H222.706V126.3ZM222.706 132.349H208.612V128.463H222.706V132.349ZM222.706 138.398H208.612V134.512H222.706V138.398ZM222.706 144.679H208.612V140.561H222.706V144.679Z"
    fill="currentcolor" stroke="currentcolor" />
  <path
    d="M77.8833 130.115C77.8833 131.186 77.9593 132.258 78.1114 133.33L75.3744 134.249V132.871H63.5143L62.3739 134.249L59.865 132.182L61.0054 131.263C61.0054 130.038 60.9294 128.737 60.7773 127.359L64.4266 128.507L63.2862 130.115V131.722H67.8478V126.21H64.6547C62.9821 126.21 61.4615 126.44 60.0931 126.899L58.2684 125.062H67.8478V121.387H63.7423C62.5259 122.459 61.2335 123.531 59.865 124.603L59.1807 124.373C60.3972 122.842 61.3475 121.426 62.0317 120.124C62.716 118.823 63.2101 117.636 63.5143 116.565L66.9354 118.402C66.1752 118.861 65.3389 119.474 64.4266 120.239H72.6374L74.6902 118.402L77.6552 121.387H70.5847V125.062H76.5148L78.5675 122.995L81.5325 126.21H70.5847V131.722H75.3744C75.3744 130.344 75.2984 128.89 75.1463 127.359L79.0237 128.737L77.8833 130.115ZM55.7595 106.689L56.2157 106C59.5609 107.225 61.6516 108.335 62.4879 109.33C63.3242 110.325 63.2862 111.55 62.3739 113.005C61.4615 114.459 60.6252 114.23 59.865 112.316C59.1047 110.402 57.7362 108.526 55.7595 106.689ZM78.3394 121.387L79.936 115.646H42.3029C42.3029 117.33 42.1508 118.708 41.8467 119.78C41.5426 120.852 40.9724 121.579 40.1361 121.962C39.2998 122.344 38.4255 122.344 37.5132 121.962C36.6009 121.579 36.905 120.584 38.4255 118.976C39.946 117.368 40.8583 115.263 41.1625 112.66H42.3029V114.498H79.4798L81.3045 112.431L85.1818 116.105C82.901 116.565 80.9243 118.402 79.2518 121.617L78.3394 121.387ZM39.5659 159.052C45.648 156.449 50.2096 153.54 53.2507 150.325L56.6719 153.54L54.6192 153.77C52.4904 154.689 50.2096 155.684 47.7768 156.756C45.3439 157.827 42.683 158.823 39.794 159.741L39.5659 159.052ZM72.6374 148.488V145.272H48.2329V148.488H72.6374ZM63.7423 151.014C68.456 151.78 71.6871 152.392 73.4357 152.851C75.1843 153.311 76.5528 153.847 77.5412 154.459C78.5295 155.071 79.0617 156.258 79.1377 158.019C79.2137 159.78 78.1114 159.703 75.8306 157.789C73.5498 155.875 69.4443 153.923 63.5143 151.933L63.7423 151.014ZM45.2679 151.933C45.4199 148.871 45.496 145.847 45.496 142.861C45.496 139.875 45.4199 136.928 45.2679 134.019L48.461 135.167H71.9532L73.5498 133.56L76.7429 136.316L75.3744 137.464V142.746C75.3744 145.043 75.4504 147.569 75.6025 150.325L72.6374 151.473V149.636H48.2329V150.784L45.2679 151.933ZM72.6374 139.761V136.316H48.2329V139.761H72.6374ZM72.6374 144.124V140.909H48.2329V144.124H72.6374ZM51.8822 130.344L58.9527 129.426V130.344C56.5198 130.804 53.5928 131.34 50.1716 131.952C46.7504 132.564 43.8994 133.407 41.6186 134.478L40.2501 131.263C43.4432 131.11 46.4083 130.88 49.1452 130.574V126.899C47.3206 126.899 45.724 127.129 44.3556 127.588L42.5309 125.751H49.1452V121.158C47.0165 121.158 45.2679 121.387 43.8994 121.847L42.0748 120.009H54.163L56.2157 117.943L59.1807 121.158H51.8822V125.751H53.7068L55.5315 123.914L58.4965 126.899H51.8822V130.344Z"
    fill="currentcolor" />
  <path
    d="M77.8833 130.115C77.8833 131.186 77.9593 132.258 78.1114 133.33L75.3744 134.249V132.871H63.5143L62.3739 134.249L59.865 132.182L61.0054 131.263C61.0054 130.038 60.9294 128.737 60.7773 127.359L64.4266 128.507L63.2862 130.115V131.722H67.8478V126.21H64.6547C62.9821 126.21 61.4615 126.44 60.0931 126.899L58.2684 125.062H67.8478V121.387H63.7423C62.5259 122.459 61.2335 123.531 59.865 124.603L59.1807 124.373C60.3972 122.842 61.3475 121.426 62.0317 120.124C62.716 118.823 63.2101 117.636 63.5143 116.565L66.9354 118.402C66.1752 118.861 65.3389 119.474 64.4266 120.239H72.6374L74.6902 118.402L77.6552 121.387H70.5847V125.062H76.5148L78.5675 122.995L81.5325 126.21H70.5847V131.722H75.3744C75.3744 130.344 75.2984 128.89 75.1463 127.359L79.0237 128.737L77.8833 130.115ZM55.7595 106.689L56.2157 106C59.5609 107.225 61.6516 108.335 62.4879 109.33C63.3242 110.325 63.2862 111.55 62.3739 113.005C61.4615 114.459 60.6252 114.23 59.865 112.316C59.1047 110.402 57.7362 108.526 55.7595 106.689ZM78.3394 121.387L79.936 115.646H42.3029C42.3029 117.33 42.1508 118.708 41.8467 119.78C41.5426 120.852 40.9724 121.579 40.1361 121.962C39.2998 122.344 38.4255 122.344 37.5132 121.962C36.6009 121.579 36.905 120.584 38.4255 118.976C39.946 117.368 40.8583 115.263 41.1625 112.66H42.3029V114.498H79.4798L81.3045 112.431L85.1818 116.105C82.901 116.565 80.9243 118.402 79.2518 121.617L78.3394 121.387ZM39.5659 159.052C45.648 156.449 50.2096 153.54 53.2507 150.325L56.6719 153.54L54.6192 153.77C52.4904 154.689 50.2096 155.684 47.7768 156.756C45.3439 157.827 42.683 158.823 39.794 159.741L39.5659 159.052ZM72.6374 148.488V145.272H48.2329V148.488H72.6374ZM63.7423 151.014C68.456 151.78 71.6871 152.392 73.4357 152.851C75.1843 153.311 76.5528 153.847 77.5412 154.459C78.5295 155.071 79.0617 156.258 79.1377 158.019C79.2137 159.78 78.1114 159.703 75.8306 157.789C73.5498 155.875 69.4443 153.923 63.5143 151.933L63.7423 151.014ZM45.2679 151.933C45.4199 148.871 45.496 145.847 45.496 142.861C45.496 139.875 45.4199 136.928 45.2679 134.019L48.461 135.167H71.9532L73.5498 133.56L76.7429 136.316L75.3744 137.464V142.746C75.3744 145.043 75.4504 147.569 75.6025 150.325L72.6374 151.473V149.636H48.2329V150.784L45.2679 151.933ZM72.6374 139.761V136.316H48.2329V139.761H72.6374ZM72.6374 144.124V140.909H48.2329V144.124H72.6374ZM51.8822 130.344L58.9527 129.426V130.344C56.5198 130.804 53.5928 131.34 50.1716 131.952C46.7504 132.564 43.8994 133.407 41.6186 134.478L40.2501 131.263C43.4432 131.11 46.4083 130.88 49.1452 130.574V126.899C47.3206 126.899 45.724 127.129 44.3556 127.588L42.5309 125.751H49.1452V121.158C47.0165 121.158 45.2679 121.387 43.8994 121.847L42.0748 120.009H54.163L56.2157 117.943L59.1807 121.158H51.8822V125.751H53.7068L55.5315 123.914L58.4965 126.899H51.8822V130.344Z"
    stroke="currentcolor" stroke-width="2" />
</svg>
