<svg width="300" height="288" viewBox="0 0 300 288" fill="none" xmlns="http://www.w3.org/2000/svg">
  <path
    d="M109.446 116.089C117.406 115.987 125.119 118.843 131.085 124.101C134.802 128.747 132.591 131.068 124.453 131.064C110.256 130.202 96.0118 130.552 81.8746 132.108C84.245 134.64 85.9855 137.692 86.9556 141.018C87.9258 144.344 88.0983 147.851 87.4594 151.257V218.102C88.7134 232.613 88.245 247.22 86.0641 261.621C80.7069 274.155 74.7734 281.814 68.2635 284.599C67.3328 284.599 66.0534 282.278 64.4252 277.636C56.532 265.48 47.4099 254.165 37.2021 243.866C33.478 240.155 37.0851 240.155 48.0234 243.866C58.0243 247.348 63.4916 248.624 64.4252 247.694C71.6321 248.626 74.3078 224.255 72.4523 174.582V166.224C72.592 155.974 70.6941 145.798 66.8682 136.284C51.9683 138.941 37.3592 143.021 23.2427 148.469C21.5726 149.178 19.81 149.647 18.0076 149.861C2.4183 145.454 -3.04919 141.393 1.60517 137.676C39.7629 131.406 71.0572 125.024 95.488 118.527C100.041 117.224 104.72 116.407 109.446 116.089ZM103.862 53.4218C115.73 52.4967 124.805 58.8796 131.085 72.5702C122.687 77.135 114.533 82.1319 106.655 87.5408C101.997 91.0224 99.2041 92.2984 98.2764 91.369C97.3467 89.5166 98.2781 86.3834 101.071 81.9696C105.721 75.7043 106.651 71.1781 103.861 68.3909C103.861 65.6071 79.3146 69.6689 30.2213 80.5763C31.7872 93.6385 29.3539 106.868 23.2412 118.524C19.7512 125.027 16.6104 127.348 13.8189 125.487C10.4192 121.211 8.46417 115.97 8.23406 110.517C8.79462 105.775 10.2142 101.174 12.4236 96.9388C15.7724 88.7408 17.6611 80.0227 18.0047 71.1769C18.0047 66.5377 19.401 64.6807 22.1935 65.6057C23.8198 65.6057 26.0304 68.2749 28.8253 73.6132C72.5662 64.5622 97.5779 57.8322 103.862 53.4218ZM60.2364 8.5107C70.4553 7.3837 80.714 10.2541 88.8547 16.5182C94.2047 37.4074 91.529 45.6476 80.8276 41.2386C58.0246 21.2773 51.1604 10.3685 60.2364 8.5107ZM211.704 86.1497C214.264 83.3625 217.871 83.3625 222.525 86.1497C230.27 88.9831 237.214 93.6413 242.766 99.7276C246.486 102.285 246.021 104.954 241.37 107.735C233.579 113.436 226.335 119.847 219.731 126.884C211.583 134.08 204.255 140.463 197.745 146.032C198.729 146.78 199.662 147.594 200.535 148.469C201.465 150.332 202.862 153.118 204.724 156.827C222.873 153.115 241.021 149.517 259.167 146.032C264.338 144.176 269.874 143.555 275.329 144.22C280.784 144.885 286.007 146.817 290.578 149.861C296.858 152.648 299.999 155.898 300 159.611C299.301 163.092 296.16 164.368 290.578 163.439C262.859 162.588 235.115 163.519 207.516 166.226C219.381 227.04 212.982 266.961 188.321 285.989C184.597 288.777 181.921 287.849 180.294 283.205C174.692 270.812 167.283 259.315 158.307 249.085C154.816 245.604 153.42 243.863 154.118 243.863L162.492 246.647C180.641 254.775 190.181 254.775 191.111 246.647C198.322 225.758 198.322 199.414 191.111 167.616C177.191 169.213 163.494 172.366 150.279 177.016C145.445 179.355 140.031 180.239 134.701 179.559C129.371 178.88 124.355 176.665 120.266 173.187C116.538 170.4 114.677 168.543 114.681 167.616C114.685 166.69 117.012 166.226 121.661 166.224C144.051 165.224 166.333 162.548 188.321 158.217C185.907 150.807 182.247 143.861 177.5 137.676C174.709 135.819 173.779 134.426 174.709 133.496C174.709 132.572 176.57 132.104 180.294 132.104C185.784 133.767 190.57 137.194 193.905 141.851C203.656 130.689 211.018 117.657 215.54 103.554C217.401 101.004 216.121 99.7279 211.703 99.7255C199.624 103.142 187.741 107.21 176.104 111.911C172.94 114.084 169.077 115.003 165.269 114.489C161.462 113.974 157.984 112.062 155.513 109.127C152.949 107.272 151.675 105.88 151.675 104.948C151.675 104.017 153.42 103.557 156.91 103.557C176.451 103.003 195.441 96.9709 211.704 86.1497ZM242.766 37.0622H244.161C245.372 35.7311 247.012 34.8634 248.796 34.6086C250.58 34.3539 252.397 34.7281 253.934 35.6667C264.099 42.1277 273.675 49.4668 282.553 57.5996C286.043 62.0125 285.112 65.1456 279.759 66.999C265.965 70.7438 252.71 76.2431 240.322 83.3615C237.532 85.2242 235.665 85.6825 234.738 84.757C233.812 83.8315 234.738 81.9696 237.532 79.1859C239.509 76.1871 241.259 73.0453 242.767 69.7864C244.627 65.1444 246.023 61.8945 246.956 60.0367C248.817 54.6993 246.606 52.0301 240.324 52.0292C226.43 54.3857 212.68 57.5238 199.141 61.4286C190.067 64.2153 183.32 66.0721 178.901 66.999C172.537 67.931 166.07 67.931 159.706 66.999C159.152 69.3445 158.208 71.5807 156.913 73.6147C153.423 84.5264 150.747 92.7655 148.886 98.3321C146.095 102.745 143.303 104.486 140.51 103.554C137.947 103.554 135.737 100.421 133.878 94.155C133.81 87.8474 135.633 81.6633 139.113 76.397C139.52 76.0497 139.852 75.625 140.091 75.1479C140.331 74.6707 140.473 74.1507 140.508 73.6183C143.875 65.8278 146.221 57.6367 147.488 49.2476C146.557 46.4604 147.023 44.7196 148.883 44.0253C150.497 44.389 151.96 45.2397 153.072 46.4616C154.596 49.1282 155.881 51.9241 156.911 54.8166C157.317 55.1654 157.65 55.5914 157.89 56.0698C158.13 56.5482 158.272 57.0695 158.309 57.6032C187.341 55.0582 215.817 48.1323 242.766 37.0622ZM173.315 0.506069C195.181 2.13175 207.047 9.79089 208.914 23.4835C210.065 28.0325 209.571 32.8407 207.518 37.0622C205.651 39.846 202.393 39.382 197.745 35.6703C187.507 27.8864 177.935 19.2686 169.126 9.90549C165.636 5.26344 164.356 2.47846 165.288 1.55053C165.288 -0.0737029 167.964 -0.421856 173.315 0.506069Z"
    fill="currentcolor" />
</svg>
