<svg width="16" height="30" viewBox="0 0 16 30" fill="none" xmlns="http://www.w3.org/2000/svg">
  <path d="M8.49277 29.997C5.47045 30.0587 3.26941 29.1638 1.88966 27.3121C0.509908 25.3987 -0.114265 23.0533 0.0171399 20.2758C0.148545 18.3006 0.575612 16.2021 1.29834 13.9801C2.08677 11.7581 3.20371 9.47437 4.64917 7.12892C6.16033 4.72175 8 2.34544 10.1682 0L13.8147 2.59233C13.0919 3.39472 12.2378 4.62917 11.2523 6.29567C10.2667 7.90045 9.37976 9.69039 8.59132 11.6655C7.8686 13.5789 7.47438 15.4306 7.40868 17.2205C7.9343 17.0971 8.32851 17.0353 8.59132 17.0353C8.85413 16.9736 9.14979 16.9428 9.47831 16.9428C11.2523 16.9428 12.7963 17.4365 14.1103 18.4241C15.4901 19.3499 16.1143 20.893 15.9829 23.0533C15.9172 24.9049 15.1616 26.5406 13.7161 27.9602C12.3364 29.3181 10.5953 29.997 8.49277 29.997Z" fill="currentcolor"/>
</svg>
