<svg xmlns="http://www.w3.org/2000/svg" viewBox="0 0 36 24">
  <path fill="#012169" d="M2,0 L34,0 L34,24 L2,24 L2,0 Z"/>
  <path fill="#fff" d="M5.75,0 L17.95,9.05 L30.1,0 L34,0 L34,3.1 L22,12.05 L34,20.95 L34,24 L30,24 L18,15.05 L6.05,24 L2,24 L2,21 L13.95,12.1 L2,3.2 L2,0 L5.75,0 Z"/>
  <path fill="#C8102E" d="M23.2,14.05 L34,22 L34,24 L20.45,14.05 L23.2,14.05 Z M14,15.05 L14.3,16.8 L4.7,24 L2,24 L14,15.05 Z M34,0 L34,0.15 L21.55,9.55 L21.65,7.35 L31.5,0 L34,0 Z M2,0 L13.95,8.8 L10.95,8.8 L2,2.1 L2,0 Z"/>
  <path fill="#fff" d="M14.05,0 L14.05,24 L22.05,24 L22.05,0 L14.05,0 Z M2,8 L2,16 L34,16 L34,8 L2,8 Z"/>
  <path fill="#C8102E" d="M2,9.65 L2,14.45 L34,14.45 L34,9.65 L2,9.65 Z M15.65,0 L15.65,24 L20.45,24 L20.45,0 L15.65,0 Z"/>
</svg>
