<svg width="76" height="38" viewBox="0 0 76 38" fill="none" xmlns="http://www.w3.org/2000/svg">
<path d="M4 0.5C4 15.2595 7.56942 21.8568 12.6849 25.054C15.3328 26.7089 18.5975 27.5931 22.4809 28.0446C26.3747 28.4974 30.7204 28.5 35.5 28.5H61.2696C62.1449 25.3288 65.0505 23 68.5 23C72.6421 23 76 26.3579 76 30.5C76 34.6421 72.6421 38 68.5 38C65.0505 38 62.1449 35.6712 61.2696 32.5L35.4249 32.5C30.7308 32.5 26.1655 32.5 22.0189 32.0179C17.8399 31.5319 13.917 30.5411 10.5649 28.446C3.6805 24.1432 4.90741e-08 15.7405 0 0.5L4 0.5Z" fill="currentcolor"/>
</svg>
