<svg width="27" height="76" viewBox="0 0 27 76" fill="none" xmlns="http://www.w3.org/2000/svg">
<path d="M0 4C4.63995 4.00003 7.90399 4.86392 10.2394 6.27451C12.5452 7.66714 14.121 9.69806 15.2096 12.3777C16.3147 15.0981 16.9027 18.4543 17.201 22.4007C17.4989 26.342 17.5 30.7306 17.5 35.5V61.2696C14.3288 62.1449 12 65.0504 12 68.5C12 72.6422 15.3578 76 19.5 76C23.6422 76 27 72.6422 27 68.5C27 65.0504 24.6712 62.1449 21.5 61.2696V35.4499C21.5 30.7372 21.5 26.2058 21.1896 22.0992C20.8785 17.983 20.2478 14.1518 18.9154 10.8722C17.5665 7.55194 15.4861 4.77042 12.3074 2.85056C9.15851 0.948669 5.11005 3.05176e-05 0 0V4Z" fill="currentcolor"/>
</svg>
