<svg width="544" height="352" viewBox="0 0 544 352" fill="none" xmlns="http://www.w3.org/2000/svg">
  <rect x="506.483" y="309.76" width="37.5172" height="14.08" fill="#FDEDE9" />
  <rect x="506.483" y="281.6" width="37.5172" height="14.08" fill="#FDEDE9" />
  <rect x="506.483" y="337.92" width="37.5172" height="14.08" fill="#FDEDE9" />
  <rect x="483.035" y="281.6" width="18.7586" height="70.3999" fill="#FDEDE9" />
  <rect x="412.689" y="281.6" width="23.4483" height="70.3999" fill="#FDEDE9" />
  <path
    d="M473.655 352C473.655 347.685 472.806 343.413 471.156 339.427C469.506 335.441 467.088 331.82 464.04 328.769C460.991 325.718 457.373 323.298 453.39 321.647C449.407 319.996 445.138 319.146 440.827 319.146L440.827 352H473.655Z"
    fill="#FDEDE9" />
  <path
    d="M440.827 316.8C443.906 316.8 446.956 316.344 449.8 315.46C452.645 314.575 455.23 313.279 457.408 311.645C459.585 310.01 461.312 308.07 462.491 305.935C463.669 303.799 464.275 301.511 464.275 299.2C464.275 296.888 463.669 294.6 462.491 292.464C461.312 290.329 459.585 288.389 457.408 286.755C455.23 285.12 452.645 283.824 449.8 282.939C446.956 282.055 443.906 281.6 440.827 281.6L440.827 299.2L440.827 316.8Z"
    fill="#FDEDE9" />
  <path fill-rule="evenodd" clip-rule="evenodd"
    d="M355.496 313.74L337.655 352H360.85L370.48 331.34L380.11 352H403.31L385.469 313.74H355.496Z" fill="#FDEDE9" />
  <path d="M370.481 281.6L383.7 310.065H357.261L370.481 281.6Z" fill="#FDEDE9" />
  <rect x="309.517" y="281.6" width="18.7586" height="70.3999" fill="#FDEDE9" />
  <rect x="262.621" y="281.6" width="18.7586" height="70.3999" fill="#FDEDE9" />
  <rect x="286.069" y="307.412" width="18.7586" height="18.7733" fill="#FDEDE9" />
  <path
    d="M262.621 117.333C247.224 117.333 231.979 114.298 217.754 108.402C203.53 102.505 190.605 93.8624 179.719 82.9671C168.832 72.0717 160.196 59.137 154.304 44.9014C148.412 30.6659 145.379 15.4084 145.379 0L262.621 3.8232e-05L262.621 117.333Z"
    fill="#366D65" />
  <path
    d="M1.39809e-06 234.666C15.3964 234.666 30.642 237.701 44.8664 243.597C59.0907 249.494 72.0153 258.137 82.9022 269.032C93.7891 279.928 102.425 292.862 108.317 307.098C114.209 321.333 117.241 336.591 117.241 351.999L0 351.999L1.39809e-06 234.666Z"
    fill="#366D65" />
  <path
    d="M117.241 234.666C86.147 234.666 56.3262 222.304 34.3392 200.3C12.3522 178.296 -8.64987e-07 148.452 0 117.333C8.64987e-07 86.2144 12.3522 56.3703 34.3392 34.3661C56.3262 12.3618 86.147 -3.71086e-07 117.241 0L117.241 234.666Z"
    fill="#F26B4F" />
  <path
    d="M145.38 117.334C160.776 117.334 176.022 120.369 190.246 126.265C204.47 132.162 217.395 140.805 228.282 151.7C239.169 162.595 247.805 175.53 253.696 189.766C259.588 204.001 262.621 219.259 262.621 234.667C262.621 250.076 259.588 265.333 253.696 279.569C247.804 293.804 239.169 306.739 228.282 317.634C217.395 328.53 204.47 337.172 190.246 343.069C176.021 348.965 160.776 352 145.379 352L145.38 117.334Z"
    fill="#F26B4F" />
  <path
    d="M421.207 168.969C429.079 173.566 438.074 176.047 447.322 176.047C456.57 176.047 465.564 173.566 473.437 168.969V247.374H421.207V168.969Z"
    fill="#FAC6BB" />
  <ellipse cx="447.322" cy="106.243" rx="52.2298" ry="52.2707" fill="#F4836C" />
  <path
    d="M384.646 132.378C376.774 127.781 367.779 125.3 358.531 125.3C349.284 125.3 340.289 127.781 332.417 132.378L332.417 53.9727L384.646 53.9727L384.646 132.378Z"
    fill="#B1C6C3" />
  <ellipse cx="358.531" cy="195.104" rx="52.2298" ry="52.2707" transform="rotate(-180 358.531 195.104)"
    fill="#57847E" />
</svg>
