<svg width="60" height="60" viewBox="0 0 60 60" fill="none" xmlns="http://www.w3.org/2000/svg">
<path d="M30 0L35.3958 16.9733L51.2132 8.7868L43.0267 24.6042L60 30L43.0267 35.3958L51.2132 51.2132L35.3958 43.0267L30 60L24.6042 43.0267L8.7868 51.2132L16.9733 35.3958L0 30L16.9733 24.6042L8.7868 8.7868L24.6042 16.9733L30 0Z" fill="#121212"/>
<path d="M30 0L35.3958 16.9733L51.2132 8.7868L43.0267 24.6042L60 30L43.0267 35.3958L51.2132 51.2132L35.3958 43.0267L30 60L24.6042 43.0267L8.7868 51.2132L16.9733 35.3958L0 30L16.9733 24.6042L8.7868 8.7868L24.6042 16.9733L30 0Z" fill="#121212"/>
</svg>
