<svg width="1118" height="385" viewBox="0 0 1118 385" fill="none" xmlns="http://www.w3.org/2000/svg">
  <path fill="currentcolor" fill-rule="evenodd" clip-rule="evenodd"
    d="M688.361 379.902C688.361 379.165 686.519 374.495 684.187 369.824C681.978 365.031 677.559 355.813 674.367 349.299L668.721 337.378V250.608L719.415 250.731C753.784 250.854 773.178 250.362 779.806 249.379C785.207 248.519 803.128 245.815 819.699 243.357C836.27 241.022 852.472 238.441 855.909 237.703C865.115 235.86 897.029 231.558 901.325 231.558C904.639 231.558 904.148 232.05 896.415 236.597C891.979 239.216 884.593 243.418 879.235 246.466L879.234 246.467L879.23 246.469L878.003 247.167C872.603 250.116 864.624 254.787 860.205 257.491C855.786 260.194 850.263 263.267 847.931 264.496C845.598 265.602 841.916 267.692 839.952 269.166C837.865 270.518 832.587 273.714 828.046 276.295C823.504 278.753 815.035 283.546 809.143 286.987C803.374 290.429 798.464 293.01 798.341 292.764C798.096 292.395 793.554 284.652 782.261 265.111L776.37 254.91H767.409C760.904 254.91 758.326 255.401 758.326 256.507C758.326 256.665 758.858 257.743 759.79 259.508C759.378 259.215 758.97 259.002 758.6 258.901C757.249 258.655 739.328 258.533 718.83 258.655L681.392 259.024L681.515 299.951C681.638 333.626 682.006 341.615 683.479 344.811C684.584 347.023 688.757 355.872 692.808 364.598C696.981 373.324 700.295 381.067 700.295 381.927C700.295 384.263 703.241 385 711.465 385C718.462 385 718.83 384.877 717.971 382.296C717.234 379.715 709.256 362.509 702.996 349.358C701.154 345.671 699.436 342.23 699.313 341.738C699.068 341.124 699.927 340.755 701.154 340.755C702.873 340.755 705.45 345.056 711.588 358.33C716.129 367.916 720.671 377.872 721.776 380.453L723.617 385H731.595C737.855 385 739.574 384.631 739.574 383.156C739.574 382.173 735.401 372.464 730.368 361.526C725.335 350.71 721.162 341.615 721.162 341.247C721.162 341.001 722.021 340.755 723.126 340.755C724.844 340.755 728.772 348.375 741.538 376.151L745.589 385H753.567C757.986 385 761.668 384.508 761.668 383.894C761.668 382.665 758.968 376.766 747.675 352.677C742.52 341.738 742.274 340.632 744.606 341.001C746.57 341.246 749.148 345.794 756.267 361.034C761.3 371.849 765.842 381.559 766.455 382.542C767.56 384.631 781.921 385.86 783.026 383.894C783.517 383.279 781.185 377.257 778.116 370.62C762.773 338.174 756.39 325.392 755.408 324.777C754.794 324.409 742.274 323.917 727.667 323.794C718.807 323.72 710.79 323.646 705.675 323.599L705.66 323.599L705.654 323.599C703.871 323.582 702.442 323.569 701.454 323.56C700.572 323.552 700.042 323.548 699.927 323.548C699.436 323.548 699.068 322.442 699.068 320.967C699.068 318.509 699.436 318.509 727.299 318.878C745.589 319.124 755.531 318.755 755.531 318.018C756.145 306.588 756.022 303.638 755.285 303.024C754.672 302.778 741.783 302.532 726.686 302.655C699.559 302.778 699.068 302.655 699.068 300.197C699.068 297.739 699.559 297.616 726.931 297.739C743.379 297.862 755.04 297.493 755.285 296.756C755.408 296.141 753.567 292.208 751.112 288.029L746.693 280.532H723.003C703.855 280.532 699.19 280.164 698.699 278.812C698.331 277.828 698.331 276.722 698.699 276.354C699.19 275.985 710.606 275.616 724.231 275.616H749.025L753.322 282.745C755.654 286.555 759.213 292.823 761.177 296.51C763.141 300.197 765.228 303.761 765.719 304.498C766.578 305.605 773.575 317.649 786.095 339.28C788.918 344.196 791.741 347.883 792.355 347.515C793.828 346.654 841.453 337.928 920.011 324.163L939.619 320.692C970.58 315.213 994.81 310.925 1007.16 308.677C1013.25 307.612 1019.87 306.395 1023.73 305.686C1024.78 305.495 1025.62 305.34 1026.19 305.236L1031.1 304.376L1030.73 297.616C1030.61 294.052 1030.11 290.242 1029.87 289.258C1029.13 287.292 1024.71 287.784 999.796 292.331C990.713 294.052 971.073 297.616 956.221 300.197C941.369 302.778 921.361 306.342 911.787 308.185C902.09 309.906 893.007 311.258 891.534 311.012C889.815 310.766 898.162 307.202 912.032 302.163C918.01 299.976 923.773 297.897 928.363 296.241L928.364 296.24L928.391 296.23C933.587 294.356 937.273 293.026 938.055 292.7C940.632 291.716 940.755 291.471 938.914 287.292C937.932 284.834 937.441 282.376 937.809 281.638C939.036 279.795 933.267 275.739 931.058 276.968C930.076 277.583 900.74 288.275 866.002 300.811C831.265 313.347 801.929 324.163 800.702 324.777C798.369 326.129 797.633 325.392 793.091 316.789L793.035 316.69C792.937 316.359 792.778 315.927 792.562 315.423C796.573 315.33 812.655 309.377 887.209 281.703C904.517 275.312 916.055 271.133 937.535 263.513C942.396 261.835 950.233 258.953 957.724 256.199L957.737 256.194L957.745 256.191L957.753 256.188C961.223 254.912 964.618 253.664 967.608 252.575C977.06 249.01 987.493 245.2 990.93 244.217C994.244 243.111 997.558 241.759 998.172 241.267C999.522 240.038 995.103 225.413 993.385 225.413C991.789 225.536 982.583 228.608 963.312 235.86C957.347 238.11 948.458 241.337 940.549 244.207L940.542 244.21L940.54 244.21L940.537 244.212L940.532 244.213C937.219 245.416 934.079 246.556 931.398 247.535C922.315 250.731 909.917 255.155 904.026 257.368C897.643 259.703 892.733 260.932 892.119 260.317C891.383 259.58 896.784 255.893 905.13 251.223C912.863 246.921 919.737 242.742 920.351 242.005C920.965 241.145 920.105 238.564 917.773 234.876C913.845 228.486 913.845 228.485 922.806 227.379C929.189 226.642 956.561 222.586 997.067 216.318C1002.63 215.477 1008.39 214.605 1013.72 213.798L1013.74 213.794C1023.2 212.361 1031.28 211.136 1034.5 210.665C1039.54 209.927 1048.38 208.575 1054.14 207.592C1064.7 205.871 1077.83 203.782 1103.24 200.095C1110.98 198.989 1117.48 197.883 1117.73 197.76C1118.22 197.268 1112.08 183.503 1110.48 181.659C1109.75 180.799 1104.96 181.168 1094.41 183.011C1075.5 186.33 1055.62 189.402 1046.41 190.508C1037.21 191.492 1037.21 189.279 1046.41 187.436C1050.34 186.698 1065.07 183.872 1079.31 181.045C1093.55 178.341 1105.45 175.637 1105.94 175.145C1106.43 174.777 1105.08 170.844 1103 166.665L1099.19 158.922L1094.16 159.66C1091.46 160.151 1086.06 161.257 1082.38 162.118C1068.51 165.559 1030.7 172.81 1029.96 172.196C1028.24 170.352 1032.05 168.755 1045.31 165.805C1053.16 163.961 1064.58 161.257 1070.71 159.66C1076.73 158.062 1085.2 156.095 1089.37 155.358C1096.37 154.006 1098.7 152.654 1096.12 151.425C1095.63 151.302 1093.67 147.861 1091.83 144.051C1089.86 140.118 1087.78 137.291 1086.92 137.537C1086.06 137.906 1074.89 140.61 1062.12 143.682C1054.68 145.456 1046.83 147.353 1040.63 148.852C1036.08 149.95 1032.42 150.834 1030.45 151.302C1024.56 152.777 1021.86 153.023 1020.88 152.04C1019.28 150.442 1024.07 148.598 1042.48 143.559C1048.38 141.948 1056.91 139.585 1062.82 137.949L1065.19 137.291C1069.59 135.979 1074.43 134.666 1077.45 133.844L1077.45 133.843L1078.53 133.55C1078.99 133.426 1079.38 133.32 1079.68 133.235C1082.01 132.744 1084.09 132.006 1084.34 131.638C1085.2 130.9 1078.82 117.75 1076.85 116.029C1075.5 114.923 1075.01 114.923 1075.01 115.906C1075.01 116.644 1074.27 117.258 1073.42 117.258C1072.43 117.258 1059.05 120.945 1043.59 125.37C1013.27 134.219 1010.57 134.71 1010.57 132.129C1010.57 131.023 1020.39 127.213 1040.03 120.822C1056.23 115.537 1070.22 111.113 1071.08 111.113C1073.78 111.113 1073.91 108.04 1071.33 102.264C1067.65 93.7835 1067.16 93.5377 1055.99 97.4706C1050.58 99.4371 1031.8 105.582 1014.25 111.113C1012.62 111.639 1010.98 112.167 1009.33 112.696L1009.33 112.698C993.319 117.852 977.416 122.972 972.518 124.755C967.117 126.599 946.987 133.235 927.716 139.381C908.444 145.649 890.769 151.425 888.437 152.285C886.105 153.146 875.304 156.71 864.503 160.273L864.501 160.274C853.7 163.715 830.746 171.213 813.562 176.866C802.889 180.377 791.033 184.221 781.787 187.218C776.145 189.047 771.474 190.561 768.637 191.492L754.889 195.916H668.721V44.991L675.595 30.4884C677.007 27.4775 678.538 24.2127 680.005 21.0835L680.27 20.5186L680.273 20.5121L680.301 20.4513C682.672 15.3942 684.842 10.7658 686.028 8.24289L689.465 0.5H672.281L666.021 13.7735C662.732 20.969 658.114 30.7061 655.764 35.6589L655.71 35.7732L651.537 44.6222V196.162L630.302 195.67C611.153 195.179 608.33 194.81 600.106 191.737C587.709 187.19 580.958 183.503 572.734 176.989C565.123 170.967 555.917 160.028 551.99 152.654L549.657 147.984H598.019C628.583 147.984 646.627 147.492 646.872 146.755C646.995 146.14 646.995 137.414 646.627 127.459C646.136 111.236 645.645 108.655 642.944 103.247C636.93 91.4484 628.46 87.7613 607.471 87.7613H593.11L585.008 70.1861C583.677 67.346 582.494 64.8055 581.436 62.5333L581.425 62.5102L581.391 62.4377L581.382 62.4166C574.755 48.182 573.058 44.5383 570.448 43.6839C569.551 43.39 568.545 43.4262 567.193 43.4749C566.486 43.5004 565.685 43.5292 564.755 43.5161C560.582 43.5161 556.899 44.0077 556.531 44.4993C556.163 45.1139 558.986 51.8736 562.791 59.6165C572.12 79.0352 575.557 86.7781 574.943 87.5155C572.979 89.359 569.911 84.5658 560.95 65.5158L550.885 44.1306L542.906 43.762C537.015 43.5161 534.928 43.762 534.928 44.991C534.928 45.8513 539.101 55.5606 544.257 66.6219C549.535 77.5603 553.463 86.7781 553.094 87.1468C551.008 89.2361 547.816 84.1971 538.978 65.27L529.159 44.1306L521.058 43.762C514.92 43.5161 512.834 43.762 512.834 44.991C512.956 45.8513 517.252 55.6835 522.653 66.8677C530.386 82.9681 531.982 87.2697 530.509 87.5155C529.404 87.7613 528.177 87.5155 527.686 86.901C527.195 86.4093 522.408 76.3313 517.13 64.7784L507.433 43.5161H499.086C494.544 43.5161 490.739 43.8848 490.739 44.4993C490.739 44.991 492.949 50.03 495.649 55.6835C498.472 61.3371 500.436 66.2532 500.068 66.499C499.822 66.8678 498.104 66.1303 496.385 65.0242L496.145 64.865L496.129 64.8542C495.77 64.6153 495.427 64.3873 495.077 64.1697C487.761 59.6124 477.609 59.6076 254.794 59.5012L0 59.4935L0.122803 76.3313C0.122803 76.3313 132.443 81.0016 151.346 81.739C189.766 83.091 238.373 84.5658 305.884 86.5323C354.491 87.8842 370.693 89.359 398.68 95.1355C417.337 98.9455 445.754 109.5 451.754 112.5C458.194 115.72 477.36 128.688 484.234 135.816C499.331 151.548 501.664 154.744 513.447 176.866C523.144 195.056 540.82 215.826 555.181 226.027C567.947 235.122 583.781 242.251 598.388 245.569C613.485 248.887 640.735 251.96 647.241 250.854L651.537 250.116V337.378L657.183 349.299C659.367 353.757 662.241 359.826 664.703 365.026C665.839 367.424 666.887 369.637 667.739 371.422L672.526 381.5H680.505C686.028 381.5 688.361 381.008 688.361 379.902ZM792.33 315.422C792.403 315.425 792.48 315.425 792.562 315.423C792.345 314.917 792.07 314.339 791.741 313.716C790.778 312.002 789.815 310.474 789.34 310.111C788.07 307.878 786.774 305.632 785.726 303.884C778.362 291.594 764.123 266.398 762.527 262.957C761.993 261.62 760.877 260.283 759.79 259.508C765.21 269.776 784.155 303.272 790.578 313.836C791.66 315.867 792.73 317.403 793.091 317.403C793.191 317.403 793.17 317.141 793.035 316.69C792.818 316.299 792.582 315.873 792.33 315.422ZM792.33 315.422C791.683 315.396 791.409 315.185 791.222 314.886C791.112 314.709 790.997 314.522 790.877 314.325L790.757 314.129C790.698 314.033 790.639 313.936 790.578 313.836C790.557 313.796 790.535 313.756 790.514 313.716C789.409 311.75 788.918 310.029 789.163 310.029C789.211 310.029 789.27 310.057 789.34 310.111C790.41 311.993 791.462 313.865 792.33 315.422ZM761.906 192.27C761.72 192.583 761.573 192.83 761.5 193C755.973 195.5 690 195.5 681.76 194.254V48.6138L688.021 34.6029C691.58 26.86 696.367 16.9048 698.577 12.3574L702.75 4H710.729C715.147 4 718.707 4.49161 718.707 5.10613C718.707 6.21226 703.978 37.9213 700.909 43.5748C698.577 47.7536 698.577 48.2452 701.4 48.2452C702.996 48.2452 704.714 45.91 707.414 39.8877C709.378 35.3403 714.043 25.3851 717.602 17.888L723.985 4H732.455C736.996 4 740.801 4.2458 740.801 4.49161C740.801 4.86032 736.383 14.5697 730.982 26.2455C725.581 37.7984 721.162 47.5077 721.162 47.7535C721.162 47.9994 722.021 48.2452 723.126 48.2452C724.844 48.2452 728.772 40.6251 741.538 12.9719L745.589 4H753.567C759.582 4 761.668 4.49161 761.668 5.72064C761.668 6.58097 759.091 12.4803 756.022 18.8713C748.289 34.48 744.484 43.329 744.484 45.1726C744.484 46.1558 743.747 47.139 742.888 47.5077C742.152 47.8764 742.643 47.9994 744.238 47.8765C746.693 47.6307 748.657 44.4352 756.881 26.7371C762.282 15.3071 767.069 5.47486 767.683 4.86034C768.174 4.36873 772.347 4.00002 776.766 4.24583L784.745 4.61452L779.712 15.0613C777.011 20.8377 772.347 30.4242 769.401 36.4464C764.737 46.0329 764.123 48.3681 764.123 55.6194C764.123 62.379 763.755 64.0997 762.036 64.7142C760.809 65.2058 747.675 65.5745 732.823 65.4516C729.921 65.4321 727.267 65.4125 724.841 65.3946C703.291 65.2357 699.64 65.2088 699.106 66.4857C698.997 66.7461 699.018 67.0609 699.043 67.4398C699.055 67.6221 699.068 67.8194 699.068 68.0326C699.068 70.4906 699.559 70.4906 731.227 70.2448L763.509 69.999L763.878 78.2335C764.123 84.2558 763.878 86.3451 762.65 86.3451H730C699.804 86.2222 699.068 86.3451 699.068 88.8032C699.068 91.1384 699.927 91.2613 731.227 91.5071L763.509 91.8758V107.853L731.227 108.222C700.172 108.468 699.068 108.591 699.068 110.926C699.068 113.261 700.172 113.384 731.227 113.63L763.509 113.998V129.976L731.227 130.344C701.277 130.59 698.945 130.836 699.313 132.803C699.681 134.769 702.382 134.892 731.595 135.015H763.509L763.878 141.037C763.932 141.926 763.998 142.744 764.058 143.496C764.287 146.351 764.441 148.263 763.611 149.533C761.927 152.109 756.193 152.037 738.821 151.821L738.812 151.821C736.428 151.791 733.824 151.759 730.982 151.73C699.559 151.361 699.068 151.361 699.068 153.942C699.068 156.4 699.681 156.4 730 156.4C747.061 156.4 761.791 156.892 762.527 157.383C763.509 157.998 763.878 160.456 763.632 164.143C763.387 167.461 763.755 169.919 764.491 169.919C765.105 169.919 764.982 170.78 764.123 171.763C762.896 173.361 757.618 173.606 730.982 173.606C700.418 173.606 699.313 173.729 698.699 176.065C698.086 178.4 698.822 178.523 730.736 178.768L763.509 179.137L763.878 185.774C764.074 188.632 762.663 191 761.906 192.27ZM692.318 334.61C693.299 332.889 691.948 330.923 689.74 330.923C688.758 330.923 688.021 332.029 688.021 333.381C688.021 335.962 690.966 336.822 692.318 334.61ZM692.318 312.487C693.299 310.766 691.948 308.8 689.74 308.8C688.758 308.8 688.021 309.906 688.021 311.258C688.021 313.839 690.966 314.699 692.318 312.487ZM689.371 287.169C691.089 286.186 693.421 288.521 692.439 290.242C691.948 290.979 690.721 291.594 689.739 291.594C687.775 291.594 687.407 288.398 689.371 287.169ZM692.194 268.365C693.053 267.013 689.984 264.309 688.88 265.415C688.389 265.784 688.021 266.89 688.021 267.873C688.021 269.717 691.212 270.086 692.194 268.365ZM772.124 224.651C774.817 229.432 777.503 234.201 777.993 235.427C778.607 237.147 778.116 237.516 775.416 237.516C772.47 237.516 771.488 236.164 766.824 227.684C760.932 216.5 760.686 215.025 764.369 215.639C766.21 215.885 768.665 218.712 772.102 224.611L772.124 224.651ZM800.947 232.969C800.947 232.108 798.124 226.332 794.687 220.31C790.391 212.567 787.813 209.248 786.217 209.248C784.99 209.248 783.64 209.617 783.271 210.232C783.026 210.723 785.727 216.377 789.286 222.768C794.196 231.371 796.528 234.444 798.369 234.566C799.842 234.689 800.947 233.952 800.947 232.969ZM810.521 203.964C812.976 207.405 822.55 225.472 823.655 228.667C824.392 231.248 824.146 231.494 821.568 231.125C819.359 230.879 817.149 227.93 811.749 218.466C807.944 211.706 804.752 205.561 804.752 204.824C804.507 202.243 808.803 201.628 810.521 203.964ZM737.733 232.769C738.101 232.523 737.487 230.802 736.505 228.836L734.664 225.394L673.659 225.026C673.659 225.026 642.497 229.5 619 226C614.279 225.297 601.73 221.216 601.73 221.216C585.282 216.177 567.607 206.467 558.401 197.372C551.772 190.981 549.931 190.244 554.35 195.775C565.888 210.277 587 223.428 607.622 229.204C616.951 231.785 620.265 231.908 677.342 232.646C710.36 233.014 737.487 233.014 737.733 232.769ZM830.652 196.098C832.125 196.589 847.591 224.98 847.591 226.946C847.591 227.438 846.118 227.684 844.399 227.438C841.822 227.069 839.98 224.734 833.352 211.952C826.846 199.662 825.742 196.835 827.215 196.221C828.319 195.852 829.915 195.729 830.652 196.098ZM870.912 223.382C870.912 222.645 853.973 189.83 852.991 188.478C852.746 188.232 851.15 188.355 849.432 188.846L846.363 189.584L853.36 202.857C857.165 210.109 861.215 217.729 862.32 219.695C863.67 222.153 865.511 223.505 867.598 223.751C869.439 223.997 870.912 223.751 870.912 223.382ZM883.432 199.293C888.711 209.494 893.007 218.22 893.007 218.958C893.007 219.695 891.779 220.31 890.183 220.31C887.974 220.31 885.887 217.237 877.909 202.243C872.631 192.288 868.703 183.439 868.948 182.578C869.317 181.718 870.544 180.981 871.772 180.981C873.367 180.981 876.681 186.265 883.432 199.293ZM914.978 216.746C916.328 215.885 914.487 211.461 906.509 195.852C900.862 184.914 895.584 175.45 894.848 174.835C893.866 174.098 892.761 174.221 891.288 175.204C889.447 176.556 890.306 178.645 900.003 196.835C906.018 208.019 911.296 217.237 912.032 217.483C912.646 217.606 913.996 217.36 914.978 216.746ZM939.65 212.444C939.65 212.69 938.423 213.058 936.827 213.304C935.354 213.55 934.004 213.919 933.881 214.042C933.758 214.042 931.058 209.003 927.989 202.857C924.798 196.589 919.397 186.265 916.083 179.997L909.946 168.69L912.892 167.584C914.364 166.97 916.083 166.847 916.451 167.338C917.188 167.953 939.65 211.829 939.65 212.444ZM961.499 209.617C963.217 209.003 939.159 160.947 936.704 160.456C935.968 160.21 934.618 160.579 933.636 161.193C932.04 162.176 935.845 170.534 952.907 203.103C956.344 209.617 958.185 211.092 961.499 209.617ZM958.308 152.713C959.29 152.713 985.066 203.472 985.066 205.684C985.066 206.422 983.839 206.79 982.243 206.545C980.034 206.299 976.965 201.26 966.409 180.981C954.502 158.244 953.398 155.663 955.239 154.311C956.344 153.45 957.694 152.713 958.308 152.713ZM1008.39 202.366C1008.39 201.874 1002.25 189.215 994.64 174.098C984.207 153.205 980.279 146.568 978.683 146.568C977.456 146.568 976.106 147.305 975.738 148.165C975.492 149.026 981.261 161.685 988.626 176.187C1000.41 199.293 1002.5 202.489 1005.2 202.857C1006.92 203.103 1008.39 202.857 1008.39 202.366ZM1000.41 139.194C1001.39 139.194 1029.26 192.411 1031.46 198.31C1031.71 198.925 1030.36 199.416 1028.4 199.416C1025.08 199.416 1024.22 197.941 1010.47 170.288C995.991 141.529 995.254 139.194 1000.41 139.194ZM691.703 187.126C691.703 185.774 690.844 184.668 689.862 184.668C688.88 184.668 688.021 185.774 688.021 187.126C688.021 188.478 688.88 189.584 689.862 189.584C690.844 189.584 691.703 188.478 691.703 187.126ZM688.021 163.897C689.371 161.562 693.053 163.16 692.194 165.618C691.457 167.584 688.634 168.076 687.53 166.478C687.284 165.986 687.407 164.757 688.021 163.897ZM530.905 148.657C530.905 148.288 530.046 144.478 528.942 140.177C527.837 135.875 526.609 129.853 526.118 126.657L525.382 120.881L521.331 125.674L517.403 130.467L523.663 139.439C530.905 149.763 530.905 149.64 530.905 148.657ZM689.739 140.423C692.317 140.423 693.421 142.758 691.703 144.724C690.844 145.707 689.739 146.199 689.125 145.83C687.284 144.724 687.898 140.423 689.739 140.423ZM632.048 134.4C636.835 131.205 638.799 127.395 638.922 121.373C638.922 114.367 635.362 109.205 628.734 106.624C624.07 104.904 622.474 104.781 618.792 106.01C606.64 109.943 603.571 125.428 613.268 133.663C618.055 137.596 626.647 137.842 632.048 134.4ZM616.95 125.551C613.391 119.16 618.669 112.032 625.788 113.753C628.366 114.49 631.557 118.914 631.557 121.864C631.557 122.479 630.33 124.322 628.98 126.166C625.543 130.59 619.528 130.222 616.95 125.551ZM585.282 124.691C584.914 126.78 582.704 130.345 580.372 132.557C576.69 136.244 575.462 136.735 569.693 136.735C564.17 136.735 562.451 136.121 559.383 133.294C549.808 124.322 553.245 109.205 565.643 105.887C576.812 102.937 587.614 113.138 585.282 124.691ZM569.57 113.384C562.697 113.384 559.137 121.987 564.047 126.903C565.397 128.255 567.852 129.361 569.57 129.361C573.498 129.361 577.549 125.305 577.549 121.373C577.549 117.44 573.498 113.384 569.57 113.384ZM692.317 123.216C693.544 121.25 690.353 117.931 688.88 119.406C687.53 120.758 688.634 124.445 690.353 124.445C690.966 124.445 691.948 123.831 692.317 123.216ZM508.811 99.8645C508.811 105.149 504.76 112.032 500.219 114.244C495.8 116.456 489.172 116.211 484.753 113.507C479.229 110.188 476.161 101.708 478.125 95.6858C479.72 90.6468 485.121 85.6077 490.154 84.5016C499.114 82.5351 508.811 90.5239 508.811 99.8645ZM495.8 92.4903C487.453 89.2948 481.561 100.233 488.681 105.887C490.597 107.358 491.516 108.064 492.511 108.194C493.427 108.315 494.407 107.946 496.291 107.239C502.797 104.535 502.551 95.0713 495.8 92.4903ZM692.318 101.216C693.299 99.3729 691.948 97.4064 689.74 97.4064C688.635 97.4064 688.021 98.2668 688.266 99.4958C688.757 101.954 691.213 102.937 692.318 101.216ZM467.077 84.8702C465.727 87.3283 464.254 91.507 463.886 94.0879C463.395 96.546 462.904 98.6354 462.781 98.6354C462.536 98.6354 456.767 96.4231 449.893 93.7192C443.019 90.8925 429.271 86.7138 419.452 84.3786C409.509 81.9205 401.285 79.8312 401.163 79.7083C401.04 79.7083 416.383 79.5854 435.286 79.5854C454.066 79.5854 469.532 79.7084 469.532 79.9541C469.532 80.077 468.428 82.2892 467.077 84.8702ZM692.318 78.971C693.299 77.2503 691.948 75.2839 689.74 75.2839C688.758 75.2839 688.021 76.39 688.021 77.7419C688.021 80.3229 690.966 81.1832 692.318 78.971ZM691.703 54.3903C692.317 55.3735 692.439 56.6026 692.194 57.0942C691.335 58.4461 688.389 58.3232 687.53 56.9713C687.161 56.3568 687.652 55.1277 688.757 54.2674C690.353 53.0384 690.844 53.0384 691.703 54.3903Z" />
</svg>
