<svg width="300" height="292" viewBox="0 0 300 292" fill="none" xmlns="http://www.w3.org/2000/svg">
  <path
    d="M68.0369 79.9796C78.9683 78.1286 90.7151 83.116 103.277 94.9418C102.852 97.6362 101.495 100.097 99.4407 101.899C88.3552 115.349 81.6592 131.857 80.2508 149.209C84.9029 151.067 87.229 152.922 87.229 154.775C87.229 155.706 84.4379 157.563 78.8559 160.346C65.3257 166.083 51.1503 170.171 36.6374 172.521C34.7742 194.32 31.6342 202.9 27.2177 198.262C21.6337 191.076 17.911 174.377 16.0497 148.164C13.4872 122.657 8.95116 106.307 2.44162 99.1141C1.04779 97.0396 0.207447 94.645 0 92.1566C0.926058 85.8964 11.277 87.2883 31.0527 96.3325C44.3315 93.3357 56.895 87.7806 68.0369 79.9796ZM69.4318 97.7233C67.568 94.9418 60.706 95.8687 48.8455 100.504C43.0777 103.122 37.132 105.331 31.0527 107.115L35.2403 164.166C44.2919 161.122 52.9565 157.035 61.0587 151.989C64.9294 143.901 67.2938 135.179 68.0369 126.248C70.7287 116.979 71.2069 107.21 69.4318 97.7233ZM174.454 2.75317C185.151 -3.73757 197.828 1.24838 212.484 17.711C213.411 20.2664 211.55 26.0643 206.901 35.1047C202.483 45.0809 198.878 53.7777 196.087 61.1952C203.089 58.7697 209.96 55.9835 216.672 52.8477C229.233 47.5141 237.839 46.5857 242.49 50.0625C248.771 53.7746 251.911 56.5583 251.909 58.4136C251.908 60.269 249.233 62.0083 243.885 63.6317C230.159 68.2744 212.831 73.2603 191.898 78.5896L176.895 127.64C221.556 117.671 250.283 110.366 263.075 105.725C277.13 110.146 289.767 118.185 299.71 129.031C300.128 130.921 300.093 132.883 299.609 134.757C299.124 136.631 298.203 138.365 296.921 139.817C291.754 151.762 289.483 164.752 290.291 177.735V225.392C290.291 259.017 280.289 280.816 260.285 290.788C254.702 293.342 250.166 290.561 246.677 282.443C242.913 274.797 238.352 267.567 233.07 260.872C227.487 254.382 229.697 252.527 239.7 255.308C251.561 258.09 258.423 257.625 260.285 253.914C264.701 245.803 266.909 223.193 266.912 186.083V180.514C267.842 146.194 262.841 128.105 251.909 126.247C246.557 124.392 235.276 125.32 218.067 129.028C214.397 129.842 210.659 130.308 206.901 130.423C209.159 131.511 211.491 132.441 213.879 133.204C225.745 137.614 227.955 142.599 220.509 148.162C214.899 152.893 209.863 158.264 205.507 164.164C203.131 168.456 199.93 172.239 196.087 175.298C200.736 174.37 206.202 172.978 212.484 171.122C220.626 168.34 226.092 168.34 228.882 171.122C232.371 173.903 234.581 175.76 235.512 176.691C235.512 177.385 234.233 178.196 231.676 179.126C223.53 181.908 210.271 185.616 191.899 190.252V210.43C195.189 210.241 198.458 209.777 201.67 209.043C217.947 204.641 229.228 204.641 235.512 209.043C244.584 214.606 235.047 219.591 206.902 223.998C202.322 223.802 197.738 224.272 193.294 225.392C193.969 242.459 191.728 259.516 186.667 275.834C181.084 288.354 177.827 286.963 176.896 271.659V228.174C172.911 229.44 168.826 230.371 164.684 230.955C154.682 233.737 148.402 234.202 145.845 232.35C145.309 232.317 144.786 232.176 144.307 231.936C143.827 231.697 143.402 231.363 143.055 230.955C128.4 226.32 127.004 223.074 138.866 221.217C153.522 218.669 165.849 216.465 175.85 214.607V191.648C171.193 192.342 166.192 193.154 160.847 194.084C153.401 195.945 148.749 195.945 146.891 194.084C140.609 190.609 137.469 188.405 137.471 187.472C137.471 186.553 140.261 185.619 145.844 184.692C151.192 183.764 160.729 181.91 174.454 179.129C179.803 178.201 183.873 177.389 186.666 176.693C195.748 163.305 201.38 147.891 203.063 131.816L119.674 146.773C120.6 203.822 120.6 240.928 119.674 258.093C118.045 275.255 115.37 284.3 111.65 285.228C106.993 284.301 102.457 276.184 98.0414 260.877C97.3784 253.912 98.3343 246.888 100.835 240.351C103.265 228.793 104.55 217.025 104.672 205.216C104.672 175.3 101.067 154.891 93.8575 143.988C93.1572 142.2 92.6877 140.33 92.4604 138.424C93.3908 134.945 101.649 134.48 117.234 137.029L163.29 130.423L176.897 79.9811C167.222 83.1326 157.063 84.5465 146.892 84.157C140.351 83.3311 133.989 81.451 128.053 78.5903C127.119 76.7393 130.724 75 138.867 73.3722C146.058 71.3426 153.413 69.9453 160.848 69.1963C168.989 67.3424 174.804 65.9504 178.293 65.0203C183.079 47.5781 182.225 29.075 175.851 12.145C173.986 7.50963 173.52 4.37899 174.454 2.75317ZM149.68 150.599C148.75 140.631 153.286 140.631 163.288 150.599C169.797 160.571 170.728 167.878 166.081 172.518C160.725 175.994 155.258 168.687 149.68 150.599Z"
    fill="currentcolor" />
</svg>
